SplineFontDB: 3.2
FontName: KFGQPCNastaleeq-Regular
FullName: KFGQPC Nastaleeq Regular
FamilyName: KFGQPC Nastaleeq
Weight: Book
Copyright: The digitally signed machine readable Typeface(Font) licensed to you is copyrighted, (2010), King Fahd Glorious Quran Printing Complex.\nISBN: 978-603-8187-36-4, Accession No. 1438/1338\nAll rights reserved. This Font is the property of King Fahd Glorious Quran Printing Complex, and may not be reproduced, modified without the express written approval of King Fahd Glorious Quran Printing Complex.
Version: 0.10
ItalicAngle: 0
UnderlinePosition: -750
UnderlineWidth: 102
Ascent: 1638
Descent: 410
InvalidEm: 0
sfntRevision: 0x00010000
LayerCount: 2
Layer: 0 1 "Back" 1
Layer: 1 1 "Fore" 0
XUID: [1021 802 -364497770 7782592]
StyleMap: 0x0040
FSType: 0
OS2Version: 3
OS2_WeightWidthSlopeOnly: 0
OS2_UseTypoMetrics: 0
CreationTime: 1520995660
ModificationTime: 1743750008
PfmFamily: 17
TTFWeight: 400
TTFWidth: 5
LineGap: 0
VLineGap: 0
Panose: 2 0 0 0 0 0 0 0 0 0
OS2TypoAscent: 2400
OS2TypoAOffset: 0
OS2TypoDescent: -1200
OS2TypoDOffset: 0
OS2TypoLinegap: 0
OS2WinAscent: 2400
OS2WinAOffset: 0
OS2WinDescent: 1200
OS2WinDOffset: 0
HheadAscent: 2400
HheadAOffset: 0
HheadDescent: -1200
HheadDOffset: 0
OS2SubXSize: 1434
OS2SubYSize: 1331
OS2SubXOff: 0
OS2SubYOff: 287
OS2SupXSize: 1434
OS2SupYSize: 1331
OS2SupXOff: 0
OS2SupYOff: 977
OS2StrikeYSize: 102
OS2StrikeYPos: 512
OS2CapHeight: 2520
OS2XHeight: 1024
OS2Vendor: 'KFGQ'
OS2CodePages: 00000040.00000000
OS2UnicodeRanges: 00002000.00000000.00000000.00000000
Lookup: 4 1 1 "'liga' Standard Ligatures in Arabic lookup 0" { "'liga' Standard Ligatures in Arabic lookup 0 subtable"  } ['liga' ('arab' <'dflt' > ) ]
Lookup: 1 1 0 "'init' Initial Forms in Arabic lookup 1" { "'init' Initial Forms in Arabic lookup 1 subtable"  } ['init' ('arab' <'dflt' > ) ]
Lookup: 1 1 0 "'medi' Medial Forms in Arabic lookup 2" { "'medi' Medial Forms in Arabic lookup 2 subtable"  } ['medi' ('arab' <'dflt' > ) ]

StartChar: zero
Encoding: 48 48 2
Width: 800
GlyphClass: 2
Flags: W
LayerCount: 2
Fore
SplineSet
725 567 m 256,0,1
 725 477 725 477 720 377.5 c 128,-1,2
 715 278 715 278 683.5 195 c 128,-1,3
 652 112 652 112 583.5 58 c 128,-1,4
 515 4 515 4 388 5 c 0,5,6
 260 6 260 6 193.5 60 c 128,-1,7
 127 114 127 114 98.5 197 c 128,-1,8
 70 280 70 280 67.5 378.5 c 128,-1,9
 65 477 65 477 65 567 c 256,10,11
 65 657 65 657 67.5 755.5 c 128,-1,12
 70 854 70 854 98.5 937 c 128,-1,13
 127 1020 127 1020 193.5 1074 c 128,-1,14
 260 1128 260 1128 388 1129 c 0,15,16
 515 1130 515 1130 583.5 1076 c 128,-1,17
 652 1022 652 1022 683.5 939 c 128,-1,18
 715 856 715 856 720 756.5 c 128,-1,19
 725 657 725 657 725 567 c 256,0,1
614 567 m 0,20,21
 614 630 614 630 611 706.5 c 128,-1,22
 608 783 608 783 587.5 850 c 128,-1,23
 567 917 567 917 521.5 962 c 128,-1,24
 476 1007 476 1007 391 1006 c 0,25,26
 305 1005 305 1005 261 958.5 c 128,-1,27
 217 912 217 912 198.5 844.5 c 128,-1,28
 180 777 180 777 179 701.5 c 128,-1,29
 178 626 178 626 178 567 c 256,30,31
 178 508 178 508 179 432.5 c 128,-1,32
 180 357 180 357 198.5 289.5 c 128,-1,33
 217 222 217 222 261 175.5 c 128,-1,34
 305 129 305 129 391 128 c 0,35,36
 476 127 476 127 521.5 172 c 128,-1,37
 567 217 567 217 587.5 284 c 128,-1,38
 608 351 608 351 611 428 c 128,-1,39
 614 505 614 505 614 567 c 0,20,21
EndSplineSet
Validated: 33
EndChar

StartChar: one
Encoding: 49 49 3
Width: 547
GlyphClass: 2
Flags: W
LayerCount: 2
Fore
SplineSet
307 879 m 1,0,1
 256 841 256 841 200.5 809 c 128,-1,2
 145 777 145 777 84 757 c 1,3,-1
 75 882 l 1,4,5
 119 901 119 901 160 930 c 128,-1,6
 201 959 201 959 237.5 992 c 128,-1,7
 274 1025 274 1025 305.5 1060 c 128,-1,8
 337 1095 337 1095 361 1126 c 1,9,-1
 444 1126 l 1,10,11
 444 845 444 845 444 563 c 128,-1,12
 444 281 444 281 444 0 c 1,13,14
 410 0 410 0 376 0 c 128,-1,15
 342 0 342 0 307 0 c 1,16,17
 307 220 307 220 307 439.5 c 128,-1,18
 307 659 307 659 307 879 c 1,0,1
EndSplineSet
Validated: 1
EndChar

StartChar: two
Encoding: 50 50 4
Width: 906
GlyphClass: 2
Flags: W
LayerCount: 2
Fore
SplineSet
103 129 m 2,0,1
 103 131 103 131 121.5 149.5 c 128,-1,2
 140 168 140 168 170.5 197 c 128,-1,3
 201 226 201 226 240 263 c 128,-1,4
 279 300 279 300 320.5 339 c 128,-1,5
 362 378 362 378 403 417 c 128,-1,6
 444 456 444 456 478 488 c 128,-1,7
 512 520 512 520 535.5 543.5 c 128,-1,8
 559 567 559 567 565 575 c 0,9,10
 627 651 627 651 643 732.5 c 128,-1,11
 659 814 659 814 632 875 c 0,12,13
 604 936 604 936 556.5 962.5 c 128,-1,14
 509 989 509 989 455 988 c 0,15,16
 418 986 418 986 381.5 973 c 128,-1,17
 345 960 345 960 313 936.5 c 128,-1,18
 281 913 281 913 256 880 c 128,-1,19
 231 847 231 847 218 807 c 1,20,21
 194 818 194 818 169.5 831 c 128,-1,22
 145 844 145 844 121 855 c 1,23,24
 134 920 134 920 167 970.5 c 128,-1,25
 200 1021 200 1021 245.5 1055 c 128,-1,26
 291 1089 291 1089 345.5 1107.5 c 128,-1,27
 400 1126 400 1126 456 1127 c 0,28,29
 515 1129 515 1129 572 1110.5 c 128,-1,30
 629 1092 629 1092 673.5 1054.5 c 128,-1,31
 718 1017 718 1017 746.5 959.5 c 128,-1,32
 775 902 775 902 778 825 c 0,33,34
 780 768 780 768 763.5 711.5 c 128,-1,35
 747 655 747 655 717.5 600.5 c 128,-1,36
 688 546 688 546 649.5 495 c 128,-1,37
 611 444 611 444 569 398 c 0,38,39
 527 351 527 351 484 310.5 c 128,-1,40
 441 270 441 270 404 237 c 128,-1,41
 367 204 367 204 338 179.5 c 128,-1,42
 309 155 309 155 295 141 c 1,43,-1
 814 141 l 1,44,-1
 778 1 l 1,45,-1
 103 1 l 1,46,-1
 103 129 l 2,0,1
EndSplineSet
Validated: 33
EndChar

StartChar: three
Encoding: 51 51 5
Width: 793
GlyphClass: 2
Flags: W
LayerCount: 2
Fore
SplineSet
705 899 m 0,0,1
 715 852 715 852 710.5 804 c 128,-1,2
 706 756 706 756 687 712 c 128,-1,3
 668 668 668 668 634.5 631 c 128,-1,4
 601 594 601 594 555 570 c 1,5,6
 603 545 603 545 636 508 c 128,-1,7
 669 471 669 471 687.5 428 c 128,-1,8
 706 385 706 385 711 337.5 c 128,-1,9
 716 290 716 290 709 244 c 0,10,11
 698 181 698 181 670.5 135 c 128,-1,12
 643 89 643 89 603.5 59.5 c 128,-1,13
 564 30 564 30 516.5 16 c 128,-1,14
 469 2 469 2 418 2 c 0,15,16
 367 3 367 3 316.5 17.5 c 128,-1,17
 266 32 266 32 221 59.5 c 128,-1,18
 176 87 176 87 140 128 c 128,-1,19
 104 169 104 169 82 221 c 1,20,-1
 192 293 l 1,21,22
 208 251 208 251 235 222 c 128,-1,23
 262 193 262 193 295 175.5 c 128,-1,24
 328 158 328 158 364.5 151.5 c 128,-1,25
 401 145 401 145 435 150 c 0,26,27
 470 154 470 154 499.5 169 c 128,-1,28
 529 184 529 184 549.5 208.5 c 128,-1,29
 570 233 570 233 577.5 267 c 128,-1,30
 585 301 585 301 576 343 c 0,31,32
 567 378 567 378 544 411 c 128,-1,33
 521 444 521 444 484.5 468.5 c 128,-1,34
 448 493 448 493 398.5 504.5 c 128,-1,35
 349 516 349 516 288 507 c 1,36,-1
 287 633 l 1,37,38
 332 625 332 625 379.5 631 c 128,-1,39
 427 637 427 637 468 657 c 128,-1,40
 509 677 509 677 538.5 712 c 128,-1,41
 568 747 568 747 579 797 c 0,42,43
 587 839 587 839 579.5 872 c 128,-1,44
 572 905 572 905 553.5 929.5 c 128,-1,45
 535 954 535 954 507.5 968.5 c 128,-1,46
 480 983 480 983 449 988 c 0,47,48
 417 992 417 992 383.5 986 c 128,-1,49
 350 980 350 980 319 963 c 128,-1,50
 288 946 288 946 262.5 918 c 128,-1,51
 237 890 237 890 220 849 c 1,52,-1
 105 917 l 1,53,54
 127 968 127 968 161.5 1007.5 c 128,-1,55
 196 1047 196 1047 238.5 1074 c 128,-1,56
 281 1101 281 1101 328 1115 c 128,-1,57
 375 1129 375 1129 423 1130 c 0,58,59
 470 1130 470 1130 515 1116.5 c 128,-1,60
 560 1103 560 1103 598 1074.5 c 128,-1,61
 636 1046 636 1046 663.5 1002.5 c 128,-1,62
 691 959 691 959 705 899 c 0,0,1
EndSplineSet
Validated: 33
EndChar

StartChar: four
Encoding: 52 52 6
Width: 953
GlyphClass: 2
Flags: W
LayerCount: 2
Fore
SplineSet
831 278 m 1,0,-1
 703 278 l 1,1,-1
 703 0 l 1,2,-1
 571 0 l 1,3,-1
 571 278 l 1,4,-1
 80 278 l 1,5,-1
 99 405 l 1,6,-1
 589 1126 l 1,7,-1
 703 1126 l 1,8,-1
 703 414 l 1,9,-1
 864 414 l 1,10,-1
 831 278 l 1,0,-1
571 907 m 1,11,-1
 240 414 l 1,12,-1
 571 414 l 1,13,-1
 571 907 l 1,11,-1
EndSplineSet
Validated: 1
EndChar

StartChar: five
Encoding: 53 53 7
Width: 876
GlyphClass: 2
Flags: W
LayerCount: 2
Fore
SplineSet
238 545 m 1,0,-1
 113 548 l 1,1,-1
 208 1122 l 1,2,-1
 761 1122 l 1,3,-1
 720 981 l 1,4,-1
 306 981 l 1,5,-1
 255 693 l 1,6,7
 300 724 300 724 348 738 c 128,-1,8
 396 752 396 752 443 751 c 0,9,10
 515 750 515 750 579.5 719.5 c 128,-1,11
 644 689 644 689 692 637 c 128,-1,12
 740 585 740 585 768 515 c 128,-1,13
 796 445 796 445 795 366 c 0,14,15
 793 287 793 287 763 219.5 c 128,-1,16
 733 152 733 152 683 102.5 c 128,-1,17
 633 53 633 53 567.5 25 c 128,-1,18
 502 -3 502 -3 430 -4 c 0,19,20
 335 -5 335 -5 245.5 46 c 128,-1,21
 156 97 156 97 100 215 c 1,22,-1
 228 273 l 1,23,24
 261 210 261 210 317 179 c 128,-1,25
 373 148 373 148 433 148 c 0,26,27
 480 148 480 148 520.5 164.5 c 128,-1,28
 561 181 561 181 590.5 210 c 128,-1,29
 620 239 620 239 636.5 279 c 128,-1,30
 653 319 653 319 653 366 c 0,31,32
 651 476 651 476 594 539.5 c 128,-1,33
 537 603 537 603 433 604 c 0,34,35
 384 604 384 604 333 588.5 c 128,-1,36
 282 573 282 573 238 545 c 1,0,-1
EndSplineSet
Validated: 33
EndChar

StartChar: six
Encoding: 54 54 8
Width: 880
GlyphClass: 2
Flags: W
LayerCount: 2
Fore
SplineSet
217 366 m 0,0,1
 219 320 219 320 236.5 281.5 c 128,-1,2
 254 243 254 243 282.5 214.5 c 128,-1,3
 311 186 311 186 349 170.5 c 128,-1,4
 387 155 387 155 430 155 c 0,5,6
 526 155 526 155 584.5 215 c 128,-1,7
 643 275 643 275 647 366 c 0,8,9
 650 428 650 428 631.5 471.5 c 128,-1,10
 613 515 613 515 581.5 541.5 c 128,-1,11
 550 568 550 568 509.5 579.5 c 128,-1,12
 469 591 469 591 427 591 c 0,13,14
 327 589 327 589 270 529.5 c 128,-1,15
 213 470 213 470 217 366 c 0,0,1
223 637 m 1,16,17
 246 669 246 669 276.5 688 c 128,-1,18
 307 707 307 707 337 717 c 128,-1,19
 367 727 367 727 392 730 c 128,-1,20
 417 733 417 733 430 734 c 0,21,22
 521 736 521 736 588 705 c 128,-1,23
 655 674 655 674 698.5 621 c 128,-1,24
 742 568 742 568 762 498.5 c 128,-1,25
 782 429 782 429 779 356 c 0,26,27
 777 288 777 288 754 224.5 c 128,-1,28
 731 161 731 161 687.5 111 c 128,-1,29
 644 61 644 61 579.5 31 c 128,-1,30
 515 1 515 1 430 1 c 0,31,32
 311 1 311 1 241.5 55.5 c 128,-1,33
 172 110 172 110 136.5 194.5 c 128,-1,34
 101 279 101 279 92 382 c 128,-1,35
 83 485 83 485 86 583 c 0,36,37
 89 696 89 696 112 795 c 128,-1,38
 135 894 135 894 180.5 967 c 128,-1,39
 226 1040 226 1040 297.5 1083 c 128,-1,40
 369 1126 369 1126 469 1127 c 0,41,42
 590 1129 590 1129 658.5 1075 c 128,-1,43
 727 1021 727 1021 773 917 c 1,44,-1
 670 849 l 1,45,46
 643 921 643 921 586.5 954.5 c 128,-1,47
 530 988 530 988 477 988 c 0,48,49
 404 988 404 988 355 954.5 c 128,-1,50
 306 921 306 921 276.5 869.5 c 128,-1,51
 247 818 247 818 235 756 c 128,-1,52
 223 694 223 694 223 637 c 1,16,17
EndSplineSet
Validated: 33
EndChar

StartChar: seven
Encoding: 55 55 9
Width: 884
GlyphClass: 2
Flags: W
LayerCount: 2
Fore
SplineSet
127 1126 m 1,0,-1
 777 1126 l 1,1,-1
 763 987 l 1,2,3
 707 857 707 857 638 732.5 c 128,-1,4
 569 608 569 608 508 486 c 256,5,6
 447 364 447 364 404.5 243 c 128,-1,7
 362 122 362 122 357 0 c 1,8,-1
 209 0 l 1,9,10
 214 127 214 127 259.5 260.5 c 128,-1,11
 305 394 305 394 368 522 c 0,12,13
 430 650 430 650 497.5 766.5 c 128,-1,14
 565 883 565 883 612 978 c 1,15,-1
 93 978 l 1,16,-1
 127 1126 l 1,0,-1
EndSplineSet
Validated: 1
EndChar

StartChar: eight
Encoding: 56 56 10
Width: 818
GlyphClass: 2
Flags: W
LayerCount: 2
Fore
SplineSet
573 812 m 0,0,1
 576 844 576 844 567.5 878 c 128,-1,2
 559 912 559 912 537.5 940.5 c 128,-1,3
 516 969 516 969 480.5 987 c 128,-1,4
 445 1005 445 1005 393 1005 c 0,5,6
 342 1005 342 1005 307.5 987 c 128,-1,7
 273 969 273 969 253 941 c 128,-1,8
 233 913 233 913 225.5 878.5 c 128,-1,9
 218 844 218 844 221 812 c 0,10,11
 229 721 229 721 280 675.5 c 128,-1,12
 331 630 331 630 394 630 c 0,13,14
 426 630 426 630 456 641.5 c 128,-1,15
 486 653 486 653 511 675.5 c 128,-1,16
 536 698 536 698 552.5 732.5 c 128,-1,17
 569 767 569 767 573 812 c 0,0,1
393 1126 m 0,18,19
 460 1126 460 1126 516 1101 c 128,-1,20
 572 1076 572 1076 612.5 1032.5 c 128,-1,21
 653 989 653 989 674.5 931 c 128,-1,22
 696 873 696 873 694 807 c 0,23,24
 693 774 693 774 686.5 740 c 128,-1,25
 680 706 680 706 665 675 c 128,-1,26
 650 644 650 644 624.5 617.5 c 128,-1,27
 599 591 599 591 559 572 c 1,28,29
 652 523 652 523 691 440 c 128,-1,30
 730 357 730 357 720 272 c 0,31,32
 713 206 713 206 682 155 c 128,-1,33
 651 104 651 104 605.5 69 c 128,-1,34
 560 34 560 34 504 16.5 c 128,-1,35
 448 -1 448 -1 389 0 c 0,36,37
 331 1 331 1 275 20.5 c 128,-1,38
 219 40 219 40 174.5 75.5 c 128,-1,39
 130 111 130 111 101 163 c 128,-1,40
 72 215 72 215 68 282 c 0,41,42
 63 366 63 366 102.5 446 c 128,-1,43
 142 526 142 526 231 572 c 1,44,45
 149 617 149 617 121.5 681.5 c 128,-1,46
 94 746 94 746 95 817 c 0,47,48
 96 881 96 881 118.5 937.5 c 128,-1,49
 141 994 141 994 180.5 1036 c 128,-1,50
 220 1078 220 1078 274.5 1102 c 128,-1,51
 329 1126 329 1126 393 1126 c 0,18,19
393 125 m 0,52,53
 435 125 435 125 471.5 141.5 c 128,-1,54
 508 158 508 158 534 186.5 c 128,-1,55
 560 215 560 215 573.5 252.5 c 128,-1,56
 587 290 587 290 584 332 c 0,57,58
 581 377 581 377 564 411 c 128,-1,59
 547 445 547 445 521 468 c 128,-1,60
 495 491 495 491 463 502.5 c 128,-1,61
 431 514 431 514 397 514 c 0,62,63
 364 515 364 515 332.5 504 c 128,-1,64
 301 493 301 493 275 470 c 128,-1,65
 249 447 249 447 231.5 412.5 c 128,-1,66
 214 378 214 378 210 332 c 0,67,68
 207 301 207 301 216 265 c 128,-1,69
 225 229 225 229 247.5 198 c 128,-1,70
 270 167 270 167 306 146 c 128,-1,71
 342 125 342 125 393 125 c 0,52,53
EndSplineSet
Validated: 33
EndChar

StartChar: nine
Encoding: 57 57 11
Width: 880
GlyphClass: 2
Flags: W
LayerCount: 2
Fore
SplineSet
653 772 m 0,0,1
 650 818 650 818 632.5 855.5 c 128,-1,2
 615 893 615 893 586 920 c 128,-1,3
 557 947 557 947 519 962 c 128,-1,4
 481 977 481 977 438 977 c 0,5,6
 342 977 342 977 291.5 920 c 128,-1,7
 241 863 241 863 238 772 c 0,8,9
 235 710 235 710 251.5 666.5 c 128,-1,10
 268 623 268 623 297.5 596.5 c 128,-1,11
 327 570 327 570 365 558 c 128,-1,12
 403 546 403 546 445 547 c 0,13,14
 545 549 545 549 601.5 608.5 c 128,-1,15
 658 668 658 668 653 772 c 0,0,1
650 501 m 1,16,17
 627 469 627 469 597 450 c 128,-1,18
 567 431 567 431 537 421 c 128,-1,19
 507 411 507 411 482 408 c 128,-1,20
 457 405 457 405 444 405 c 0,21,22
 353 402 353 402 288 433 c 128,-1,23
 223 464 223 464 182 517 c 128,-1,24
 141 570 141 570 122 639.5 c 128,-1,25
 103 709 103 709 105 782 c 0,26,27
 107 850 107 850 127 912.5 c 128,-1,28
 147 975 147 975 187 1023.5 c 128,-1,29
 227 1072 227 1072 289 1101 c 128,-1,30
 351 1130 351 1130 436 1130 c 0,31,32
 555 1130 555 1130 625.5 1076.5 c 128,-1,33
 696 1023 696 1023 732 939.5 c 128,-1,34
 768 856 768 856 778 754 c 128,-1,35
 788 652 788 652 786 555 c 0,36,37
 784 442 784 442 763.5 342 c 128,-1,38
 743 242 743 242 697.5 167.5 c 128,-1,39
 652 93 652 93 578.5 49 c 128,-1,40
 505 5 505 5 399 4 c 0,41,42
 278 3 278 3 205 57 c 128,-1,43
 132 111 132 111 84 214 c 1,44,-1
 186 282 l 1,45,46
 201 246 201 246 224.5 220 c 128,-1,47
 248 194 248 194 276 177 c 128,-1,48
 304 160 304 160 333.5 152 c 128,-1,49
 363 144 363 144 390 144 c 0,50,51
 470 144 470 144 521.5 178 c 128,-1,52
 573 212 573 212 602.5 265 c 128,-1,53
 632 318 632 318 642.5 381 c 128,-1,54
 653 444 653 444 650 501 c 1,16,17
EndSplineSet
Validated: 33
EndChar

StartChar: zeronojoin
Encoding: 8204 8204 22
Width: 68
GlyphClass: 2
Flags: W
LayerCount: 2
Fore
SplineSet
63 0 m 1,0,-1
 0 0 l 1,1,-1
 0 1628 l 1,2,-1
 63 1626 l 1,3,-1
 63 0 l 1,0,-1
EndSplineSet
Validated: 1
EndChar

StartChar: zerojoin
Encoding: 8205 8205 23
Width: 63
GlyphClass: 2
Flags: W
LayerCount: 2
Fore
SplineSet
180 1495 m 1,0,-1
 150 1466 l 1,1,-1
 66 1550 l 1,2,-1
 66 0 l 1,3,-1
 0 0 l 1,4,-1
 0 1550 l 1,5,-1
 -84 1466 l 1,6,-1
 -115 1495 l 1,7,-1
 -6 1604 l 1,8,-1
 -115 1710 l 1,9,-1
 -84 1741 l 1,10,-1
 33 1632 l 1,11,-1
 150 1741 l 1,12,-1
 180 1710 l 1,13,-1
 74 1604 l 1,14,-1
 180 1495 l 1,0,-1
EndSplineSet
Validated: 1
EndChar

StartChar: lefttoright
Encoding: 8206 8206 24
Width: 63
GlyphClass: 2
Flags: W
LayerCount: 2
Fore
SplineSet
324 1604 m 1,0,-1
 186 1456 l 1,1,-1
 156 1487 l 1,2,-1
 242 1573 l 1,3,-1
 66 1573 l 1,4,-1
 66 0 l 1,5,-1
 0 0 l 1,6,-1
 0 1638 l 1,7,-1
 238 1638 l 1,8,-1
 156 1720 l 1,9,-1
 186 1751 l 1,10,-1
 324 1604 l 1,0,-1
EndSplineSet
Validated: 1
EndChar

StartChar: righttoleft
Encoding: 8207 8207 25
Width: 63
GlyphClass: 2
Flags: W
LayerCount: 2
Fore
SplineSet
-123 1751 m 1,0,-1
 -90 1720 l 1,1,-1
 -172 1638 l 1,2,-1
 63 1638 l 1,3,-1
 63 0 l 1,4,-1
 0 0 l 1,5,-1
 0 1573 l 1,6,-1
 -176 1573 l 1,7,-1
 -90 1487 l 1,8,-1
 -123 1456 l 1,9,-1
 -258 1604 l 1,10,-1
 -123 1751 l 1,0,-1
EndSplineSet
Validated: 1
EndChar

StartChar: uni0600
Encoding: 1536 1536 26
Width: 1290
GlyphClass: 2
Flags: W
LayerCount: 2
Fore
SplineSet
46 300 m 0,0,1
 46 428 46 428 94.5 540.5 c 128,-1,2
 143 653 143 653 226.5 737 c 128,-1,3
 310 821 310 821 422.5 869.5 c 128,-1,4
 535 918 535 918 663 918 c 256,5,6
 791 918 791 918 903.5 869.5 c 128,-1,7
 1016 821 1016 821 1100 737 c 128,-1,8
 1184 653 1184 653 1232.5 540.5 c 128,-1,9
 1281 428 1281 428 1281 300 c 256,10,11
 1281 172 1281 172 1232.5 59.5 c 128,-1,12
 1184 -53 1184 -53 1100 -136.5 c 128,-1,13
 1016 -220 1016 -220 903.5 -268.5 c 128,-1,14
 791 -317 791 -317 663 -317 c 0,15,16
 578 -317 578 -317 499 -295 c 128,-1,17
 420 -273 420 -273 351.5 -233 c 128,-1,18
 283 -193 283 -193 226.5 -136.5 c 128,-1,19
 170 -80 170 -80 130 -11.5 c 128,-1,20
 90 57 90 57 68 136 c 128,-1,21
 46 215 46 215 46 300 c 0,0,1
139 304 m 0,22,23
 139 195 139 195 180.5 99.5 c 128,-1,24
 222 4 222 4 293.5 -67.5 c 128,-1,25
 365 -139 365 -139 460.5 -180.5 c 128,-1,26
 556 -222 556 -222 665 -222 c 0,27,28
 736 -222 736 -222 803 -203.5 c 128,-1,29
 870 -185 870 -185 928 -150.5 c 128,-1,30
 986 -116 986 -116 1034.5 -68 c 128,-1,31
 1083 -20 1083 -20 1117 38.5 c 128,-1,32
 1151 97 1151 97 1169.5 164.5 c 128,-1,33
 1188 232 1188 232 1188 304 c 0,34,35
 1188 375 1188 375 1169.5 442 c 128,-1,36
 1151 509 1151 509 1117 567.5 c 128,-1,37
 1083 626 1083 626 1034.5 674 c 128,-1,38
 986 722 986 722 928 756.5 c 128,-1,39
 870 791 870 791 803 810 c 128,-1,40
 736 829 736 829 665 828 c 0,41,42
 593 828 593 828 525.5 809.5 c 128,-1,43
 458 791 458 791 399.5 756.5 c 128,-1,44
 341 722 341 722 293 674 c 128,-1,45
 245 626 245 626 210.5 567.5 c 128,-1,46
 176 509 176 509 157.5 442 c 128,-1,47
 139 375 139 375 139 304 c 0,22,23
EndSplineSet
Validated: 33
EndChar

StartChar: uni0601
Encoding: 1537 1537 27
Width: 1442
GlyphClass: 2
Flags: W
LayerCount: 2
Fore
SplineSet
627 1045 m 1,0,-1
 820 1045 l 1,1,-1
 820 954 l 1,2,-1
 627 954 l 1,3,-1
 627 1045 l 1,0,-1
627 -119 m 1,4,-1
 820 -119 l 1,5,-1
 820 -210 l 1,6,-1
 627 -210 l 1,7,-1
 627 -119 l 1,4,-1
1351 513 m 1,8,-1
 1351 320 l 1,9,-1
 1260 320 l 1,10,-1
 1260 513 l 1,11,-1
 1351 513 l 1,8,-1
187 513 m 1,12,-1
 187 320 l 1,13,-1
 96 320 l 1,14,-1
 96 513 l 1,15,-1
 187 513 l 1,12,-1
954 1009 m 1,16,-1
 1121 912 l 1,17,-1
 1076 833 l 1,18,-1
 909 930 l 1,19,-1
 954 1009 l 1,16,-1
372 1 m 1,20,-1
 539 -96 l 1,21,-1
 493 -174 l 1,22,-1
 326 -78 l 1,23,-1
 372 1 l 1,20,-1
1315 186 m 1,24,-1
 1218 19 l 1,25,-1
 1139 64 l 1,26,-1
 1236 231 l 1,27,-1
 1315 186 l 1,24,-1
307 768 m 1,28,-1
 210 601 l 1,29,-1
 132 647 l 1,30,-1
 228 814 l 1,31,-1
 307 768 l 1,28,-1
1219 814 m 1,32,-1
 1315 647 l 1,33,-1
 1237 601 l 1,34,-1
 1141 768 l 1,35,-1
 1219 814 l 1,32,-1
211 232 m 1,36,-1
 307 65 l 1,37,-1
 228 20 l 1,38,-1
 132 187 l 1,39,-1
 211 232 l 1,36,-1
1120 -79 m 1,40,-1
 953 -175 l 1,41,-1
 907 -97 l 1,42,-1
 1074 -1 l 1,43,-1
 1120 -79 l 1,40,-1
538 929 m 1,44,-1
 371 833 l 1,45,-1
 326 912 l 1,46,-1
 493 1008 l 1,47,-1
 538 929 l 1,44,-1
310 420 m 0,48,49
 310 334 310 334 342.5 259 c 128,-1,50
 375 184 375 184 431 128 c 128,-1,51
 487 72 487 72 562 39.5 c 128,-1,52
 637 7 637 7 723 7 c 0,53,54
 808 7 808 7 883.5 39.5 c 128,-1,55
 959 72 959 72 1015 128 c 128,-1,56
 1071 184 1071 184 1103.5 259 c 128,-1,57
 1136 334 1136 334 1136 420 c 0,58,59
 1136 505 1136 505 1103.5 580.5 c 128,-1,60
 1071 656 1071 656 1015 712 c 128,-1,61
 959 768 959 768 883.5 800.5 c 128,-1,62
 808 833 808 833 723 833 c 0,63,64
 637 833 637 833 562 800.5 c 128,-1,65
 487 768 487 768 431 712 c 128,-1,66
 375 656 375 656 342.5 580.5 c 128,-1,67
 310 505 310 505 310 420 c 0,48,49
EndSplineSet
Validated: 9
EndChar

StartChar: afii57409
Encoding: 1569 1569 59
Width: 800
GlyphClass: 2
Flags: W
AnchorPoint: "Cursive-60" 700 0 entry 0
AnchorPoint: "Cursive-59" 700 0 entry 0
AnchorPoint: "Anchor-4" -420 45 basechar 0
AnchorPoint: "Anchor-3" 350 -100 basechar 0
AnchorPoint: "Anchor-2" 0 0 basechar 0
AnchorPoint: "Anchor-1" 250 700 basechar 0
AnchorPoint: "Anchor-0" 275 775 basechar 0
LayerCount: 2
Fore
SplineSet
167 109 m 0,0,1
 174 117 174 117 189 126 c 128,-1,2
 204 135 204 135 220.5 143.5 c 128,-1,3
 237 152 237 152 252 159 c 128,-1,4
 267 166 267 166 275 170 c 1,5,6
 243 199 243 199 219 227 c 128,-1,7
 195 255 195 255 181 295 c 0,8,9
 168 335 168 335 187 369 c 0,10,11
 206 402 206 402 234 436 c 128,-1,12
 262 470 262 470 296.5 498.5 c 128,-1,13
 331 527 331 527 370 545 c 128,-1,14
 409 563 409 563 449 563 c 0,15,16
 467 563 467 563 480.5 553 c 128,-1,17
 494 543 494 543 504.5 528 c 128,-1,18
 515 513 515 513 522.5 496.5 c 128,-1,19
 530 480 530 480 535 467 c 0,20,21
 542 448 542 448 538.5 425.5 c 128,-1,22
 535 403 535 403 525 384 c 128,-1,23
 515 365 515 365 501.5 352.5 c 128,-1,24
 488 340 488 340 476 340 c 0,25,26
 468 340 468 340 464 345.5 c 128,-1,27
 460 351 460 351 457 359.5 c 128,-1,28
 454 368 454 368 452 377.5 c 128,-1,29
 450 387 450 387 447 395 c 0,30,31
 439 414 439 414 422.5 425 c 128,-1,32
 406 436 406 436 386 434 c 0,33,34
 354 432 354 432 325.5 421.5 c 128,-1,35
 297 411 297 411 271 389 c 1,36,37
 287 341 287 341 330 298 c 0,38,39
 351 277 351 277 375 265.5 c 128,-1,40
 399 254 399 254 425 250 c 0,41,42
 491 242 491 242 557 253 c 128,-1,43
 623 264 623 264 689 279 c 0,44,45
 691 277 691 277 667 216 c 128,-1,46
 643 155 643 155 640 154 c 0,47,48
 541 143 541 143 451 117.5 c 128,-1,49
 361 92 361 92 266 53 c 0,50,51
 229 38 229 38 196 23 c 128,-1,52
 163 8 163 8 134 -6 c 0,53,54
 129 -8 129 -8 124.5 -4.5 c 128,-1,55
 120 -1 120 -1 120 4 c 0,56,57
 124 31 124 31 137 58.5 c 128,-1,58
 150 86 150 86 167 109 c 0,0,1
EndSplineSet
Validated: 33
EndChar

StartChar: afii57411
Encoding: 1571 1571 61
Width: 404
GlyphClass: 2
Flags: W
AnchorPoint: "Anchor-0" 175 1845 basechar 0
AnchorPoint: "Cursive-59" 325 0 entry 0
LayerCount: 2
Fore
SplineSet
22 1444 m 0,0,1
 28 1448 28 1448 39 1453.5 c 128,-1,2
 50 1459 50 1459 62 1465.5 c 128,-1,3
 74 1472 74 1472 86 1478 c 128,-1,4
 98 1484 98 1484 106 1489 c 1,5,6
 84 1507 84 1507 64.5 1530.5 c 128,-1,7
 45 1554 45 1554 33 1583 c 0,8,9
 26 1600 26 1600 30.5 1617.5 c 128,-1,10
 35 1635 35 1635 45 1651 c 0,11,12
 59 1673 59 1673 79.5 1695.5 c 128,-1,13
 100 1718 100 1718 125 1736.5 c 128,-1,14
 150 1755 150 1755 177.5 1766.5 c 128,-1,15
 205 1778 205 1778 234 1778 c 0,16,17
 246 1778 246 1778 256.5 1770.5 c 128,-1,18
 267 1763 267 1763 275 1752.5 c 128,-1,19
 283 1742 283 1742 289 1730 c 128,-1,20
 295 1718 295 1718 298 1708 c 0,21,22
 304 1685 304 1685 298 1670 c 0,23,24
 281 1633 281 1633 271 1623.5 c 128,-1,25
 261 1614 261 1614 253 1615 c 256,26,27
 245 1616 245 1616 242 1628 c 128,-1,28
 239 1640 239 1640 234 1654 c 0,29,30
 227 1671 227 1671 215 1676.5 c 128,-1,31
 203 1682 203 1682 188 1682 c 0,32,33
 139 1682 139 1682 101 1647 c 1,34,35
 108 1629 108 1629 120 1611.5 c 128,-1,36
 132 1594 132 1594 147 1579.5 c 128,-1,37
 162 1565 162 1565 180 1556 c 128,-1,38
 198 1547 198 1547 216 1545 c 0,39,40
 267 1540 267 1540 314 1548.5 c 128,-1,41
 361 1557 361 1557 412 1568 c 0,42,43
 413 1566 413 1566 409 1551 c 128,-1,44
 405 1536 405 1536 398.5 1518.5 c 128,-1,45
 392 1501 392 1501 385.5 1487 c 128,-1,46
 379 1473 379 1473 376 1473 c 0,47,48
 334 1468 334 1468 290.5 1460 c 128,-1,49
 247 1452 247 1452 199 1438 c 0,50,51
 150 1424 150 1424 100.5 1399.5 c 128,-1,52
 51 1375 51 1375 6 1352 c 0,53,54
 -1 1348 -1 1348 -4.5 1352 c 128,-1,55
 -8 1356 -8 1356 -7 1361 c 0,56,57
 -6 1367 -6 1367 -3 1377.5 c 128,-1,58
 0 1388 0 1388 4 1400 c 128,-1,59
 8 1412 8 1412 12.5 1423.5 c 128,-1,60
 17 1435 17 1435 22 1444 c 0,0,1
203 1296 m 0,61,62
 219 1295 219 1295 217 1259 c 0,63,64
 214 1221 214 1221 216.5 1184.5 c 128,-1,65
 219 1148 219 1148 223 1111 c 0,66,67
 231 1022 231 1022 243 927.5 c 128,-1,68
 255 833 255 833 267 737 c 0,69,70
 277 642 277 642 288 547 c 128,-1,71
 299 452 299 452 306 362 c 0,72,73
 310 327 310 327 310 280 c 128,-1,74
 310 233 310 233 306.5 184.5 c 128,-1,75
 303 136 303 136 293.5 91 c 128,-1,76
 284 46 284 46 269 16 c 0,77,78
 260 -1 260 -1 249 -6 c 0,79,80
 240 -7 240 -7 241 2 c 0,81,82
 237 89 237 89 230.5 177.5 c 128,-1,83
 224 266 224 266 213 358 c 0,84,85
 202 453 202 453 191 546 c 128,-1,86
 180 639 180 639 170 732 c 0,87,88
 159 825 159 825 149 918 c 128,-1,89
 139 1011 139 1011 129 1105 c 1,90,91
 132 1128 132 1128 138.5 1152.5 c 128,-1,92
 145 1177 145 1177 157 1203 c 0,93,94
 182 1268 182 1268 191 1282 c 128,-1,95
 200 1296 200 1296 203 1296 c 0,61,62
EndSplineSet
Validated: 1048609
Substitution2: "Single Substitution lookup 35 subtable" afii57411.zz12
Substitution2: "'fina' Terminal Forms in Arabic lookup 3 subtable" afii57411.zz04
EndChar

StartChar: afii57413
Encoding: 1573 1573 63
Width: 409
GlyphClass: 2
Flags: W
LayerCount: 2
Fore
SplineSet
180 1318 m 0,0,1
 185 1318 185 1318 188 1314 c 128,-1,2
 191 1310 191 1310 192.5 1304.5 c 128,-1,3
 194 1299 194 1299 194 1292.5 c 128,-1,4
 194 1286 194 1286 194 1283 c 0,5,6
 192 1247 192 1247 195 1213 c 128,-1,7
 198 1179 198 1179 202 1144 c 0,8,9
 212 1060 212 1060 224.5 971 c 128,-1,10
 237 882 237 882 250 791 c 128,-1,11
 263 700 263 700 275.5 611 c 128,-1,12
 288 522 288 522 296 437 c 0,13,14
 300 404 300 404 301.5 359.5 c 128,-1,15
 303 315 303 315 300 269 c 128,-1,16
 297 223 297 223 289.5 181 c 128,-1,17
 282 139 282 139 268 112 c 0,18,19
 264 103 264 103 259.5 97.5 c 128,-1,20
 255 92 255 92 251 90 c 0,21,22
 241 88 241 88 243 98 c 0,23,24
 237 180 237 180 229 263.5 c 128,-1,25
 221 347 221 347 209 434 c 0,26,27
 184 612 184 612 160.5 786 c 128,-1,28
 137 960 137 960 114 1138 c 1,29,30
 116 1160 116 1160 122 1183 c 128,-1,31
 128 1206 128 1206 139 1231 c 0,32,33
 144 1244 144 1244 150.5 1259.5 c 128,-1,34
 157 1275 157 1275 162 1288.5 c 128,-1,35
 167 1302 167 1302 172 1310 c 128,-1,36
 177 1318 177 1318 180 1318 c 0,0,1
96 -295 m 0,37,38
 101 -292 101 -292 111.5 -287 c 128,-1,39
 122 -282 122 -282 133.5 -276.5 c 128,-1,40
 145 -271 145 -271 156 -265.5 c 128,-1,41
 167 -260 167 -260 175 -256 c 1,42,43
 154 -240 154 -240 135.5 -219 c 128,-1,44
 117 -198 117 -198 106 -173 c 0,45,46
 100 -157 100 -157 104 -142 c 128,-1,47
 108 -127 108 -127 117 -112 c 0,48,49
 131 -93 131 -93 150 -73 c 128,-1,50
 169 -53 169 -53 192.5 -36.5 c 128,-1,51
 216 -20 216 -20 242 -10 c 128,-1,52
 268 0 268 0 295 0 c 0,53,54
 307 0 307 0 316.5 -6.5 c 128,-1,55
 326 -13 326 -13 333.5 -22.5 c 128,-1,56
 341 -32 341 -32 347 -42.5 c 128,-1,57
 353 -53 353 -53 355 -62 c 0,58,59
 361 -82 361 -82 355 -96 c 0,60,61
 339 -128 339 -128 330 -136.5 c 128,-1,62
 321 -145 321 -145 313 -144 c 0,63,64
 306 -143 306 -143 303 -132.5 c 128,-1,65
 300 -122 300 -122 295 -110 c 0,66,67
 289 -95 289 -95 277.5 -90 c 128,-1,68
 266 -85 266 -85 252 -85 c 0,69,70
 206 -85 206 -85 170 -116 c 1,71,72
 177 -132 177 -132 188 -147.5 c 128,-1,73
 199 -163 199 -163 213 -175.5 c 128,-1,74
 227 -188 227 -188 244 -196 c 128,-1,75
 261 -204 261 -204 278 -206 c 0,76,77
 326 -211 326 -211 370.5 -203.5 c 128,-1,78
 415 -196 415 -196 463 -186 c 0,79,80
 464 -188 464 -188 460 -201 c 128,-1,81
 456 -214 456 -214 450 -229.5 c 128,-1,82
 444 -245 444 -245 438 -257.5 c 128,-1,83
 432 -270 432 -270 429 -270 c 0,84,85
 389 -274 389 -274 348 -281 c 128,-1,86
 307 -288 307 -288 262 -301 c 0,87,88
 216 -313 216 -313 169.5 -334.5 c 128,-1,89
 123 -356 123 -356 81 -377 c 0,90,91
 74 -380 74 -380 71 -376.5 c 128,-1,92
 68 -373 68 -373 68 -369 c 0,93,94
 69 -364 69 -364 72 -354.5 c 128,-1,95
 75 -345 75 -345 79 -334.5 c 128,-1,96
 83 -324 83 -324 87 -313.5 c 128,-1,97
 91 -303 91 -303 96 -295 c 0,37,38
EndSplineSet
Validated: 33
Substitution2: "Single Substitution lookup 42 subtable" afii57413.calt
Substitution2: "'fina' Terminal Forms in Arabic lookup 3 subtable" afii57413.zz04
EndChar

StartChar: afii57415
Encoding: 1575 1575 65
Width: 388
GlyphClass: 2
Flags: W
AnchorPoint: "Cursive-59" 300 0 entry 0
AnchorPoint: "Anchor-4" -240 420 basechar 0
AnchorPoint: "Anchor-3" 275 -100 basechar 0
AnchorPoint: "Anchor-2" 0 0 basechar 0
AnchorPoint: "Anchor-1" 25 1400 basechar 0
AnchorPoint: "Anchor-0" 150 1400 basechar 0
LayerCount: 2
Fore
SplineSet
149 1296 m 0,0,1
 165 1295 165 1295 164 1259 c 0,2,3
 162 1221 162 1221 165 1184.5 c 128,-1,4
 168 1148 168 1148 173 1111 c 0,5,6
 183 1022 183 1022 197 927.5 c 128,-1,7
 211 833 211 833 225 737 c 0,8,9
 238 642 238 642 251 547 c 128,-1,10
 264 452 264 452 273 362 c 0,11,12
 277 327 277 327 278.5 280 c 128,-1,13
 280 233 280 233 277.5 184.5 c 128,-1,14
 275 136 275 136 266.5 91 c 128,-1,15
 258 46 258 46 243 16 c 0,16,17
 235 -1 235 -1 224 -6 c 0,18,19
 215 -7 215 -7 216 2 c 0,20,21
 210 89 210 89 201.5 177.5 c 128,-1,22
 193 266 193 266 180 358 c 0,23,24
 167 453 167 453 154 546 c 128,-1,25
 141 639 141 639 129 732 c 0,26,27
 116 825 116 825 103.5 918 c 128,-1,28
 91 1011 91 1011 79 1105 c 1,29,30
 82 1128 82 1128 88 1152.5 c 128,-1,31
 94 1177 94 1177 105 1203 c 0,32,33
 129 1268 129 1268 137.5 1282 c 128,-1,34
 146 1296 146 1296 149 1296 c 0,0,1
EndSplineSet
Validated: 33
Substitution2: "'fina' Terminal Forms in Arabic lookup 3 subtable" afii57415.zz04
EndChar

StartChar: afii57421
Encoding: 1581 1581 71
Width: 1279
GlyphClass: 2
Flags: W
AnchorPoint: "Anchor-4" -300 -180 basechar 0
AnchorPoint: "Anchor-3" 775 50 basechar 0
AnchorPoint: "Anchor-2" 0 0 basechar 0
AnchorPoint: "Anchor-1" 495 930 basechar 0
AnchorPoint: "Anchor-0" 550 1000 basechar 0
LayerCount: 2
Fore
SplineSet
281 704 m 0,0,1
 322 705 322 705 366 699 c 128,-1,2
 410 693 410 693 457.5 684 c 128,-1,3
 505 675 505 675 555.5 667 c 128,-1,4
 606 659 606 659 658 656 c 0,5,6
 749 651 749 651 838 654.5 c 128,-1,7
 927 658 927 658 1017 667 c 0,8,9
 1027 668 1027 668 1025 662 c 0,10,11
 1019 643 1019 643 1011.5 621.5 c 128,-1,12
 1004 600 1004 600 995.5 578.5 c 128,-1,13
 987 557 987 557 978.5 538 c 128,-1,14
 970 519 970 519 962 506 c 1,15,16
 888 500 888 500 810.5 484.5 c 128,-1,17
 733 469 733 469 657.5 443 c 128,-1,18
 582 417 582 417 511 380 c 128,-1,19
 440 343 440 343 380 294 c 0,20,21
 261 195 261 195 200.5 67 c 128,-1,22
 140 -61 140 -61 140 -221 c 0,23,24
 140 -308 140 -308 172 -386 c 128,-1,25
 204 -464 204 -464 257 -526.5 c 128,-1,26
 310 -589 310 -589 379 -634.5 c 128,-1,27
 448 -680 448 -680 521 -701 c 0,28,29
 618 -731 618 -731 718.5 -740 c 128,-1,30
 819 -749 819 -749 910 -746 c 0,31,32
 956 -745 956 -745 1007 -740.5 c 128,-1,33
 1058 -736 1058 -736 1110.5 -731 c 128,-1,34
 1163 -726 1163 -726 1214.5 -721.5 c 128,-1,35
 1266 -717 1266 -717 1313 -717 c 0,36,37
 1325 -717 1325 -717 1325.5 -724 c 128,-1,38
 1326 -731 1326 -731 1320 -739.5 c 128,-1,39
 1314 -748 1314 -748 1304 -755 c 128,-1,40
 1294 -762 1294 -762 1285 -763 c 0,41,42
 1226 -772 1226 -772 1170.5 -792.5 c 128,-1,43
 1115 -813 1115 -813 1059.5 -835 c 128,-1,44
 1004 -857 1004 -857 948 -875 c 128,-1,45
 892 -893 892 -893 831 -897 c 0,46,47
 687 -908 687 -908 550.5 -879 c 128,-1,48
 414 -850 414 -850 308 -774 c 0,49,50
 201 -699 201 -699 136 -574 c 128,-1,51
 71 -449 71 -449 71 -268 c 0,52,53
 71 -150 71 -150 99.5 -32.5 c 128,-1,54
 128 85 128 85 180 189 c 0,55,56
 233 293 233 293 309 378 c 128,-1,57
 385 463 385 463 481 516 c 0,58,59
 483 519 483 519 478.5 520.5 c 128,-1,60
 474 522 474 522 466 523 c 0,61,62
 422 529 422 529 372.5 534.5 c 128,-1,63
 323 540 323 540 274 537 c 0,64,65
 225 533 225 533 179 516.5 c 128,-1,66
 133 500 133 500 96 462 c 0,67,68
 93 458 93 458 84 457 c 128,-1,69
 75 456 75 456 77 471 c 0,70,71
 84 518 84 518 99.5 559.5 c 128,-1,72
 115 601 115 601 140 632.5 c 128,-1,73
 165 664 165 664 200 683 c 128,-1,74
 235 702 235 702 281 704 c 0,0,1
EndSplineSet
Validated: 33
Substitution2: "'fina' Terminal Forms in Arabic lookup 3 subtable" afii57421.zz04
Substitution2: "'medi' Medial Forms in Arabic lookup 2 subtable" afii57421.zz03
Substitution2: "'init' Initial Forms in Arabic lookup 1 subtable" afii57421.init
EndChar

StartChar: afii57423
Encoding: 1583 1583 73
Width: 755
GlyphClass: 2
Flags: W
AnchorPoint: "Cursive-61" 0 0 exit 0
AnchorPoint: "Cursive-60" 675 0 entry 0
AnchorPoint: "Cursive-59" 675 0 entry 0
AnchorPoint: "Anchor-4" -325 -50 basechar 0
AnchorPoint: "Anchor-3" 350 -125 basechar 0
AnchorPoint: "Anchor-2" 0 0 basechar 0
AnchorPoint: "Anchor-1" 200 950 basechar 0
AnchorPoint: "Anchor-0" 325 1050 basechar 0
LayerCount: 2
Fore
SplineSet
272 597 m 1,0,-1
 277 732 l 2,1,2
 279 748 279 748 290.5 750 c 128,-1,3
 302 752 302 752 317 747 c 0,4,5
 385 726 385 726 445 677.5 c 128,-1,6
 505 629 505 629 552 566 c 0,7,8
 598 503 598 503 627.5 432.5 c 128,-1,9
 657 362 657 362 663 299 c 0,10,11
 665 275 665 275 663 244 c 128,-1,12
 661 213 661 213 654.5 182.5 c 128,-1,13
 648 152 648 152 638.5 128 c 128,-1,14
 629 104 629 104 616 94 c 0,15,16
 582 67 582 67 531 48 c 128,-1,17
 480 29 480 29 423 17 c 0,18,19
 365 5 365 5 306 -0.5 c 128,-1,20
 247 -6 247 -6 196 -6 c 0,21,22
 184 -6 184 -6 166.5 -4.5 c 128,-1,23
 149 -3 149 -3 132 2.5 c 128,-1,24
 115 8 115 8 102.5 18 c 128,-1,25
 90 28 90 28 89 44 c 0,26,27
 89 52 89 52 89.5 75 c 128,-1,28
 90 98 90 98 92 123 c 128,-1,29
 94 148 94 148 97 167.5 c 128,-1,30
 100 187 100 187 105 187 c 0,31,32
 108 187 108 187 110.5 183 c 128,-1,33
 113 179 113 179 116 176 c 0,34,35
 133 164 133 164 157 158 c 128,-1,36
 181 152 181 152 207.5 150.5 c 128,-1,37
 234 149 234 149 260.5 150.5 c 128,-1,38
 287 152 287 152 307 153 c 0,39,40
 342 155 342 155 380 160.5 c 128,-1,41
 418 166 418 166 453.5 174 c 128,-1,42
 489 182 489 182 521 192.5 c 128,-1,43
 553 203 553 203 576 215 c 0,44,45
 586 220 586 220 595 227.5 c 128,-1,46
 604 235 604 235 606 241 c 0,47,48
 597 294 597 294 564.5 352 c 128,-1,49
 532 410 532 410 486 461 c 0,50,51
 439 511 439 511 383.5 548.5 c 128,-1,52
 328 586 328 586 272 597 c 1,0,-1
EndSplineSet
Validated: 1
Substitution2: "Single Substitution lookup 47 subtable" afii57423.zz28
Substitution2: "'fina' Terminal Forms in Arabic lookup 3 subtable" afii57423.zz04
EndChar

StartChar: afii57425
Encoding: 1585 1585 75
Width: 790
GlyphClass: 2
Flags: W
AnchorPoint: "Cursive-60" 800 0 entry 0
AnchorPoint: "Cursive-59" 0 0 exit 0
AnchorPoint: "Cursive-59" 800 0 entry 0
AnchorPoint: "Anchor-4" 0 0 basechar 0
AnchorPoint: "Anchor-3" 325 -650 basechar 0
AnchorPoint: "Anchor-2" 0 0 basechar 0
AnchorPoint: "Anchor-1" 275 800 basechar 0
AnchorPoint: "Anchor-0" 375 850 basechar 0
LayerCount: 2
Fore
SplineSet
475 430 m 2,0,1
 480 445 480 445 495 430 c 0,2,3
 535 392 535 392 568.5 340 c 128,-1,4
 602 288 602 288 626 231 c 0,5,6
 649 173 649 173 659.5 112.5 c 128,-1,7
 670 52 670 52 664 -3 c 0,8,9
 656 -72 656 -72 626.5 -150.5 c 128,-1,10
 597 -229 597 -229 551 -301 c 0,11,12
 506 -373 506 -373 447 -427 c 128,-1,13
 388 -481 388 -481 322 -503 c 0,14,15
 268 -521 268 -521 209.5 -527 c 128,-1,16
 151 -533 151 -533 93 -530 c 128,-1,17
 35 -527 35 -527 -20 -516 c 128,-1,18
 -75 -505 -75 -505 -121 -489 c 0,19,20
 -133 -485 -133 -485 -136.5 -477.5 c 128,-1,21
 -140 -470 -140 -470 -137.5 -463 c 128,-1,22
 -135 -456 -135 -456 -127.5 -451 c 128,-1,23
 -120 -446 -120 -446 -110 -447 c 0,24,25
 -25 -452 -25 -452 33 -447 c 128,-1,26
 91 -442 91 -442 137.5 -428 c 128,-1,27
 184 -414 184 -414 225.5 -391 c 128,-1,28
 267 -368 267 -368 318 -338 c 0,29,30
 366 -310 366 -310 409 -273 c 128,-1,31
 452 -236 452 -236 490 -191 c 0,32,33
 568 -99 568 -99 609 4 c 1,34,35
 605 34 605 34 585.5 73 c 128,-1,36
 566 112 566 112 540 154 c 0,37,38
 515 194 515 194 488 229.5 c 128,-1,39
 461 265 461 265 442 286 c 1,40,-1
 475 430 l 2,0,1
EndSplineSet
Validated: 33
Substitution2: "'fina' Terminal Forms in Arabic lookup 3 subtable" afii57425.zz04
EndChar

StartChar: afii57427
Encoding: 1587 1587 77
Width: 1788
GlyphClass: 2
Flags: W
AnchorPoint: "Cursive-59" 1625 0 entry 0
AnchorPoint: "Anchor-4" -135 -360 basechar 0
AnchorPoint: "Anchor-3" 1350 -125 basechar 0
AnchorPoint: "Anchor-2" 0 0 basechar 0
AnchorPoint: "Anchor-1" 1080 750 basechar 0
AnchorPoint: "Anchor-0" 1200 1000 basechar 0
LayerCount: 2
Fore
SplineSet
972 251 m 1,0,1
 996 233 996 233 1032 225.5 c 128,-1,2
 1068 218 1068 218 1105.5 219 c 128,-1,3
 1143 220 1143 220 1178.5 228.5 c 128,-1,4
 1214 237 1214 237 1238 252 c 0,5,6
 1286 280 1286 280 1313 325 c 128,-1,7
 1340 370 1340 370 1368 436 c 0,8,9
 1372 446 1372 446 1380 452.5 c 128,-1,10
 1388 459 1388 459 1395.5 460 c 128,-1,11
 1403 461 1403 461 1407.5 456 c 128,-1,12
 1412 451 1412 451 1409 438 c 0,13,14
 1403 412 1403 412 1396.5 390 c 128,-1,15
 1390 368 1390 368 1379 337 c 1,16,17
 1383 318 1383 318 1409.5 296 c 128,-1,18
 1436 274 1436 274 1473.5 258.5 c 128,-1,19
 1511 243 1511 243 1554 238 c 128,-1,20
 1597 233 1597 233 1635 248 c 1,21,22
 1635 286 1635 286 1630 318.5 c 128,-1,23
 1625 351 1625 351 1613 391 c 1,24,-1
 1672 509 l 2,25,26
 1679 522 1679 522 1684 511 c 0,27,28
 1708 432 1708 432 1709 372 c 128,-1,29
 1710 312 1710 312 1692 245 c 0,30,31
 1686 221 1686 221 1676.5 196.5 c 128,-1,32
 1667 172 1667 172 1654 151 c 128,-1,33
 1641 130 1641 130 1623.5 115 c 128,-1,34
 1606 100 1606 100 1584 94 c 0,35,36
 1547 85 1547 85 1510 89 c 128,-1,37
 1473 93 1473 93 1438.5 108.5 c 128,-1,38
 1404 124 1404 124 1373.5 150.5 c 128,-1,39
 1343 177 1343 177 1320 212 c 1,40,41
 1259 133 1259 133 1186 98.5 c 128,-1,42
 1113 64 1113 64 1020 70 c 1,43,44
 1027 21 1027 21 1027.5 -28.5 c 128,-1,45
 1028 -78 1028 -78 1020.5 -126.5 c 128,-1,46
 1013 -175 1013 -175 996.5 -220.5 c 128,-1,47
 980 -266 980 -266 952 -305 c 0,48,49
 910 -362 910 -362 853 -404.5 c 128,-1,50
 796 -447 796 -447 731 -475 c 0,51,52
 665 -503 665 -503 595 -516.5 c 128,-1,53
 525 -530 525 -530 456 -530 c 0,54,55
 376 -530 376 -530 306 -505 c 128,-1,56
 236 -480 236 -480 184.5 -433 c 128,-1,57
 133 -386 133 -386 103 -318.5 c 128,-1,58
 73 -251 73 -251 73 -165 c 0,59,60
 73 -71 73 -71 104.5 16.5 c 128,-1,61
 136 104 136 104 187 182 c 0,62,63
 193 191 193 191 197.5 190.5 c 128,-1,64
 202 190 202 190 205 185 c 128,-1,65
 208 180 208 180 209 173.5 c 128,-1,66
 210 167 210 167 209 165 c 0,67,68
 190 114 190 114 174.5 67 c 128,-1,69
 159 20 159 20 151.5 -24 c 128,-1,70
 144 -68 144 -68 146.5 -110.5 c 128,-1,71
 149 -153 149 -153 167 -196 c 0,72,73
 199 -274 199 -274 270.5 -323 c 128,-1,74
 342 -372 342 -372 466 -372 c 0,75,76
 536 -372 536 -372 608 -359 c 128,-1,77
 680 -346 680 -346 747 -318 c 256,78,79
 814 -290 814 -290 870.5 -246 c 128,-1,80
 927 -202 927 -202 965 -140 c 1,81,82
 965 -86 965 -86 954.5 -37.5 c 128,-1,83
 944 11 944 11 926 56 c 0,84,85
 908 102 908 102 884 146 c 128,-1,86
 860 190 860 190 833 236 c 1,87,88
 844 272 844 272 850 305.5 c 128,-1,89
 856 339 856 339 868 374 c 0,90,91
 871 382 871 382 876 381.5 c 128,-1,92
 881 381 881 381 887 374 c 0,93,94
 911 340 911 340 931 310 c 128,-1,95
 951 280 951 280 972 251 c 1,0,1
EndSplineSet
Validated: 33
Substitution2: "'fina' Terminal Forms in Arabic lookup 3 subtable" afii57427.zz04
Substitution2: "'medi' Medial Forms in Arabic lookup 2 subtable" afii57427.zz03
Substitution2: "'init' Initial Forms in Arabic lookup 1 subtable" afii57427.init
EndChar

StartChar: afii57429
Encoding: 1589 1589 79
Width: 2010
GlyphClass: 2
Flags: W
AnchorPoint: "Cursive-59" 1875 0 entry 0
AnchorPoint: "Anchor-4" 0 0 basechar 0
AnchorPoint: "Anchor-3" 1400 -125 basechar 0
AnchorPoint: "Anchor-2" 0 0 basechar 0
AnchorPoint: "Anchor-1" 1200 885 basechar 0
AnchorPoint: "Anchor-0" 1300 1000 basechar 0
LayerCount: 2
Fore
SplineSet
1519 504 m 0,0,1
 1467 484 1467 484 1419 453 c 128,-1,2
 1371 422 1371 422 1326.5 384 c 128,-1,3
 1282 346 1282 346 1242 303.5 c 128,-1,4
 1202 261 1202 261 1166 218 c 1,5,6
 1243 208 1243 208 1340 213.5 c 128,-1,7
 1437 219 1437 219 1532 240 c 256,8,9
 1627 261 1627 261 1710 297 c 128,-1,10
 1793 333 1793 333 1843 384 c 1,11,12
 1823 425 1823 425 1785 454 c 128,-1,13
 1747 483 1747 483 1701.5 499.5 c 128,-1,14
 1656 516 1656 516 1608 517.5 c 128,-1,15
 1560 519 1560 519 1519 504 c 0,0,1
1082 229 m 1,16,17
 1178 352 1178 352 1286.5 457.5 c 128,-1,18
 1395 563 1395 563 1533 638 c 0,19,20
 1582 665 1582 665 1650 663.5 c 128,-1,21
 1718 662 1718 662 1780 638.5 c 128,-1,22
 1842 615 1842 615 1886.5 572 c 128,-1,23
 1931 529 1931 529 1934 473 c 1,24,25
 1929 366 1929 366 1880.5 291.5 c 128,-1,26
 1832 217 1832 217 1755.5 169 c 128,-1,27
 1679 121 1679 121 1582 95 c 128,-1,28
 1485 69 1485 69 1383 60 c 0,29,30
 1292 52 1292 52 1200.5 54.5 c 128,-1,31
 1109 57 1109 57 1022 80 c 1,32,33
 1029 28 1029 28 1029 -25.5 c 128,-1,34
 1029 -79 1029 -79 1021 -129 c 128,-1,35
 1013 -179 1013 -179 996.5 -223 c 128,-1,36
 980 -267 980 -267 956 -300 c 0,37,38
 915 -356 915 -356 857.5 -399 c 128,-1,39
 800 -442 800 -442 734 -471 c 256,40,41
 668 -500 668 -500 597 -514.5 c 128,-1,42
 526 -529 526 -529 457 -529 c 0,43,44
 372 -529 372 -529 301.5 -503.5 c 128,-1,45
 231 -478 231 -478 180.5 -430 c 128,-1,46
 130 -382 130 -382 102 -313.5 c 128,-1,47
 74 -245 74 -245 74 -160 c 0,48,49
 74 -66 74 -66 104.5 24 c 128,-1,50
 135 114 135 114 189 192 c 0,51,52
 195 201 195 201 200 201 c 128,-1,53
 205 201 205 201 207.5 196 c 128,-1,54
 210 191 210 191 211 184.5 c 128,-1,55
 212 178 212 178 211 175 c 0,56,57
 190 129 190 129 174.5 82.5 c 128,-1,58
 159 36 159 36 152 -10.5 c 128,-1,59
 145 -57 145 -57 148.5 -102.5 c 128,-1,60
 152 -148 152 -148 169 -194 c 0,61,62
 184 -232 184 -232 209.5 -265 c 128,-1,63
 235 -298 235 -298 271.5 -321.5 c 128,-1,64
 308 -345 308 -345 357 -358 c 128,-1,65
 406 -371 406 -371 469 -370 c 0,66,67
 538 -369 538 -369 610 -354.5 c 128,-1,68
 682 -340 682 -340 749 -312 c 0,69,70
 815 -283 815 -283 870.5 -240 c 128,-1,71
 926 -197 926 -197 964 -138 c 1,72,73
 964 -84 964 -84 954 -33.5 c 128,-1,74
 944 17 944 17 927 66 c 0,75,76
 910 114 910 114 888.5 160 c 128,-1,77
 867 206 867 206 843 250 c 1,78,79
 852 287 852 287 862 320 c 128,-1,80
 872 353 872 353 887 392 c 0,81,82
 890 401 890 401 895.5 400 c 128,-1,83
 901 399 901 399 907 392 c 0,84,85
 931 359 931 359 948.5 331 c 128,-1,86
 966 303 966 303 987 270 c 0,87,88
 993 262 993 262 1005.5 255 c 128,-1,89
 1018 248 1018 248 1032.5 242 c 128,-1,90
 1047 236 1047 236 1060.5 232.5 c 128,-1,91
 1074 229 1074 229 1082 229 c 1,16,17
EndSplineSet
Validated: 33
Substitution2: "'fina' Terminal Forms in Arabic lookup 3 subtable" afii57429.zz04
Substitution2: "'medi' Medial Forms in Arabic lookup 2 subtable" afii57429.zz03
Substitution2: "'init' Initial Forms in Arabic lookup 1 subtable" afii57429.init
EndChar

StartChar: afii57431
Encoding: 1591 1591 81
Width: 1427
GlyphClass: 2
Flags: W
AnchorPoint: "Cursive-59" 1325 0 entry 0
AnchorPoint: "Anchor-4" 0 0 basechar 0
AnchorPoint: "Anchor-3" 800 -150 basechar 0
AnchorPoint: "Anchor-2" 0 0 basechar 0
AnchorPoint: "Anchor-1" 810 1080 basechar 0
AnchorPoint: "Anchor-0" 1025 950 basechar 0
LayerCount: 2
Fore
SplineSet
458 147 m 1,0,-1
 624 309 l 1,1,2
 635 327 635 327 640.5 360.5 c 128,-1,3
 646 394 646 394 646.5 437.5 c 128,-1,4
 647 481 647 481 643 532.5 c 128,-1,5
 639 584 639 584 633 640 c 0,6,7
 627 695 627 695 619 752.5 c 128,-1,8
 611 810 611 810 603 864.5 c 128,-1,9
 595 919 595 919 587 969 c 128,-1,10
 579 1019 579 1019 573 1059 c 0,11,12
 567 1096 567 1096 557 1135 c 128,-1,13
 547 1174 547 1174 528 1205 c 0,14,15
 520 1216 520 1216 519 1219.5 c 128,-1,16
 518 1223 518 1223 524 1236 c 2,17,-1
 584 1352 l 2,18,19
 588 1360 588 1360 592 1362 c 128,-1,20
 596 1364 596 1364 600 1352 c 0,21,22
 614 1304 614 1304 640 1258 c 128,-1,23
 666 1212 666 1212 712 1184 c 1,24,25
 698 1160 698 1160 687 1143 c 128,-1,26
 676 1126 676 1126 669 1111.5 c 128,-1,27
 662 1097 662 1097 659 1083.5 c 128,-1,28
 656 1070 656 1070 658 1054 c 0,29,30
 670 988 670 988 683 910.5 c 128,-1,31
 696 833 696 833 703 745 c 256,32,33
 710 657 710 657 707.5 559 c 128,-1,34
 705 461 705 461 686 355 c 1,35,36
 715 380 715 380 747.5 408 c 128,-1,37
 780 436 780 436 814 463 c 128,-1,38
 848 490 848 490 883.5 513.5 c 128,-1,39
 919 537 919 537 955 554 c 0,40,41
 1008 580 1008 580 1073 580 c 128,-1,42
 1138 580 1138 580 1196.5 561 c 128,-1,43
 1255 542 1255 542 1299 506 c 128,-1,44
 1343 470 1343 470 1353 424 c 1,45,46
 1347 343 1347 343 1310 278 c 128,-1,47
 1273 213 1273 213 1213 171 c 0,48,49
 1135 117 1135 117 1031 81.5 c 128,-1,50
 927 46 927 46 815 26 c 256,51,52
 703 6 703 6 592 0.5 c 128,-1,53
 481 -5 481 -5 389 1 c 0,54,55
 353 3 353 3 312.5 18 c 128,-1,56
 272 33 272 33 231.5 54 c 128,-1,57
 191 75 191 75 154 99.5 c 128,-1,58
 117 124 117 124 89 144 c 0,59,60
 80 150 80 150 80.5 155.5 c 128,-1,61
 81 161 81 161 86 164.5 c 128,-1,62
 91 168 91 168 98.5 170 c 128,-1,63
 106 172 106 172 111 171 c 0,64,65
 199 157 199 157 284 151 c 128,-1,66
 369 145 369 145 458 147 c 1,0,-1
1255 330 m 1,67,68
 1227 362 1227 362 1188.5 385 c 128,-1,69
 1150 408 1150 408 1107.5 421 c 128,-1,70
 1065 434 1065 434 1021 436 c 128,-1,71
 977 438 977 438 938 428 c 0,72,73
 888 415 888 415 840.5 387 c 128,-1,74
 793 359 793 359 745.5 321 c 128,-1,75
 698 283 698 283 649.5 237.5 c 128,-1,76
 601 192 601 192 549 144 c 1,77,78
 630 148 630 148 726 158.5 c 128,-1,79
 822 169 822 169 918 190 c 256,80,81
 1014 211 1014 211 1102 245 c 128,-1,82
 1190 279 1190 279 1255 330 c 1,67,68
EndSplineSet
Validated: 33
Substitution2: "'fina' Terminal Forms in Arabic lookup 3 subtable" afii57431.zz04
Substitution2: "'medi' Medial Forms in Arabic lookup 2 subtable" afii57431.zz03
Substitution2: "'init' Initial Forms in Arabic lookup 1 subtable" afii57431.init
EndChar

StartChar: afii57433
Encoding: 1593 1593 83
Width: 1226
GlyphClass: 2
Flags: W
AnchorPoint: "Cursive-61" 1225 0 entry 0
AnchorPoint: "Cursive-59" 1225 0 entry 0
AnchorPoint: "Anchor-4" -450 180 basechar 0
AnchorPoint: "Anchor-3" 725 50 basechar 0
AnchorPoint: "Anchor-2" 0 0 basechar 0
AnchorPoint: "Anchor-1" 345 1200 basechar 0
AnchorPoint: "Anchor-0" 400 1175 basechar 0
LayerCount: 2
Fore
SplineSet
336 371 m 1,0,1
 281 396 281 396 231.5 424.5 c 128,-1,2
 182 453 182 453 145 491 c 0,3,4
 109 528 109 528 89.5 576 c 128,-1,5
 70 624 70 624 75 687 c 0,6,7
 79 748 79 748 99 797.5 c 128,-1,8
 119 847 119 847 150.5 886 c 128,-1,9
 182 925 182 925 222 952.5 c 128,-1,10
 262 980 262 980 306 997 c 0,11,12
 349 1013 349 1013 395 1014.5 c 128,-1,13
 441 1016 441 1016 486.5 1006 c 128,-1,14
 532 996 532 996 575 976 c 128,-1,15
 618 956 618 956 654 929 c 0,16,17
 659 924 659 924 660.5 918 c 128,-1,18
 662 912 662 912 659.5 907 c 128,-1,19
 657 902 657 902 651.5 899 c 128,-1,20
 646 896 646 896 637 898 c 0,21,22
 614 904 614 904 584 910.5 c 128,-1,23
 554 917 554 917 526 919 c 0,24,25
 509 920 509 920 485 915.5 c 128,-1,26
 461 911 461 911 432.5 902.5 c 128,-1,27
 404 894 404 894 372 882 c 128,-1,28
 340 870 340 870 309 856 c 0,29,30
 278 841 278 841 249.5 824.5 c 128,-1,31
 221 808 221 808 198.5 790.5 c 128,-1,32
 176 773 176 773 160.5 756 c 128,-1,33
 145 739 145 739 140 723 c 1,34,35
 149 690 149 690 182.5 653.5 c 128,-1,36
 216 617 216 617 262 587 c 0,37,38
 307 556 307 556 358 536 c 128,-1,39
 409 516 409 516 452 516 c 0,40,41
 490 516 490 516 539 537.5 c 128,-1,42
 588 559 588 559 642 590 c 256,43,44
 696 621 696 621 749.5 654.5 c 128,-1,45
 803 688 803 688 851 712 c 0,46,47
 864 718 864 718 872 716.5 c 128,-1,48
 880 715 880 715 880 705 c 2,49,-1
 851 583 l 1,50,51
 795 551 795 551 733.5 515.5 c 128,-1,52
 672 480 672 480 610.5 440.5 c 128,-1,53
 549 401 549 401 489 357 c 128,-1,54
 429 313 429 313 376 264 c 0,55,56
 322 214 322 214 277.5 158 c 128,-1,57
 233 102 233 102 202 39 c 128,-1,58
 171 -24 171 -24 155 -95 c 128,-1,59
 139 -166 139 -166 142 -245 c 0,60,61
 146 -329 146 -329 177 -403.5 c 128,-1,62
 208 -478 208 -478 258.5 -537.5 c 128,-1,63
 309 -597 309 -597 375.5 -640 c 128,-1,64
 442 -683 442 -683 517 -704 c 0,65,66
 614 -732 614 -732 715 -741.5 c 128,-1,67
 816 -751 816 -751 907 -748 c 0,68,69
 955 -747 955 -747 998 -744.5 c 128,-1,70
 1041 -742 1041 -742 1083 -739 c 128,-1,71
 1125 -736 1125 -736 1168 -734 c 128,-1,72
 1211 -732 1211 -732 1258 -732 c 0,73,74
 1270 -732 1270 -732 1270.5 -739 c 128,-1,75
 1271 -746 1271 -746 1265.5 -754 c 128,-1,76
 1260 -762 1260 -762 1250 -769.5 c 128,-1,77
 1240 -777 1240 -777 1231 -778 c 0,78,79
 1172 -787 1172 -787 1124.5 -805 c 128,-1,80
 1077 -823 1077 -823 1031.5 -841.5 c 128,-1,81
 986 -860 986 -860 937.5 -875.5 c 128,-1,82
 889 -891 889 -891 829 -895 c 0,83,84
 665 -906 665 -906 528 -875.5 c 128,-1,85
 391 -845 391 -845 289 -770 c 0,86,87
 189 -695 189 -695 132.5 -576 c 128,-1,88
 76 -457 76 -457 76 -288 c 0,89,90
 76 -198 76 -198 93 -108 c 128,-1,91
 110 -18 110 -18 143 69 c 0,92,93
 175 154 175 154 224 231 c 128,-1,94
 273 308 273 308 336 371 c 1,0,1
EndSplineSet
Validated: 33
Substitution2: "'fina' Terminal Forms in Arabic lookup 3 subtable" afii57433.zz04
Substitution2: "'medi' Medial Forms in Arabic lookup 2 subtable" afii57433.zz03
Substitution2: "'init' Initial Forms in Arabic lookup 1 subtable" afii57433.init
EndChar

StartChar: afii57440
Encoding: 1600 1600 90
Width: 650
GlyphClass: 2
Flags: W
AnchorPoint: "Anchor-4" 0 0 basechar 0
AnchorPoint: "Anchor-3" 325 -250 basechar 0
AnchorPoint: "Anchor-2" 0 0 basechar 0
AnchorPoint: "Anchor-1" 250 600 basechar 0
AnchorPoint: "Anchor-0" 300 500 basechar 0
LayerCount: 2
Fore
SplineSet
2 157 m 2,0,-1
 650 157 l 2,1,2
 677 157 677 157 692.5 152.5 c 128,-1,3
 708 148 708 148 709 124 c 2,4,-1
 709 35 l 2,5,6
 709 18 709 18 696.5 9 c 128,-1,7
 684 0 684 0 650 0 c 2,8,-1
 -2 0 l 2,9,10
 -27 0 -27 0 -43 5.5 c 128,-1,11
 -59 11 -59 11 -59 37 c 2,12,-1
 -59 132 l 2,13,14
 -59 150 -59 150 -44.5 153.5 c 128,-1,15
 -30 157 -30 157 2 157 c 2,0,-1
EndSplineSet
Validated: 1
Substitution2: "'medi' Medial Forms in Arabic lookup 2 subtable" afii57440
EndChar

StartChar: afii57441
Encoding: 1601 1601 91
Width: 1708
GlyphClass: 2
Flags: W
AnchorPoint: "Cursive-59" 1575 0 entry 0
AnchorPoint: "Anchor-4" -225 90 basechar 0
AnchorPoint: "Anchor-3" 1050 -175 basechar 0
AnchorPoint: "Anchor-2" 0 0 basechar 0
AnchorPoint: "Anchor-1" 1170 1320 basechar 0
AnchorPoint: "Anchor-0" 1225 1375 basechar 0
LayerCount: 2
Fore
SplineSet
1243 1249 m 2,0,1
 1249 1258 1249 1258 1258 1251 c 2,2,-1
 1377 1152 l 2,3,4
 1380 1149 1380 1149 1381.5 1145.5 c 128,-1,5
 1383 1142 1383 1142 1379 1137 c 2,6,-1
 1299 1039 l 2,7,8
 1291 1031 1291 1031 1282 1037 c 2,9,-1
 1163 1135 l 2,10,11
 1160 1137 1160 1137 1159 1141 c 128,-1,12
 1158 1145 1158 1145 1163 1151 c 2,13,-1
 1243 1249 l 2,0,1
1373 419 m 0,14,15
 1343 416 1343 416 1312 424.5 c 128,-1,16
 1281 433 1281 433 1256 451 c 128,-1,17
 1231 469 1231 469 1215.5 495 c 128,-1,18
 1200 521 1200 521 1200 554 c 0,19,20
 1200 597 1200 597 1213 649 c 128,-1,21
 1226 701 1226 701 1249 746 c 0,22,23
 1271 791 1271 791 1301.5 822 c 128,-1,24
 1332 853 1332 853 1366 855 c 0,25,26
 1409 858 1409 858 1452.5 827 c 128,-1,27
 1496 796 1496 796 1532 749 c 0,28,29
 1567 701 1567 701 1590.5 645 c 128,-1,30
 1614 589 1614 589 1617 541 c 0,31,32
 1620 498 1620 498 1613 448.5 c 128,-1,33
 1606 399 1606 399 1593 354.5 c 128,-1,34
 1580 310 1580 310 1562 276.5 c 128,-1,35
 1544 243 1544 243 1526 232 c 0,36,37
 1435 177 1435 177 1327.5 134 c 128,-1,38
 1220 91 1220 91 1110 62 c 0,39,40
 1000 32 1000 32 894.5 16 c 128,-1,41
 789 0 789 0 702 -2 c 0,42,43
 597 -5 597 -5 489 4.5 c 128,-1,44
 381 14 381 14 292 51 c 0,45,46
 202 87 202 87 142 159 c 128,-1,47
 82 231 82 231 73 352 c 0,48,49
 67 439 67 439 95.5 522.5 c 128,-1,50
 124 606 124 606 185 669 c 0,51,52
 193 677 193 677 203.5 666.5 c 128,-1,53
 214 656 214 656 208 646 c 0,54,55
 168 584 168 584 148.5 517.5 c 128,-1,56
 129 451 129 451 151 375 c 0,57,58
 164 331 164 331 188.5 298.5 c 128,-1,59
 213 266 213 266 246.5 241.5 c 128,-1,60
 280 217 280 217 321 201 c 128,-1,61
 362 185 362 185 406 175 c 0,62,63
 450 164 450 164 496.5 159.5 c 128,-1,64
 543 155 543 155 588.5 153.5 c 128,-1,65
 634 152 634 152 676.5 153 c 128,-1,66
 719 154 719 154 756 157 c 0,67,68
 856 163 856 163 961 179 c 128,-1,69
 1066 195 1066 195 1169 223 c 0,70,71
 1271 251 1271 251 1366.5 290.5 c 128,-1,72
 1462 330 1462 330 1543 382 c 1,73,74
 1545 391 1545 391 1543.5 409 c 128,-1,75
 1542 427 1542 427 1537.5 446 c 128,-1,76
 1533 465 1533 465 1526.5 482 c 128,-1,77
 1520 499 1520 499 1512 505 c 1,78,79
 1485 474 1485 474 1450 449 c 128,-1,80
 1415 424 1415 424 1373 419 c 0,14,15
1453 633 m 0,81,82
 1435 651 1435 651 1408.5 672.5 c 128,-1,83
 1382 694 1382 694 1355 696 c 0,84,85
 1340 697 1340 697 1326.5 690 c 128,-1,86
 1313 683 1313 683 1303.5 671.5 c 128,-1,87
 1294 660 1294 660 1289 645.5 c 128,-1,88
 1284 631 1284 631 1285 618 c 0,89,90
 1291 599 1291 599 1312 588.5 c 128,-1,91
 1333 578 1333 578 1359 575.5 c 128,-1,92
 1385 573 1385 573 1411.5 578.5 c 128,-1,93
 1438 584 1438 584 1455 598 c 0,94,95
 1464 605 1464 605 1463 614.5 c 128,-1,96
 1462 624 1462 624 1453 633 c 0,81,82
EndSplineSet
Validated: 33
Substitution2: "'fina' Terminal Forms in Arabic lookup 3 subtable" afii57441.zz04
Substitution2: "'medi' Medial Forms in Arabic lookup 2 subtable" afii57441.zz03
Substitution2: "'init' Initial Forms in Arabic lookup 1 subtable" afii57441.init
EndChar

StartChar: afii57442
Encoding: 1602 1602 92
Width: 1124
GlyphClass: 2
Flags: W
AnchorPoint: "Anchor-4" -255 -135 basechar 0
AnchorPoint: "Anchor-3" 600 -400 basechar 0
AnchorPoint: "Anchor-2" 0 0 basechar 0
AnchorPoint: "Anchor-1" 630 1230 basechar 0
AnchorPoint: "Anchor-0" 700 1175 basechar 0
LayerCount: 2
Fore
SplineSet
878 846 m 1,0,1
 867 839 867 839 858 844 c 2,2,-1
 738 934 l 1,3,-1
 665 828 l 2,4,5
 662 823 662 823 657 822.5 c 128,-1,6
 652 822 652 822 649 824 c 2,7,-1
 522 916 l 2,8,9
 513 922 513 922 518 928 c 2,10,-1
 595 1034 l 2,11,12
 602 1043 602 1043 610 1038 c 2,13,-1
 730 950 l 1,14,-1
 807 1054 l 2,15,16
 811 1059 811 1059 812.5 1059.5 c 128,-1,17
 814 1060 814 1060 819 1056 c 2,18,-1
 946 966 l 2,19,20
 953 961 953 961 946 951 c 2,21,-1
 878 846 l 1,0,1
794 497 m 0,22,23
 780 497 780 497 765.5 489 c 128,-1,24
 751 481 751 481 738.5 468.5 c 128,-1,25
 726 456 726 456 718 441.5 c 128,-1,26
 710 427 710 427 710 414 c 1,27,28
 725 391 725 391 749 380 c 128,-1,29
 773 369 773 369 798 370 c 128,-1,30
 823 371 823 371 846 384 c 128,-1,31
 869 397 869 397 882 421 c 1,32,33
 880 433 880 433 870.5 446.5 c 128,-1,34
 861 460 861 460 848 471 c 128,-1,35
 835 482 835 482 820.5 489.5 c 128,-1,36
 806 497 806 497 794 497 c 0,22,23
937 325 m 1,37,38
 913 279 913 279 872.5 247 c 128,-1,39
 832 215 832 215 781 215 c 0,40,41
 727 215 727 215 686.5 249 c 128,-1,42
 646 283 646 283 637 337 c 0,43,44
 631 375 631 375 642 429.5 c 128,-1,45
 653 484 653 484 677 538 c 256,46,47
 701 592 701 592 739 624.5 c 128,-1,48
 777 657 777 657 822 657 c 0,49,50
 852 657 852 657 880 635 c 128,-1,51
 908 613 908 613 931.5 582 c 128,-1,52
 955 551 955 551 972 516.5 c 128,-1,53
 989 482 989 482 999 457 c 0,54,55
 1028 378 1028 378 1036.5 300 c 128,-1,56
 1045 222 1045 222 1030 137 c 0,57,58
 1012 31 1012 31 956 -48.5 c 128,-1,59
 900 -128 900 -128 821 -181 c 256,60,61
 742 -234 742 -234 646.5 -260.5 c 128,-1,62
 551 -287 551 -287 453 -287 c 0,63,64
 370 -287 370 -287 299.5 -261.5 c 128,-1,65
 229 -236 229 -236 178 -188 c 128,-1,66
 127 -140 127 -140 98.5 -71.5 c 128,-1,67
 70 -3 70 -3 70 83 c 0,68,69
 70 177 70 177 100.5 261.5 c 128,-1,70
 131 346 131 346 185 425 c 0,71,72
 191 434 191 434 196 433.5 c 128,-1,73
 201 433 201 433 203.5 428.5 c 128,-1,74
 206 424 206 424 207 417.5 c 128,-1,75
 208 411 208 411 207 408 c 0,76,77
 165 312 165 312 148.5 223 c 128,-1,78
 132 134 132 134 164 48 c 0,79,80
 194 -29 194 -29 267 -78.5 c 128,-1,81
 340 -128 340 -128 463 -128 c 0,82,83
 542 -128 542 -128 616 -113 c 128,-1,84
 690 -98 690 -98 755 -67 c 256,85,86
 820 -36 820 -36 875 11 c 128,-1,87
 930 58 930 58 970 122 c 1,88,89
 976 141 976 141 976.5 169.5 c 128,-1,90
 977 198 977 198 973 227.5 c 128,-1,91
 969 257 969 257 960 283.5 c 128,-1,92
 951 310 951 310 937 325 c 1,37,38
EndSplineSet
Validated: 33
Substitution2: "'fina' Terminal Forms in Arabic lookup 3 subtable" afii57442.zz04
Substitution2: "'medi' Medial Forms in Arabic lookup 2 subtable" afii57442.zz03
Substitution2: "'init' Initial Forms in Arabic lookup 1 subtable" afii57442.init
EndChar

StartChar: afii57443
Encoding: 1603 1603 93
Width: 1166
GlyphClass: 2
Flags: W
AnchorPoint: "Cursive-59" 1050 0 entry 0
AnchorPoint: "Anchor-4" -240 -360 basechar 0
AnchorPoint: "Anchor-3" 600 -175 basechar 0
AnchorPoint: "Anchor-2" 0 0 basechar 0
AnchorPoint: "Anchor-1" 495 1155 basechar 0
AnchorPoint: "Anchor-0" 525 1050 basechar 0
LayerCount: 2
Fore
SplineSet
134 173 m 0,0,1
 156 162 156 162 198 157.5 c 128,-1,2
 240 153 240 153 296 152 c 128,-1,3
 352 151 352 151 419.5 154 c 128,-1,4
 487 157 487 157 558 161 c 0,5,6
 814 173 814 173 1018 214 c 1,7,-1
 888 1076 l 2,8,9
 880 1121 880 1121 865.5 1166.5 c 128,-1,10
 851 1212 851 1212 821 1248 c 1,11,12
 842 1283 842 1283 863 1317.5 c 128,-1,13
 884 1352 884 1352 904 1386 c 0,14,15
 908 1395 908 1395 916 1397 c 128,-1,16
 924 1399 924 1399 926 1387 c 0,17,18
 927 1337 927 1337 958 1295 c 128,-1,19
 989 1253 989 1253 1025 1220 c 1,20,21
 1019 1205 1019 1205 1009.5 1189.5 c 128,-1,22
 1000 1174 1000 1174 990 1158 c 0,23,24
 979 1140 979 1140 973 1124 c 128,-1,25
 967 1108 967 1108 970 1096 c 2,26,-1
 1081 397 l 2,27,28
 1087 348 1087 348 1084 266 c 0,29,30
 1082 231 1082 231 1075 195 c 128,-1,31
 1068 159 1068 159 1053 128.5 c 128,-1,32
 1038 98 1038 98 1013.5 76 c 128,-1,33
 989 54 989 54 950 48 c 0,34,35
 768 19 768 19 556 5 c 0,36,37
 458 -2 458 -2 358.5 -3.5 c 128,-1,38
 259 -5 259 -5 156 -1 c 0,39,40
 116 1 116 1 96.5 30 c 128,-1,41
 77 59 77 59 72 98 c 256,42,43
 67 137 67 137 73 178 c 128,-1,44
 79 219 79 219 90 245 c 0,45,46
 94 254 94 254 102 257 c 128,-1,47
 110 260 110 260 109 251 c 0,48,49
 108 243 108 243 108 231 c 128,-1,50
 108 219 108 219 110.5 208 c 128,-1,51
 113 197 113 197 118.5 187.5 c 128,-1,52
 124 178 124 178 134 173 c 0,0,1
703 652 m 1,53,54
 709 623 709 623 704.5 588.5 c 128,-1,55
 700 554 700 554 687 520 c 0,56,57
 674 487 674 487 654 457 c 128,-1,58
 634 427 634 427 608 408 c 0,59,60
 586 391 586 391 553.5 385.5 c 128,-1,61
 521 380 521 380 485 383 c 0,62,63
 450 385 450 385 414.5 394 c 128,-1,64
 379 403 379 403 352 415 c 0,65,66
 349 419 349 419 352 430.5 c 128,-1,67
 355 442 355 442 378 440 c 0,68,69
 425 434 425 434 469.5 443.5 c 128,-1,70
 514 453 514 453 550 469 c 0,71,72
 585 484 585 484 607.5 501.5 c 128,-1,73
 630 519 630 519 632 529 c 0,74,75
 635 539 635 539 625.5 543 c 128,-1,76
 616 547 616 547 602 548 c 128,-1,77
 588 549 588 549 574.5 548.5 c 128,-1,78
 561 548 561 548 556 548 c 0,79,80
 533 551 533 551 510.5 556.5 c 128,-1,81
 488 562 488 562 470 592 c 1,82,83
 464 617 464 617 465.5 646 c 128,-1,84
 467 675 467 675 475 705 c 0,85,86
 483 734 483 734 495.5 761 c 128,-1,87
 508 788 508 788 521 808 c 0,88,89
 553 858 553 858 596 888 c 0,90,91
 617 903 617 903 639.5 911 c 128,-1,92
 662 919 662 919 684 919 c 0,93,94
 692 919 692 919 689 912 c 2,95,-1
 647 788 l 1,96,97
 634 790 634 790 614.5 784 c 128,-1,98
 595 778 595 778 576.5 767.5 c 128,-1,99
 558 757 558 757 545 743.5 c 128,-1,100
 532 730 532 730 532 717 c 0,101,102
 532 701 532 701 547.5 694 c 128,-1,103
 563 687 563 687 583.5 685 c 128,-1,104
 604 683 604 683 626.5 683 c 128,-1,105
 649 683 649 683 662 681 c 0,106,107
 693 678 693 678 703 652 c 1,53,54
EndSplineSet
Validated: 33
Substitution2: "'fina' Terminal Forms in Arabic lookup 3 subtable" afii57443.zz04
Substitution2: "'medi' Medial Forms in Arabic lookup 2 subtable" afii57443.zz03
Substitution2: "'init' Initial Forms in Arabic lookup 1 subtable" afii57443.init
EndChar

StartChar: afii57444
Encoding: 1604 1604 94
Width: 1001
GlyphClass: 2
Flags: W
AnchorPoint: "Anchor-4" -240 60 basechar 0
AnchorPoint: "Anchor-3" 550 -400 basechar 0
AnchorPoint: "Anchor-2" 0 0 basechar 0
AnchorPoint: "Anchor-1" 450 1230 basechar 0
AnchorPoint: "Anchor-0" 650 1425 basechar 0
LayerCount: 2
Fore
SplineSet
845 76 m 1,0,-1
 709 1056 l 2,1,2
 703 1098 703 1098 695.5 1138 c 128,-1,3
 688 1178 688 1178 665 1216 c 0,4,5
 656 1228 656 1228 656 1230.5 c 128,-1,6
 656 1233 656 1233 662 1246 c 0,7,8
 676 1275 676 1275 691 1304 c 128,-1,9
 706 1333 706 1333 721 1362 c 0,10,11
 726 1370 726 1370 730 1372 c 128,-1,12
 734 1374 734 1374 737 1362 c 0,13,14
 749 1313 749 1313 778 1262 c 128,-1,15
 807 1211 807 1211 852 1184 c 1,16,17
 838 1160 838 1160 827 1143 c 128,-1,18
 816 1126 816 1126 809 1111.5 c 128,-1,19
 802 1097 802 1097 799.5 1083.5 c 128,-1,20
 797 1070 797 1070 799 1054 c 2,21,-1
 896 312 l 2,22,23
 917 127 917 127 916 124 c 0,24,25
 911 34 911 34 870.5 -40 c 128,-1,26
 830 -114 830 -114 766 -166 c 0,27,28
 702 -219 702 -219 619.5 -247.5 c 128,-1,29
 537 -276 537 -276 447 -276 c 0,30,31
 361 -276 361 -276 291 -250 c 128,-1,32
 221 -224 221 -224 171 -176 c 256,33,34
 121 -128 121 -128 93 -59.5 c 128,-1,35
 65 9 65 9 65 95 c 0,36,37
 65 186 65 186 96.5 272.5 c 128,-1,38
 128 359 128 359 179 437 c 0,39,40
 184 446 184 446 189 445.5 c 128,-1,41
 194 445 194 445 197 440.5 c 128,-1,42
 200 436 200 436 201.5 429.5 c 128,-1,43
 203 423 203 423 202 420 c 0,44,45
 156 330 156 330 142.5 233.5 c 128,-1,46
 129 137 129 137 159 60 c 0,47,48
 188 -17 188 -17 261.5 -66.5 c 128,-1,49
 335 -116 335 -116 459 -116 c 0,50,51
 515 -116 515 -116 570.5 -104 c 128,-1,52
 626 -92 626 -92 676 -68 c 256,53,54
 726 -44 726 -44 769.5 -8 c 128,-1,55
 813 28 813 28 845 76 c 1,0,-1
EndSplineSet
Validated: 33
Substitution2: "'fina' Terminal Forms in Arabic lookup 3 subtable" afii57444.zz04
Substitution2: "'medi' Medial Forms in Arabic lookup 2 subtable" afii57444.zz03
Substitution2: "'init' Initial Forms in Arabic lookup 1 subtable" afii57444.init
EndChar

StartChar: afii57445
Encoding: 1605 1605 95
Width: 793
GlyphClass: 2
Flags: W
AnchorPoint: "Cursive-59" 675 0 entry 0
AnchorPoint: "Anchor-4" -390 75 basechar 0
AnchorPoint: "Anchor-3" 575 40 basechar 0
AnchorPoint: "Anchor-2" 0 0 basechar 0
AnchorPoint: "Anchor-1" 240 810 basechar 0
AnchorPoint: "Anchor-0" 375 975 basechar 0
LayerCount: 2
Fore
SplineSet
443 649 m 0,0,1
 473 646 473 646 514 618.5 c 128,-1,2
 555 591 555 591 594 554 c 0,3,4
 634 517 634 517 666.5 478.5 c 128,-1,5
 699 440 699 440 714 414 c 1,6,7
 706 372 706 372 696 336.5 c 128,-1,8
 686 301 686 301 674 259 c 1,9,10
 654 259 654 259 621 257 c 128,-1,11
 588 255 588 255 547 252 c 128,-1,12
 506 249 506 249 461 243 c 128,-1,13
 416 237 416 237 371 228 c 0,14,15
 327 219 327 219 287 206 c 128,-1,16
 247 193 247 193 216.5 174.5 c 128,-1,17
 186 156 186 156 168.5 132.5 c 128,-1,18
 151 109 151 109 152 78 c 0,19,20
 168 -47 168 -47 180.5 -149 c 128,-1,21
 193 -251 193 -251 202 -325 c 0,22,23
 210 -400 210 -400 215.5 -445.5 c 128,-1,24
 221 -491 221 -491 223 -505 c 0,25,26
 228 -547 228 -547 231.5 -597.5 c 128,-1,27
 235 -648 235 -648 235 -700 c 128,-1,28
 235 -752 235 -752 231 -800.5 c 128,-1,29
 227 -849 227 -849 217 -886 c 0,30,31
 213 -899 213 -899 203.5 -898.5 c 128,-1,32
 194 -898 194 -898 194 -886 c 0,33,34
 182 -804 182 -804 173 -723 c 128,-1,35
 164 -642 164 -642 153 -560 c 0,36,37
 144 -490 144 -490 132 -415 c 128,-1,38
 120 -340 120 -340 109 -264 c 256,39,40
 98 -188 98 -188 90 -112.5 c 128,-1,41
 82 -37 82 -37 81 34 c 0,42,43
 83 122 83 122 123 192.5 c 128,-1,44
 163 263 163 263 226 311 c 256,45,46
 289 359 289 359 368 383 c 128,-1,47
 447 407 447 407 527 402 c 1,48,49
 520 413 520 413 504.5 426.5 c 128,-1,50
 489 440 489 440 471 453 c 128,-1,51
 453 466 453 466 435.5 475.5 c 128,-1,52
 418 485 418 485 408 487 c 0,53,54
 384 491 384 491 360 482.5 c 128,-1,55
 336 474 336 474 315 457.5 c 128,-1,56
 294 441 294 441 279 420 c 128,-1,57
 264 399 264 399 258 378 c 0,58,59
 254 367 254 367 244.5 368.5 c 128,-1,60
 235 370 235 370 236 382 c 0,61,62
 239 433 239 433 252 476.5 c 128,-1,63
 265 520 265 520 292 562 c 0,64,65
 318 604 318 604 356 628 c 128,-1,66
 394 652 394 652 443 649 c 0,0,1
EndSplineSet
Validated: 33
Substitution2: "Single Substitution lookup 46 subtable" afii57415.calt
Substitution2: "'fina' Terminal Forms in Arabic lookup 3 subtable" afii57445.zz04
Substitution2: "'medi' Medial Forms in Arabic lookup 2 subtable" afii57445.zz03
Substitution2: "'init' Initial Forms in Arabic lookup 1 subtable" afii57445.init
EndChar

StartChar: afii57446
Encoding: 1606 1606 96
Width: 1089
GlyphClass: 2
Flags: W
AnchorPoint: "Anchor-4" -285 -210 basechar 0
AnchorPoint: "Anchor-3" 575 -425 basechar 0
AnchorPoint: "Anchor-2" 0 0 basechar 0
AnchorPoint: "Anchor-1" 405 1065 basechar 0
AnchorPoint: "Anchor-0" 500 1075 basechar 0
LayerCount: 2
Fore
SplineSet
543 983 m 2,0,-1
 667 880 l 2,1,2
 672 876 672 876 671 872 c 128,-1,3
 670 868 670 868 668 865 c 2,4,-1
 585 761 l 2,5,6
 579 752 579 752 568 760 c 2,7,-1
 444 862 l 2,8,9
 437 868 437 868 444 878 c 2,10,-1
 528 981 l 2,11,12
 534 989 534 989 543 983 c 2,0,-1
998 108 m 0,13,14
 983 13 983 13 928.5 -58.5 c 128,-1,15
 874 -130 874 -130 798 -177 c 0,16,17
 721 -225 721 -225 631 -248.5 c 128,-1,18
 541 -272 541 -272 454 -272 c 0,19,20
 374 -272 374 -272 304.5 -247 c 128,-1,21
 235 -222 235 -222 183 -175 c 256,22,23
 131 -128 131 -128 101 -60 c 128,-1,24
 71 8 71 8 71 94 c 0,25,26
 71 187 71 187 102.5 274.5 c 128,-1,27
 134 362 134 362 185 440 c 0,28,29
 191 449 191 449 196 448.5 c 128,-1,30
 201 448 201 448 204 443.5 c 128,-1,31
 207 439 207 439 208.5 432.5 c 128,-1,32
 210 426 210 426 208 423 c 0,33,34
 160 327 160 327 147.5 234 c 128,-1,35
 135 141 135 141 166 63 c 0,36,37
 196 -14 196 -14 269 -63.5 c 128,-1,38
 342 -113 342 -113 466 -113 c 0,39,40
 530 -113 530 -113 596.5 -100 c 128,-1,41
 663 -87 663 -87 725 -62 c 0,42,43
 788 -36 788 -36 843.5 2 c 128,-1,44
 899 40 899 40 941 90 c 1,45,46
 942 148 942 148 927.5 213.5 c 128,-1,47
 913 279 913 279 888 343 c 0,48,49
 863 408 863 408 832 468 c 128,-1,50
 801 528 801 528 770 576 c 1,51,52
 781 611 781 611 791 645.5 c 128,-1,53
 801 680 801 680 814 715 c 0,54,55
 818 727 818 727 823.5 722.5 c 128,-1,56
 829 718 829 718 833 713 c 0,57,58
 879 648 879 648 915 575.5 c 128,-1,59
 951 503 951 503 974 426 c 0,60,61
 996 349 996 349 1003 268.5 c 128,-1,62
 1010 188 1010 188 998 108 c 0,13,14
EndSplineSet
Validated: 33
Substitution2: "'fina' Terminal Forms in Arabic lookup 3 subtable" afii57446.zz04
Substitution2: "'medi' Medial Forms in Arabic lookup 2 subtable" afii57446.zz03
Substitution2: "'init' Initial Forms in Arabic lookup 1 subtable" afii57446.init
EndChar

StartChar: afii57470
Encoding: 1607 1607 97
Width: 537
GlyphClass: 2
Flags: W
AnchorPoint: "Cursive-59" 450 0 entry 0
AnchorPoint: "Anchor-4" 0 0 basechar 0
AnchorPoint: "Anchor-3" 250 -150 basechar 0
AnchorPoint: "Anchor-2" 0 0 basechar 0
AnchorPoint: "Anchor-1" 195 705 basechar 0
AnchorPoint: "Anchor-0" 225 850 basechar 0
LayerCount: 2
Fore
SplineSet
190 175 m 0,0,1
 208 165 208 165 233.5 162 c 128,-1,2
 259 159 259 159 286.5 164 c 128,-1,3
 314 169 314 169 341 183 c 128,-1,4
 368 197 368 197 390 221 c 1,5,6
 390 246 390 246 365.5 272.5 c 128,-1,7
 341 299 341 299 308 321 c 0,8,9
 274 343 274 343 238.5 357 c 128,-1,10
 203 371 203 371 181 371 c 1,11,12
 170 352 170 352 160 324.5 c 128,-1,13
 150 297 150 297 148 268.5 c 128,-1,14
 146 240 146 240 154.5 214.5 c 128,-1,15
 163 189 163 189 190 175 c 0,0,1
128 408 m 1,16,-1
 173 534 l 1,17,18
 241 522 241 522 293.5 500.5 c 128,-1,19
 346 479 346 479 382 448 c 256,20,21
 418 417 418 417 436.5 375.5 c 128,-1,22
 455 334 455 334 454 282 c 0,23,24
 453 250 453 250 444.5 212.5 c 128,-1,25
 436 175 436 175 419 130 c 0,26,27
 408 103 408 103 388 80 c 128,-1,28
 368 57 368 57 343 40.5 c 128,-1,29
 318 24 318 24 289 14.5 c 128,-1,30
 260 5 260 5 231 5 c 0,31,32
 181 5 181 5 148.5 23.5 c 128,-1,33
 116 42 116 42 97.5 72.5 c 128,-1,34
 79 103 79 103 75 143 c 128,-1,35
 71 183 71 183 79 226 c 0,36,37
 88 274 88 274 102 316.5 c 128,-1,38
 116 359 116 359 137 405 c 1,39,40
 132 405 132 405 128 408 c 1,16,-1
EndSplineSet
Validated: 33
Substitution2: "Single Substitution lookup 47 subtable" afii57470.zz28
Substitution2: "'fina' Terminal Forms in Arabic lookup 3 subtable" afii57470.zz04
Substitution2: "'medi' Medial Forms in Arabic lookup 2 subtable" afii57470.zz03
Substitution2: "'init' Initial Forms in Arabic lookup 1 subtable" afii57470.init
EndChar

StartChar: afii57448
Encoding: 1608 1608 98
Width: 790
GlyphClass: 2
Flags: W
AnchorPoint: "Cursive-60" 800 0 entry 0
AnchorPoint: "Cursive-59" 0 0 exit 0
AnchorPoint: "Cursive-59" 800 0 entry 0
AnchorPoint: "Anchor-4" 0 0 basechar 0
AnchorPoint: "Anchor-3" 325 -650 basechar 0
AnchorPoint: "Anchor-2" 0 0 basechar 0
AnchorPoint: "Anchor-1" 250 900 basechar 0
AnchorPoint: "Anchor-0" 400 850 basechar 0
LayerCount: 2
Fore
SplineSet
479 358 m 0,0,1
 464 357 464 357 452 346.5 c 128,-1,2
 440 336 440 336 431.5 322.5 c 128,-1,3
 423 309 423 309 418.5 295 c 128,-1,4
 414 281 414 281 414 274 c 0,5,6
 427 253 427 253 450 245.5 c 128,-1,7
 473 238 473 238 496 238 c 0,8,9
 522 240 522 240 543.5 250.5 c 128,-1,10
 565 261 565 261 573 271 c 1,11,12
 573 284 573 284 563.5 299.5 c 128,-1,13
 554 315 554 315 539.5 328 c 128,-1,14
 525 341 525 341 508.5 349.5 c 128,-1,15
 492 358 492 358 479 358 c 0,0,1
609 182 m 1,16,17
 595 140 595 140 558 111 c 128,-1,18
 521 82 521 82 467 82 c 0,19,20
 440 82 440 82 415.5 96 c 128,-1,21
 391 110 391 110 373 132.5 c 128,-1,22
 355 155 355 155 345.5 184 c 128,-1,23
 336 213 336 213 339 243 c 0,24,25
 341 264 341 264 348 292 c 128,-1,26
 355 320 355 320 366 349 c 128,-1,27
 377 378 377 378 391.5 407 c 128,-1,28
 406 436 406 436 424 458 c 128,-1,29
 442 480 442 480 462 494 c 128,-1,30
 482 508 482 508 504 508 c 0,31,32
 543 508 543 508 577 477 c 128,-1,33
 611 446 611 446 636 398.5 c 128,-1,34
 661 351 661 351 675 293.5 c 128,-1,35
 689 236 689 236 688 182 c 0,36,37
 687 110 687 110 669.5 32.5 c 128,-1,38
 652 -45 652 -45 623 -120 c 256,39,40
 594 -195 594 -195 556.5 -261.5 c 128,-1,41
 519 -328 519 -328 477 -374 c 0,42,43
 415 -442 415 -442 345.5 -478.5 c 128,-1,44
 276 -515 276 -515 200 -526 c 128,-1,45
 124 -537 124 -537 41.5 -526 c 128,-1,46
 -41 -515 -41 -515 -129 -488 c 0,47,48
 -137 -485 -137 -485 -139.5 -478 c 128,-1,49
 -142 -471 -142 -471 -138.5 -463.5 c 128,-1,50
 -135 -456 -135 -456 -126.5 -450.5 c 128,-1,51
 -118 -445 -118 -445 -104 -446 c 0,52,53
 -20 -453 -20 -453 48.5 -443 c 128,-1,54
 117 -433 117 -433 176.5 -408.5 c 128,-1,55
 236 -384 236 -384 291 -346 c 128,-1,56
 346 -308 346 -308 404 -257 c 0,57,58
 443 -223 443 -223 479.5 -178 c 128,-1,59
 516 -133 516 -133 545 -85 c 0,60,61
 575 -36 575 -36 595 13 c 128,-1,62
 615 62 615 62 623 104 c 0,63,64
 624 113 624 113 623 124.5 c 128,-1,65
 622 136 622 136 620 147 c 128,-1,66
 618 158 618 158 615 167.5 c 128,-1,67
 612 177 612 177 609 182 c 1,16,17
EndSplineSet
Validated: 33
Substitution2: "'fina' Terminal Forms in Arabic lookup 3 subtable" afii57448.zz04
EndChar

StartChar: afii57449
Encoding: 1609 1609 99
Width: 1363
GlyphClass: 2
Flags: W
AnchorPoint: "Anchor-4" 0 0 basechar 0
AnchorPoint: "Anchor-3" 725 -425 basechar 0
AnchorPoint: "Anchor-2" 0 0 basechar 0
AnchorPoint: "Anchor-1" 475 600 basechar 0
AnchorPoint: "Anchor-0" 575 825 basechar 0
LayerCount: 2
Fore
SplineSet
1171 -28 m 0,0,1
 1103 -85 1103 -85 1027 -133 c 128,-1,2
 951 -181 951 -181 869 -216 c 256,3,4
 787 -251 787 -251 699 -270.5 c 128,-1,5
 611 -290 611 -290 520 -290 c 0,6,7
 428 -290 428 -290 346.5 -264.5 c 128,-1,8
 265 -239 265 -239 204.5 -189.5 c 128,-1,9
 144 -140 144 -140 107.5 -66.5 c 128,-1,10
 71 7 71 7 70 103 c 0,11,12
 67 209 67 209 100.5 309 c 128,-1,13
 134 409 134 409 197 496 c 0,14,15
 203 504 203 504 207 503.5 c 128,-1,16
 211 503 211 503 214 498.5 c 128,-1,17
 217 494 217 494 218 488.5 c 128,-1,18
 219 483 219 483 219 480 c 0,19,20
 199 439 199 439 180.5 394 c 128,-1,21
 162 349 162 349 150 302 c 128,-1,22
 138 255 138 255 136.5 206 c 128,-1,23
 135 157 135 157 152 108 c 0,24,25
 170 50 170 50 202.5 7 c 128,-1,26
 235 -36 235 -36 278 -65.5 c 128,-1,27
 321 -95 321 -95 372.5 -111 c 128,-1,28
 424 -127 424 -127 481 -132 c 0,29,30
 563 -139 563 -139 651 -127.5 c 128,-1,31
 739 -116 739 -116 826 -90 c 0,32,33
 913 -63 913 -63 993.5 -24 c 128,-1,34
 1074 15 1074 15 1141 63 c 0,35,36
 1158 75 1158 75 1159 83.5 c 128,-1,37
 1160 92 1160 92 1152.5 98.5 c 128,-1,38
 1145 105 1145 105 1132.5 109 c 128,-1,39
 1120 113 1120 113 1111 116 c 0,40,41
 1082 124 1082 124 1048 129.5 c 128,-1,42
 1014 135 1014 135 978.5 140 c 128,-1,43
 943 145 943 145 908.5 150.5 c 128,-1,44
 874 156 874 156 845 163 c 0,45,46
 812 171 812 171 782.5 187 c 128,-1,47
 753 203 753 203 731 225.5 c 128,-1,48
 709 248 709 248 695.5 277 c 128,-1,49
 682 306 682 306 681 339 c 0,50,51
 679 386 679 386 690.5 433 c 128,-1,52
 702 480 702 480 724 524.5 c 128,-1,53
 746 569 746 569 775.5 610.5 c 128,-1,54
 805 652 805 652 839 689 c 0,55,56
 874 728 874 728 914 762 c 128,-1,57
 954 796 954 796 995.5 819 c 128,-1,58
 1037 842 1037 842 1079 851.5 c 128,-1,59
 1121 861 1121 861 1160 852 c 0,60,61
 1202 841 1202 841 1227 812 c 128,-1,62
 1252 783 1252 783 1261.5 746 c 128,-1,63
 1271 709 1271 709 1266 669 c 128,-1,64
 1261 629 1261 629 1244 597 c 0,65,66
 1241 593 1241 593 1235.5 594 c 128,-1,67
 1230 595 1230 595 1228 601 c 0,68,69
 1222 616 1222 616 1209 635 c 128,-1,70
 1196 654 1196 654 1178 671 c 128,-1,71
 1160 688 1160 688 1138.5 699.5 c 128,-1,72
 1117 711 1117 711 1093 711 c 0,73,74
 1045 711 1045 711 993.5 686 c 128,-1,75
 942 661 942 661 895 622 c 128,-1,76
 848 583 848 583 811.5 536 c 128,-1,77
 775 489 775 489 757 445 c 0,78,79
 739 410 739 410 748.5 386.5 c 128,-1,80
 758 363 758 363 785 344 c 0,81,82
 812 324 812 324 848.5 311 c 128,-1,83
 885 298 885 298 924 289 c 128,-1,84
 963 280 963 280 1002 274.5 c 128,-1,85
 1041 269 1041 269 1074 264 c 0,86,87
 1098 260 1098 260 1125.5 254 c 128,-1,88
 1153 248 1153 248 1177 237.5 c 128,-1,89
 1201 227 1201 227 1218 210.5 c 128,-1,90
 1235 194 1235 194 1238 169 c 0,91,92
 1241 147 1241 147 1237 118.5 c 128,-1,93
 1233 90 1233 90 1223.5 62 c 128,-1,94
 1214 34 1214 34 1200.5 9.5 c 128,-1,95
 1187 -15 1187 -15 1171 -28 c 0,0,1
EndSplineSet
Validated: 33
Substitution2: "'fina' Terminal Forms in Arabic lookup 3 subtable" afii57450.zz04
Substitution2: "'medi' Medial Forms in Arabic lookup 2 subtable" bsm
Substitution2: "'init' Initial Forms in Arabic lookup 1 subtable" bsi
EndChar

StartChar: afii57451
Encoding: 1611 1611 101
Width: 0
GlyphClass: 4
Flags: W
AnchorPoint: "Anchor-65" 0 0 basemark 0
AnchorPoint: "Anchor-64" 0 0 basemark 0
AnchorPoint: "Anchor-63" 0 0 basemark 0
AnchorPoint: "Anchor-62" 150 425 basemark 0
AnchorPoint: "Anchor-62" 225 0 mark 0
AnchorPoint: "Anchor-55" 225 0 mark 0
AnchorPoint: "Anchor-50" 225 0 mark 0
AnchorPoint: "Anchor-46" 225 0 mark 0
AnchorPoint: "Anchor-42" 225 0 mark 0
AnchorPoint: "Anchor-38" 225 0 mark 0
AnchorPoint: "Anchor-33" 225 0 mark 0
AnchorPoint: "Anchor-29" 225 0 mark 0
AnchorPoint: "Anchor-24" 225 0 mark 0
AnchorPoint: "Anchor-20" 225 0 mark 0
AnchorPoint: "Anchor-16" 225 0 mark 0
AnchorPoint: "Anchor-12" 225 0 mark 0
AnchorPoint: "Anchor-8" 225 0 mark 0
AnchorPoint: "Anchor-5" 225 0 mark 0
AnchorPoint: "Anchor-0" 225 0 mark 0
LayerCount: 2
Fore
SplineSet
23 190 m 0,0,1
 6 184 6 184 12 200 c 0,2,3
 16 210 16 210 23 223 c 128,-1,4
 30 236 30 236 37.5 248.5 c 128,-1,5
 45 261 45 261 51.5 271 c 128,-1,6
 58 281 58 281 61 285 c 0,7,8
 66 292 66 292 71 297.5 c 128,-1,9
 76 303 76 303 82 305 c 2,10,-1
 453 473 l 2,11,12
 458 475 458 475 461.5 471.5 c 128,-1,13
 465 468 465 468 463 463 c 0,14,15
 460 454 460 454 442 422 c 128,-1,16
 424 390 424 390 420 383 c 0,17,18
 418 379 418 379 415.5 375.5 c 128,-1,19
 413 372 413 372 406 368 c 0,20,21
 310 326 310 326 213 282.5 c 128,-1,22
 116 239 116 239 23 190 c 0,0,1
13 3 m 0,23,24
 -4 -3 -4 -3 2 13 c 0,25,26
 6 23 6 23 13 36 c 128,-1,27
 20 49 20 49 27.5 61.5 c 128,-1,28
 35 74 35 74 41.5 84 c 128,-1,29
 48 94 48 94 51 98 c 0,30,31
 56 105 56 105 61 110.5 c 128,-1,32
 66 116 66 116 72 118 c 2,33,-1
 443 286 l 2,34,35
 448 288 448 288 451.5 284.5 c 128,-1,36
 455 281 455 281 453 276 c 0,37,38
 450 267 450 267 432 235 c 128,-1,39
 414 203 414 203 410 196 c 0,40,41
 408 192 408 192 405.5 188.5 c 128,-1,42
 403 185 403 185 396 181 c 0,43,44
 300 139 300 139 203 95.5 c 128,-1,45
 106 52 106 52 13 3 c 0,23,24
EndSplineSet
Validated: 1
EndChar

StartChar: afii57452
Encoding: 1612 1612 102
Width: 0
GlyphClass: 4
Flags: W
AnchorPoint: "Anchor-65" 0 0 basemark 0
AnchorPoint: "Anchor-64" 0 0 basemark 0
AnchorPoint: "Anchor-63" 0 0 basemark 0
AnchorPoint: "Anchor-62" 90 615 basemark 0
AnchorPoint: "Anchor-62" 225 25 mark 0
AnchorPoint: "Anchor-55" 225 25 mark 0
AnchorPoint: "Anchor-50" 225 25 mark 0
AnchorPoint: "Anchor-46" 225 25 mark 0
AnchorPoint: "Anchor-42" 225 25 mark 0
AnchorPoint: "Anchor-38" 225 25 mark 0
AnchorPoint: "Anchor-33" 225 25 mark 0
AnchorPoint: "Anchor-29" 225 25 mark 0
AnchorPoint: "Anchor-24" 225 25 mark 0
AnchorPoint: "Anchor-20" 225 25 mark 0
AnchorPoint: "Anchor-16" 225 25 mark 0
AnchorPoint: "Anchor-12" 225 25 mark 0
AnchorPoint: "Anchor-8" 225 25 mark 0
AnchorPoint: "Anchor-5" 225 25 mark 0
AnchorPoint: "Anchor-0" 225 25 mark 0
LayerCount: 2
Fore
SplineSet
109 196 m 0,0,1
 104 184 104 184 97.5 187.5 c 128,-1,2
 91 191 91 191 86 194 c 0,3,4
 62 212 62 212 40.5 242 c 128,-1,5
 19 272 19 272 21 311 c 0,6,7
 23 342 23 342 35.5 382 c 128,-1,8
 48 422 48 422 72 464 c 0,9,10
 96 507 96 507 131.5 547.5 c 128,-1,11
 167 588 167 588 216 620 c 0,12,13
 270 656 270 656 328.5 662.5 c 128,-1,14
 387 669 387 669 425 654 c 0,15,16
 452 643 452 643 467 621 c 128,-1,17
 482 599 482 599 486.5 572.5 c 128,-1,18
 491 546 491 546 485 517.5 c 128,-1,19
 479 489 479 489 464 467 c 0,20,21
 460 461 460 461 455.5 461.5 c 128,-1,22
 451 462 451 462 454 471 c 0,23,24
 457 481 457 481 455.5 496.5 c 128,-1,25
 454 512 454 512 448.5 527.5 c 128,-1,26
 443 543 443 543 433.5 557 c 128,-1,27
 424 571 424 571 411 578 c 0,28,29
 389 590 389 590 358 590.5 c 128,-1,30
 327 591 327 591 293.5 582.5 c 128,-1,31
 260 574 260 574 228 558.5 c 128,-1,32
 196 543 196 543 172 522 c 0,33,34
 126 482 126 482 94.5 430.5 c 128,-1,35
 63 379 63 379 67 323 c 0,36,37
 68 316 68 316 74 307.5 c 128,-1,38
 80 299 80 299 88 290.5 c 128,-1,39
 96 282 96 282 104.5 274 c 128,-1,40
 113 266 113 266 119 260 c 0,41,42
 124 254 124 254 124 247.5 c 128,-1,43
 124 241 124 241 122 235 c 0,44,45
 119 225 119 225 116 215 c 128,-1,46
 113 205 113 205 109 196 c 0,0,1
191 285 m 0,47,48
 180 297 180 297 179 313.5 c 128,-1,49
 178 330 178 330 183 342 c 0,50,51
 193 366 193 366 207.5 391 c 128,-1,52
 222 416 222 416 241 437 c 128,-1,53
 260 458 260 458 283 471.5 c 128,-1,54
 306 485 306 485 334 485 c 0,55,56
 365 485 365 485 378.5 459.5 c 128,-1,57
 392 434 392 434 395 400 c 0,58,59
 398 367 398 367 394.5 334 c 128,-1,60
 391 301 391 301 387 287 c 0,61,62
 387 283 387 283 396 279 c 0,63,64
 407 273 407 273 412 267 c 128,-1,65
 417 261 417 261 420 253 c 0,66,67
 425 240 425 240 420 220.5 c 128,-1,68
 415 201 415 201 408 190 c 0,69,70
 403 181 403 181 395 181 c 128,-1,71
 387 181 387 181 381 190 c 0,72,73
 376 196 376 196 370 201 c 128,-1,74
 364 206 364 206 361 209 c 1,75,76
 329 172 329 172 296.5 143.5 c 128,-1,77
 264 115 264 115 228 91 c 0,78,79
 192 68 192 68 152 49 c 128,-1,80
 112 30 112 30 66 12 c 0,81,82
 60 9 60 9 50.5 6 c 128,-1,83
 41 3 41 3 30.5 1.5 c 128,-1,84
 20 0 20 0 11 0 c 128,-1,85
 2 0 2 0 -2 2 c 0,86,87
 -13 7 -13 7 -5.5 14 c 128,-1,88
 2 21 2 21 20 33 c 0,89,90
 53 52 53 52 89 73.5 c 128,-1,91
 125 95 125 95 161 119 c 0,92,93
 196 142 196 142 230 168 c 128,-1,94
 264 194 264 194 293 223 c 1,95,96
 266 231 266 231 238.5 247.5 c 128,-1,97
 211 264 211 264 191 285 c 0,47,48
238 362 m 1,98,99
 258 335 258 335 287 320 c 128,-1,100
 316 305 316 305 338 299 c 1,101,-1
 340 299 l 2,102,103
 341 301 341 301 343 312.5 c 128,-1,104
 345 324 345 324 345 338.5 c 128,-1,105
 345 353 345 353 342 367.5 c 128,-1,106
 339 382 339 382 330 391 c 0,107,108
 322 398 322 398 307.5 397 c 128,-1,109
 293 396 293 396 278.5 390 c 128,-1,110
 264 384 264 384 252.5 376 c 128,-1,111
 241 368 241 368 238 362 c 1,98,99
EndSplineSet
Validated: 33
EndChar

StartChar: afii57453
Encoding: 1613 1613 103
Width: 0
GlyphClass: 4
Flags: W
AnchorPoint: "Anchor-58" 225 0 mark 0
AnchorPoint: "Anchor-53" 225 0 mark 0
AnchorPoint: "Anchor-49" 225 0 mark 0
AnchorPoint: "Anchor-45" 225 0 mark 0
AnchorPoint: "Anchor-41" 225 0 mark 0
AnchorPoint: "Anchor-36" 225 0 mark 0
AnchorPoint: "Anchor-32" 225 0 mark 0
AnchorPoint: "Anchor-27" 225 0 mark 0
AnchorPoint: "Anchor-23" 225 0 mark 0
AnchorPoint: "Anchor-19" 225 0 mark 0
AnchorPoint: "Anchor-15" 225 0 mark 0
AnchorPoint: "Anchor-11" 225 0 mark 0
AnchorPoint: "Anchor-7" 225 0 mark 0
AnchorPoint: "Anchor-3" 225 0 mark 0
LayerCount: 2
Fore
SplineSet
7 -227 m 0,0,1
 -8 -231 -8 -231 -1 -217 c 2,2,-1
 40 -141 l 2,3,4
 43 -136 43 -136 46 -132.5 c 128,-1,5
 49 -129 49 -129 54 -127 c 0,6,7
 80 -118 80 -118 122.5 -104 c 128,-1,8
 165 -90 165 -90 216 -74 c 128,-1,9
 267 -58 267 -58 322.5 -40.5 c 128,-1,10
 378 -23 378 -23 429 -6 c 0,11,12
 438 -3 438 -3 439 -5.5 c 128,-1,13
 440 -8 440 -8 437 -14 c 2,14,-1
 393 -94 l 2,15,16
 390 -98 390 -98 387.5 -100.5 c 128,-1,17
 385 -103 385 -103 380 -104 c 0,18,19
 286 -134 286 -134 193.5 -165.5 c 128,-1,20
 101 -197 101 -197 7 -227 c 0,0,1
-13 -412 m 0,21,22
 -28 -416 -28 -416 -21 -402 c 2,23,-1
 20 -326 l 2,24,25
 23 -321 23 -321 26 -317.5 c 128,-1,26
 29 -314 29 -314 34 -312 c 0,27,28
 60 -302 60 -302 102.5 -288.5 c 128,-1,29
 145 -275 145 -275 196 -259 c 128,-1,30
 247 -243 247 -243 302.5 -225.5 c 128,-1,31
 358 -208 358 -208 409 -191 c 0,32,33
 418 -188 418 -188 419 -190.5 c 128,-1,34
 420 -193 420 -193 417 -199 c 2,35,-1
 373 -279 l 2,36,37
 370 -283 370 -283 367.5 -285.5 c 128,-1,38
 365 -288 365 -288 360 -289 c 0,39,40
 266 -318 266 -318 173.5 -350 c 128,-1,41
 81 -382 81 -382 -13 -412 c 0,21,22
EndSplineSet
Validated: 1
EndChar

StartChar: afii57454
Encoding: 1614 1614 104
Width: 0
GlyphClass: 4
Flags: W
AnchorPoint: "Anchor-65" 0 0 basemark 0
AnchorPoint: "Anchor-64" 0 0 basemark 0
AnchorPoint: "Anchor-63" 0 0 basemark 0
AnchorPoint: "Anchor-62" 150 250 basemark 0
AnchorPoint: "Anchor-62" 225 0 mark 0
AnchorPoint: "Anchor-55" 225 0 mark 0
AnchorPoint: "Anchor-50" 225 0 mark 0
AnchorPoint: "Anchor-46" 225 0 mark 0
AnchorPoint: "Anchor-42" 225 0 mark 0
AnchorPoint: "Anchor-38" 225 0 mark 0
AnchorPoint: "Anchor-33" 225 0 mark 0
AnchorPoint: "Anchor-29" 225 0 mark 0
AnchorPoint: "Anchor-24" 225 0 mark 0
AnchorPoint: "Anchor-20" 225 0 mark 0
AnchorPoint: "Anchor-16" 225 0 mark 0
AnchorPoint: "Anchor-12" 225 0 mark 0
AnchorPoint: "Anchor-8" 225 0 mark 0
AnchorPoint: "Anchor-5" 225 0 mark 0
AnchorPoint: "Anchor-0" 225 0 mark 0
LayerCount: 2
Fore
SplineSet
391 174 m 0,0,1
 341 151 341 151 286.5 126 c 128,-1,2
 232 101 232 101 181 78 c 128,-1,3
 130 55 130 55 86 35 c 128,-1,4
 42 15 42 15 11 2 c 0,5,6
 4 -1 4 -1 1 2 c 128,-1,7
 -2 5 -2 5 1 11 c 2,8,-1
 50 116 l 2,9,10
 55 124 55 124 60.5 127.5 c 128,-1,11
 66 131 66 131 71 134 c 2,12,-1
 436 296 l 2,13,14
 452 303 452 303 446 288 c 2,15,-1
 405 188 l 2,16,17
 402 179 402 179 391 174 c 0,0,1
EndSplineSet
Validated: 1
EndChar

StartChar: afii57455
Encoding: 1615 1615 105
Width: 0
GlyphClass: 4
Flags: W
AnchorPoint: "Anchor-66" 0 0 basemark 0
AnchorPoint: "Anchor-62" 225 10 mark 0
AnchorPoint: "Anchor-55" 225 10 mark 0
AnchorPoint: "Anchor-50" 225 10 mark 0
AnchorPoint: "Anchor-46" 225 10 mark 0
AnchorPoint: "Anchor-42" 225 10 mark 0
AnchorPoint: "Anchor-38" 225 10 mark 0
AnchorPoint: "Anchor-33" 225 10 mark 0
AnchorPoint: "Anchor-29" 225 10 mark 0
AnchorPoint: "Anchor-24" 225 10 mark 0
AnchorPoint: "Anchor-20" 225 10 mark 0
AnchorPoint: "Anchor-16" 225 10 mark 0
AnchorPoint: "Anchor-12" 225 10 mark 0
AnchorPoint: "Anchor-8" 225 10 mark 0
AnchorPoint: "Anchor-5" 225 10 mark 0
AnchorPoint: "Anchor-0" 225 10 mark 0
LayerCount: 2
Fore
SplineSet
33 35 m 0,0,1
 66 54 66 54 98 73 c 128,-1,2
 130 92 130 92 160 114 c 0,3,4
 191 136 191 136 221 162 c 128,-1,5
 251 188 251 188 279 221 c 1,6,7
 252 229 252 229 222 248 c 128,-1,8
 192 267 192 267 174 289 c 0,9,10
 165 300 165 300 163 317.5 c 128,-1,11
 161 335 161 335 166 350 c 0,12,13
 174 374 174 374 188.5 402 c 128,-1,14
 203 430 203 430 223 453 c 256,15,16
 243 476 243 476 267.5 490.5 c 128,-1,17
 292 505 292 505 317 504 c 0,18,19
 348 502 348 502 362 474.5 c 128,-1,20
 376 447 376 447 379 411 c 0,21,22
 383 375 383 375 379.5 340 c 128,-1,23
 376 305 376 305 374 289 c 0,24,25
 374 284 374 284 377 281 c 0,26,27
 389 274 389 274 393.5 268 c 128,-1,28
 398 262 398 262 401 254 c 0,29,30
 407 239 407 239 403.5 218 c 128,-1,31
 400 197 400 197 391 186 c 0,32,33
 383 176 383 176 377 176.5 c 128,-1,34
 371 177 371 177 365 186 c 0,35,36
 360 192 360 192 355.5 197.5 c 128,-1,37
 351 203 351 203 342 207 c 1,38,39
 314 173 314 173 282.5 142 c 128,-1,40
 251 111 251 111 216 85 c 0,41,42
 180 60 180 60 141 40 c 128,-1,43
 102 20 102 20 59 7 c 0,44,45
 42 2 42 2 24 0.5 c 128,-1,46
 6 -1 6 -1 4 4 c 0,47,48
 2 10 2 10 11 18.5 c 128,-1,49
 20 27 20 27 33 35 c 0,0,1
221 371 m 1,50,51
 242 342 242 342 271 325.5 c 128,-1,52
 300 309 300 309 324 303 c 1,53,-1
 326 303 l 1,54,55
 326 312 326 312 327 325 c 128,-1,56
 328 338 328 338 327.5 352 c 128,-1,57
 327 366 327 366 323.5 379 c 128,-1,58
 320 392 320 392 311 401 c 0,59,60
 303 408 303 408 288.5 407.5 c 128,-1,61
 274 407 274 407 260 402 c 128,-1,62
 246 397 246 397 234.5 388.5 c 128,-1,63
 223 380 223 380 221 371 c 1,50,51
EndSplineSet
Validated: 33
EndChar

StartChar: afii57456
Encoding: 1616 1616 106
Width: 0
GlyphClass: 4
Flags: W
AnchorPoint: "Anchor-58" 350 -140 mark 0
AnchorPoint: "Anchor-53" 350 -140 mark 0
AnchorPoint: "Anchor-49" 350 -140 mark 0
AnchorPoint: "Anchor-45" 350 -140 mark 0
AnchorPoint: "Anchor-41" 350 -140 mark 0
AnchorPoint: "Anchor-36" 350 -140 mark 0
AnchorPoint: "Anchor-32" 350 -140 mark 0
AnchorPoint: "Anchor-27" 350 -140 mark 0
AnchorPoint: "Anchor-23" 350 -140 mark 0
AnchorPoint: "Anchor-19" 350 -140 mark 0
AnchorPoint: "Anchor-15" 350 -140 mark 0
AnchorPoint: "Anchor-11" 350 -140 mark 0
AnchorPoint: "Anchor-7" 350 -140 mark 0
AnchorPoint: "Anchor-3" 350 -140 mark 0
LayerCount: 2
Fore
SplineSet
508 -261 m 2,0,-1
 133 -384 l 2,1,2
 117 -389 117 -389 125 -374 c 2,3,-1
 166 -291 l 2,4,5
 169 -285 169 -285 171.5 -282 c 128,-1,6
 174 -279 174 -279 180 -277 c 0,7,8
 207 -267 207 -267 251 -252.5 c 128,-1,9
 295 -238 295 -238 346.5 -221.5 c 128,-1,10
 398 -205 398 -205 452 -188 c 128,-1,11
 506 -171 506 -171 555 -156 c 0,12,13
 563 -153 563 -153 565 -154.5 c 128,-1,14
 567 -156 567 -156 563 -164 c 2,15,-1
 520 -249 l 2,16,17
 517 -253 517 -253 514.5 -256.5 c 128,-1,18
 512 -260 512 -260 508 -261 c 2,0,-1
EndSplineSet
Validated: 1
EndChar

StartChar: afii57457
Encoding: 1617 1617 107
Width: 0
GlyphClass: 4
Flags: W
AnchorPoint: "Anchor-55" 215 -25 mark 0
AnchorPoint: "Anchor-50" 215 -25 mark 0
AnchorPoint: "Anchor-46" 215 -25 mark 0
AnchorPoint: "Anchor-42" 215 -25 mark 0
AnchorPoint: "Anchor-38" 215 -25 mark 0
AnchorPoint: "Anchor-33" 215 -25 mark 0
AnchorPoint: "Anchor-29" 215 -25 mark 0
AnchorPoint: "Anchor-24" 215 -25 mark 0
AnchorPoint: "Anchor-20" 215 -25 mark 0
AnchorPoint: "Anchor-16" 215 -25 mark 0
AnchorPoint: "Anchor-12" 215 -25 mark 0
AnchorPoint: "Anchor-8" 215 -25 mark 0
AnchorPoint: "Anchor-5" 215 -25 mark 0
AnchorPoint: "Anchor-0" 215 -25 mark 0
LayerCount: 2
Fore
SplineSet
211 85 m 1,0,1
 191 44 191 44 163 20.5 c 128,-1,2
 135 -3 135 -3 90 -5 c 0,3,4
 57 -6 57 -6 32.5 12 c 128,-1,5
 8 30 8 30 4 75 c 0,6,7
 2 95 2 95 6 116.5 c 128,-1,8
 10 138 10 138 18 157 c 0,9,10
 26 175 26 175 36.5 188.5 c 128,-1,11
 47 202 47 202 59 206 c 0,12,13
 72 208 72 208 61 188 c 0,14,15
 55 176 55 176 51.5 161.5 c 128,-1,16
 48 147 48 147 47 133 c 128,-1,17
 46 119 46 119 50 107.5 c 128,-1,18
 54 96 54 96 63 89 c 0,19,20
 78 78 78 78 95.5 78 c 128,-1,21
 113 78 113 78 129.5 85.5 c 128,-1,22
 146 93 146 93 160.5 104.5 c 128,-1,23
 175 116 175 116 186 128 c 0,24,25
 199 143 199 143 205 166 c 128,-1,26
 211 189 211 189 213 204 c 0,27,28
 214 217 214 217 220 230 c 128,-1,29
 226 243 226 243 240 243 c 0,30,31
 243 243 243 243 244.5 237.5 c 128,-1,32
 246 232 246 232 247 225 c 128,-1,33
 248 218 248 218 248 211.5 c 128,-1,34
 248 205 248 205 248 202 c 0,35,36
 248 173 248 173 257 156.5 c 128,-1,37
 266 140 266 140 293 134 c 0,38,39
 307 131 307 131 329.5 137 c 128,-1,40
 352 143 352 143 369 157 c 0,41,42
 372 159 372 159 370.5 168 c 128,-1,43
 369 177 369 177 366 187.5 c 128,-1,44
 363 198 363 198 359.5 208 c 128,-1,45
 356 218 356 218 354 222 c 2,46,-1
 391 292 l 1,47,48
 408 267 408 267 412.5 228 c 128,-1,49
 417 189 417 189 407.5 151 c 128,-1,50
 398 113 398 113 374.5 83 c 128,-1,51
 351 53 351 53 313 46 c 0,52,53
 276 39 276 39 251 51 c 128,-1,54
 226 63 226 63 211 85 c 1,0,1
EndSplineSet
Validated: 33
EndChar

StartChar: afii57458
Encoding: 1618 1618 108
Width: 0
GlyphClass: 4
Flags: W
AnchorPoint: "Anchor-66" 177 500 basemark 0
AnchorPoint: "Anchor-65" 175 475 basemark 0
AnchorPoint: "Anchor-64" 0 0 basemark 0
AnchorPoint: "Anchor-63" 0 0 basemark 0
AnchorPoint: "Anchor-62" 175 425 basemark 0
AnchorPoint: "Anchor-62" 225 -25 mark 0
AnchorPoint: "Anchor-55" 225 -25 mark 0
AnchorPoint: "Anchor-50" 225 -25 mark 0
AnchorPoint: "Anchor-46" 225 -25 mark 0
AnchorPoint: "Anchor-42" 225 -25 mark 0
AnchorPoint: "Anchor-38" 225 -25 mark 0
AnchorPoint: "Anchor-33" 225 -25 mark 0
AnchorPoint: "Anchor-29" 225 -25 mark 0
AnchorPoint: "Anchor-24" 225 -25 mark 0
AnchorPoint: "Anchor-20" 225 -25 mark 0
AnchorPoint: "Anchor-16" 225 -25 mark 0
AnchorPoint: "Anchor-12" 225 -25 mark 0
AnchorPoint: "Anchor-8" 225 -25 mark 0
AnchorPoint: "Anchor-5" 225 -25 mark 0
AnchorPoint: "Anchor-0" 225 -25 mark 0
LayerCount: 2
Fore
SplineSet
430 264 m 0,0,1
 428 257 428 257 425 239 c 128,-1,2
 422 221 422 221 415 203 c 0,3,4
 409 189 409 189 403 174.5 c 128,-1,5
 397 160 397 160 387 152 c 0,6,7
 385 148 385 148 375.5 145 c 128,-1,8
 366 142 366 142 360 142 c 0,9,10
 359 142 359 142 353.5 136.5 c 128,-1,11
 348 131 348 131 340.5 124.5 c 128,-1,12
 333 118 333 118 326 111.5 c 128,-1,13
 319 105 319 105 315 103 c 0,14,15
 285 84 285 84 252 69.5 c 128,-1,16
 219 55 219 55 189 44.5 c 128,-1,17
 159 34 159 34 134.5 27.5 c 128,-1,18
 110 21 110 21 98 19 c 0,19,20
 85 17 85 17 76 20 c 128,-1,21
 67 23 67 23 65 36 c 0,22,23
 64 42 64 42 68 48.5 c 128,-1,24
 72 55 72 55 78 60.5 c 128,-1,25
 84 66 84 66 90 70.5 c 128,-1,26
 96 75 96 75 100 77 c 2,27,-1
 264 160 l 2,28,29
 284 170 284 170 292.5 177.5 c 128,-1,30
 301 185 301 185 301 187 c 0,31,32
 301 188 301 188 292 194 c 128,-1,33
 283 200 283 200 269 207.5 c 128,-1,34
 255 215 255 215 237.5 221.5 c 128,-1,35
 220 228 220 228 204 230 c 0,36,37
 183 234 183 234 164 235.5 c 128,-1,38
 145 237 145 237 128.5 232.5 c 128,-1,39
 112 228 112 228 97 216 c 128,-1,40
 82 204 82 204 69 182 c 0,41,42
 60 167 60 167 51 170.5 c 128,-1,43
 42 174 42 174 47 192 c 0,44,45
 54 215 54 215 62.5 237.5 c 128,-1,46
 71 260 71 260 82 280 c 0,47,48
 134 371 134 371 231 352 c 0,49,50
 252 348 252 348 268.5 342 c 128,-1,51
 285 336 285 336 300 328.5 c 128,-1,52
 315 321 315 321 330.5 312.5 c 128,-1,53
 346 304 346 304 364 296 c 0,54,55
 368 293 368 293 379 289.5 c 128,-1,56
 390 286 390 286 401 282.5 c 128,-1,57
 412 279 412 279 421 274.5 c 128,-1,58
 430 270 430 270 430 264 c 0,0,1
EndSplineSet
Validated: 33
EndChar

StartChar: uni0653
Encoding: 1619 1619 109
Width: 0
GlyphClass: 4
Flags: W
AnchorPoint: "Anchor-65" 255 -30 mark 0
AnchorPoint: "Anchor-55" 225 -50 mark 0
AnchorPoint: "Anchor-50" 225 -50 mark 0
AnchorPoint: "Anchor-46" 225 -50 mark 0
AnchorPoint: "Anchor-42" 225 -50 mark 0
AnchorPoint: "Anchor-38" 225 -50 mark 0
AnchorPoint: "Anchor-33" 225 -50 mark 0
AnchorPoint: "Anchor-29" 225 -50 mark 0
AnchorPoint: "Anchor-24" 225 -50 mark 0
AnchorPoint: "Anchor-20" 225 -50 mark 0
AnchorPoint: "Anchor-16" 225 -50 mark 0
AnchorPoint: "Anchor-12" 225 -50 mark 0
AnchorPoint: "Anchor-8" 225 -50 mark 0
AnchorPoint: "Anchor-5" 225 -50 mark 0
AnchorPoint: "Anchor-0" 225 -50 mark 0
LayerCount: 2
Fore
SplineSet
539 212 m 0,0,1
 525 167 525 167 494.5 129 c 128,-1,2
 464 91 464 91 423 63.5 c 128,-1,3
 382 36 382 36 333.5 20 c 128,-1,4
 285 4 285 4 235 4 c 0,5,6
 202 4 202 4 164 10.5 c 128,-1,7
 126 17 126 17 97 26 c 1,8,-1
 93 26 l 2,9,10
 80 26 80 26 75 -11 c 0,11,12
 70 -51 70 -51 55 -61 c 1,13,-1
 34 4 l 2,14,15
 6 79 6 79 -16 104 c 1,16,17
 -7 139 -7 139 2 173 c 128,-1,18
 11 207 11 207 19 227 c 0,19,20
 21 231 21 231 25.5 234.5 c 128,-1,21
 30 238 30 238 34 233 c 0,22,23
 99 135 99 135 257 135 c 0,24,25
 301 135 301 135 335 140.5 c 128,-1,26
 369 146 369 146 399.5 158 c 128,-1,27
 430 170 430 170 462 189.5 c 128,-1,28
 494 209 494 209 534 238 c 0,29,30
 537 241 537 241 540 242.5 c 128,-1,31
 543 244 543 244 544 242 c 128,-1,32
 545 240 545 240 544 233 c 128,-1,33
 543 226 543 226 539 212 c 0,0,1
EndSplineSet
Validated: 1
EndChar

StartChar: uni0654
Encoding: 1620 1620 110
Width: 0
GlyphClass: 4
Flags: W
AnchorPoint: "Anchor-65" 255 960 basemark 0
AnchorPoint: "Anchor-64" 0 0 basemark 0
AnchorPoint: "Anchor-63" 375 1025 basemark 0
AnchorPoint: "Anchor-62" 300 925 basemark 0
AnchorPoint: "Anchor-55" 350 450 mark 0
AnchorPoint: "Anchor-50" 350 450 mark 0
AnchorPoint: "Anchor-46" 350 450 mark 0
AnchorPoint: "Anchor-42" 350 450 mark 0
AnchorPoint: "Anchor-38" 350 450 mark 0
AnchorPoint: "Anchor-33" 350 450 mark 0
AnchorPoint: "Anchor-29" 350 450 mark 0
AnchorPoint: "Anchor-24" 350 450 mark 0
AnchorPoint: "Anchor-20" 350 450 mark 0
AnchorPoint: "Anchor-16" 350 450 mark 0
AnchorPoint: "Anchor-12" 350 450 mark 0
AnchorPoint: "Anchor-8" 350 450 mark 0
AnchorPoint: "Anchor-5" 350 450 mark 0
AnchorPoint: "Anchor-0" 350 450 mark 0
LayerCount: 2
Fore
SplineSet
164 458 m 0,0,1
 170 462 170 462 203 479.5 c 128,-1,2
 236 497 236 497 248 503 c 1,3,4
 227 521 227 521 207 544.5 c 128,-1,5
 187 568 187 568 175 597 c 0,6,7
 168 614 168 614 172.5 631.5 c 128,-1,8
 177 649 177 649 187 665 c 0,9,10
 201 687 201 687 221.5 709.5 c 128,-1,11
 242 732 242 732 267 751 c 0,12,13
 292 769 292 769 320 780.5 c 128,-1,14
 348 792 348 792 376 792 c 0,15,16
 388 792 388 792 398.5 784.5 c 128,-1,17
 409 777 409 777 417.5 766.5 c 128,-1,18
 426 756 426 756 431.5 744 c 128,-1,19
 437 732 437 732 440 722 c 0,20,21
 447 699 447 699 440 684 c 0,22,23
 423 647 423 647 413.5 637.5 c 128,-1,24
 404 628 404 628 395 629 c 0,25,26
 387 630 387 630 384.5 642 c 128,-1,27
 382 654 382 654 376 668 c 0,28,29
 370 685 370 685 357.5 690.5 c 128,-1,30
 345 696 345 696 330 696 c 0,31,32
 281 696 281 696 243 661 c 1,33,34
 258 624 258 624 289.5 593.5 c 128,-1,35
 321 563 321 563 358 559 c 0,36,37
 384 556 384 556 408 557.5 c 128,-1,38
 432 559 432 559 456 562 c 0,39,40
 480 566 480 566 504.5 571 c 128,-1,41
 529 576 529 576 554 582 c 1,42,-1
 518 487 l 1,43,44
 476 482 476 482 432.5 474 c 128,-1,45
 389 466 389 466 341 452 c 0,46,47
 293 437 293 437 243 413 c 128,-1,48
 193 389 193 389 148 366 c 0,49,50
 141 362 141 362 137.5 366 c 128,-1,51
 134 370 134 370 135 375 c 0,52,53
 137 387 137 387 146 414 c 128,-1,54
 155 441 155 441 164 458 c 0,0,1
EndSplineSet
Validated: 1
EndChar

StartChar: uni0655
Encoding: 1621 1621 111
Width: 0
GlyphClass: 4
Flags: W
AnchorPoint: "Anchor-58" 225 0 mark 0
AnchorPoint: "Anchor-53" 225 0 mark 0
AnchorPoint: "Anchor-49" 225 0 mark 0
AnchorPoint: "Anchor-45" 225 0 mark 0
AnchorPoint: "Anchor-41" 225 0 mark 0
AnchorPoint: "Anchor-36" 225 0 mark 0
AnchorPoint: "Anchor-32" 225 0 mark 0
AnchorPoint: "Anchor-27" 225 0 mark 0
AnchorPoint: "Anchor-23" 225 0 mark 0
AnchorPoint: "Anchor-19" 225 0 mark 0
AnchorPoint: "Anchor-15" 225 0 mark 0
AnchorPoint: "Anchor-11" 225 0 mark 0
AnchorPoint: "Anchor-7" 225 0 mark 0
AnchorPoint: "Anchor-3" 225 0 mark 0
LayerCount: 2
Fore
SplineSet
45 -351 m 0,0,1
 51 -347 51 -347 83.5 -329.5 c 128,-1,2
 116 -312 116 -312 129 -306 c 1,3,4
 108 -288 108 -288 88 -264.5 c 128,-1,5
 68 -241 68 -241 56 -212 c 0,6,7
 49 -195 49 -195 53.5 -177.5 c 128,-1,8
 58 -160 58 -160 68 -144 c 0,9,10
 82 -122 82 -122 102.5 -99.5 c 128,-1,11
 123 -77 123 -77 148 -58 c 0,12,13
 173 -40 173 -40 201 -28.5 c 128,-1,14
 229 -17 229 -17 257 -17 c 0,15,16
 269 -17 269 -17 279.5 -24.5 c 128,-1,17
 290 -32 290 -32 298.5 -42.5 c 128,-1,18
 307 -53 307 -53 312.5 -65 c 128,-1,19
 318 -77 318 -77 321 -87 c 0,20,21
 328 -110 328 -110 321 -125 c 0,22,23
 304 -162 304 -162 294.5 -171.5 c 128,-1,24
 285 -181 285 -181 276 -180 c 0,25,26
 268 -179 268 -179 265.5 -167 c 128,-1,27
 263 -155 263 -155 257 -141 c 0,28,29
 251 -124 251 -124 238.5 -118.5 c 128,-1,30
 226 -113 226 -113 211 -113 c 0,31,32
 162 -113 162 -113 124 -148 c 1,33,34
 139 -185 139 -185 170.5 -215.5 c 128,-1,35
 202 -246 202 -246 239 -250 c 0,36,37
 265 -253 265 -253 289 -251.5 c 128,-1,38
 313 -250 313 -250 337 -247 c 0,39,40
 361 -243 361 -243 385.5 -238 c 128,-1,41
 410 -233 410 -233 435 -227 c 1,42,-1
 399 -322 l 1,43,44
 357 -327 357 -327 313.5 -335 c 128,-1,45
 270 -343 270 -343 222 -357 c 0,46,47
 174 -372 174 -372 124 -396 c 128,-1,48
 74 -420 74 -420 29 -443 c 0,49,50
 22 -447 22 -447 18.5 -443 c 128,-1,51
 15 -439 15 -439 16 -434 c 0,52,53
 18 -422 18 -422 27 -395 c 128,-1,54
 36 -368 36 -368 45 -351 c 0,0,1
EndSplineSet
Validated: 1
EndChar

StartChar: uni0656
Encoding: 1622 1622 112
Width: 0
GlyphClass: 4
Flags: W
AnchorPoint: "Anchor-65" 225 1200 basemark 0
AnchorPoint: "Anchor-64" 0 0 basemark 0
AnchorPoint: "Anchor-63" 0 0 basemark 0
AnchorPoint: "Anchor-62" 0 0 basemark 0
AnchorPoint: "Anchor-58" 245 -50 mark 0
AnchorPoint: "Anchor-53" 245 -50 mark 0
AnchorPoint: "Anchor-49" 245 -50 mark 0
AnchorPoint: "Anchor-45" 245 -50 mark 0
AnchorPoint: "Anchor-41" 245 -50 mark 0
AnchorPoint: "Anchor-36" 245 -50 mark 0
AnchorPoint: "Anchor-32" 245 -50 mark 0
AnchorPoint: "Anchor-27" 245 -50 mark 0
AnchorPoint: "Anchor-23" 245 -50 mark 0
AnchorPoint: "Anchor-19" 245 -50 mark 0
AnchorPoint: "Anchor-15" 245 -50 mark 0
AnchorPoint: "Anchor-11" 245 -50 mark 0
AnchorPoint: "Anchor-7" 245 -50 mark 0
AnchorPoint: "Anchor-3" 245 -50 mark 0
LayerCount: 2
Fore
SplineSet
246 -63 m 256,0,1
 250 -63 250 -63 255 -73 c 0,2,3
 306 -147 306 -147 322 -230.5 c 128,-1,4
 338 -314 338 -314 317 -413 c 0,5,6
 311 -435 311 -435 301.5 -461.5 c 128,-1,7
 292 -488 292 -488 280 -510.5 c 128,-1,8
 268 -533 268 -533 254.5 -548 c 128,-1,9
 241 -563 241 -563 228 -562 c 0,10,11
 219 -561 219 -561 218 -553.5 c 128,-1,12
 217 -546 217 -546 219.5 -535 c 128,-1,13
 222 -524 222 -524 226 -511.5 c 128,-1,14
 230 -499 230 -499 233 -490 c 0,15,16
 254 -411 254 -411 242 -324.5 c 128,-1,17
 230 -238 230 -238 174 -157 c 0,18,19
 174 -153 174 -153 184 -138 c 128,-1,20
 194 -123 194 -123 206.5 -106 c 128,-1,21
 219 -89 219 -89 230.5 -76 c 128,-1,22
 242 -63 242 -63 246 -63 c 256,0,1
EndSplineSet
Validated: 33
EndChar

StartChar: uni0657
Encoding: 1623 1623 113
Width: 0
GlyphClass: 4
Flags: W
AnchorPoint: "Anchor-65" 250 600 basemark 0
AnchorPoint: "Anchor-64" 0 0 basemark 0
AnchorPoint: "Anchor-63" 0 0 basemark 0
AnchorPoint: "Anchor-62" 0 0 basemark 0
AnchorPoint: "Anchor-55" 250 50 mark 0
AnchorPoint: "Anchor-50" 250 50 mark 0
AnchorPoint: "Anchor-46" 250 50 mark 0
AnchorPoint: "Anchor-42" 250 50 mark 0
AnchorPoint: "Anchor-38" 250 50 mark 0
AnchorPoint: "Anchor-33" 250 50 mark 0
AnchorPoint: "Anchor-29" 250 50 mark 0
AnchorPoint: "Anchor-24" 250 50 mark 0
AnchorPoint: "Anchor-20" 250 50 mark 0
AnchorPoint: "Anchor-16" 250 50 mark 0
AnchorPoint: "Anchor-12" 250 50 mark 0
AnchorPoint: "Anchor-8" 250 50 mark 0
AnchorPoint: "Anchor-5" 250 50 mark 0
AnchorPoint: "Anchor-0" 250 50 mark 0
LayerCount: 2
Fore
SplineSet
342 189 m 0,0,1
 339 151 339 151 331.5 118 c 128,-1,2
 324 85 324 85 310 60.5 c 128,-1,3
 296 36 296 36 273.5 21.5 c 128,-1,4
 251 7 251 7 220 7 c 0,5,6
 196 7 196 7 174 15 c 128,-1,7
 152 23 152 23 135 41.5 c 128,-1,8
 118 60 118 60 107.5 89.5 c 128,-1,9
 97 119 97 119 97 161 c 0,10,11
 97 208 97 208 112.5 255 c 128,-1,12
 128 302 128 302 154.5 346 c 128,-1,13
 181 390 181 390 215 430 c 128,-1,14
 249 470 249 470 286 502 c 0,15,16
 292 507 292 507 301 508.5 c 128,-1,17
 310 510 310 510 317 508.5 c 128,-1,18
 324 507 324 507 326 501.5 c 128,-1,19
 328 496 328 496 319 487 c 0,20,21
 172 340 172 340 172 213 c 0,22,23
 172 175 172 175 190.5 156.5 c 128,-1,24
 209 138 209 138 233 138 c 0,25,26
 265 138 265 138 281 154.5 c 128,-1,27
 297 171 297 171 308 192 c 0,28,29
 316 203 316 203 329 202.5 c 128,-1,30
 342 202 342 202 342 189 c 0,0,1
EndSplineSet
Validated: 1
EndChar

StartChar: uni0658
Encoding: 1624 1624 114
Width: 0
GlyphClass: 4
Flags: W
AnchorPoint: "Anchor-66" 250 -80 mark 0
AnchorPoint: "Anchor-65" 250 -25 mark 0
AnchorPoint: "Anchor-55" 250 0 mark 0
AnchorPoint: "Anchor-50" 250 0 mark 0
AnchorPoint: "Anchor-46" 250 0 mark 0
AnchorPoint: "Anchor-42" 250 0 mark 0
AnchorPoint: "Anchor-38" 250 0 mark 0
AnchorPoint: "Anchor-33" 250 0 mark 0
AnchorPoint: "Anchor-29" 250 0 mark 0
AnchorPoint: "Anchor-24" 250 0 mark 0
AnchorPoint: "Anchor-20" 250 0 mark 0
AnchorPoint: "Anchor-16" 250 0 mark 0
AnchorPoint: "Anchor-12" 250 0 mark 0
AnchorPoint: "Anchor-8" 250 0 mark 0
AnchorPoint: "Anchor-5" 250 0 mark 0
AnchorPoint: "Anchor-0" 250 0 mark 0
LayerCount: 2
Fore
SplineSet
520 175 m 0,0,1
 504 139 504 139 487 110.5 c 128,-1,2
 470 82 470 82 449 62 c 128,-1,3
 428 42 428 42 400.5 31 c 128,-1,4
 373 20 373 20 335 20 c 0,5,6
 321 20 321 20 298 23 c 128,-1,7
 275 26 275 26 250.5 29.5 c 128,-1,8
 226 33 226 33 203 36.5 c 128,-1,9
 180 40 180 40 164 41 c 0,10,11
 139 43 139 43 119.5 41.5 c 128,-1,12
 100 40 100 40 82.5 35 c 128,-1,13
 65 30 65 30 48 19.5 c 128,-1,14
 31 9 31 9 10 -6 c 0,15,16
 4 -10 4 -10 -2 -5.5 c 128,-1,17
 -8 -1 -8 -1 -8 5 c 0,18,19
 -6 17 -6 17 8.5 44.5 c 128,-1,20
 23 72 23 72 60 109 c 0,21,22
 91 140 91 140 125.5 145.5 c 128,-1,23
 160 151 160 151 198 145.5 c 128,-1,24
 236 140 236 140 275.5 131 c 128,-1,25
 315 122 315 122 355 122 c 0,26,27
 390 122 390 122 428.5 137.5 c 128,-1,28
 467 153 467 153 493 187 c 0,29,30
 496 190 496 190 501.5 191 c 128,-1,31
 507 192 507 192 512.5 190.5 c 128,-1,32
 518 189 518 189 521 185.5 c 128,-1,33
 524 182 524 182 520 175 c 0,0,1
EndSplineSet
Validated: 33
EndChar

StartChar: uni065C
Encoding: 1628 1628 118
Width: 385
GlyphClass: 2
Flags: W
LayerCount: 2
Fore
SplineSet
70 -220 m 0,0,1
 70 -195 70 -195 79.5 -172 c 128,-1,2
 89 -149 89 -149 106 -132 c 128,-1,3
 123 -115 123 -115 146 -105 c 128,-1,4
 169 -95 169 -95 195 -95 c 256,5,6
 221 -95 221 -95 244 -105 c 128,-1,7
 267 -115 267 -115 284 -132 c 128,-1,8
 301 -149 301 -149 311 -172 c 128,-1,9
 321 -195 321 -195 321 -220 c 0,10,11
 321 -246 321 -246 311 -269 c 128,-1,12
 301 -292 301 -292 284 -309 c 128,-1,13
 267 -326 267 -326 244 -336 c 128,-1,14
 221 -346 221 -346 195 -346 c 256,15,16
 169 -346 169 -346 146 -336 c 128,-1,17
 123 -326 123 -326 106 -309 c 128,-1,18
 89 -292 89 -292 79.5 -269 c 128,-1,19
 70 -246 70 -246 70 -220 c 0,0,1
EndSplineSet
Validated: 1
EndChar

StartChar: uni065E
Encoding: 1630 1630 120
Width: 0
GlyphClass: 4
Flags: W
AnchorPoint: "Anchor-63" 400 -25 mark 0
LayerCount: 2
Fore
SplineSet
276 -8 m 0,0,1
 268 -6 268 -6 275.5 2.5 c 128,-1,2
 283 11 283 11 299 21 c 0,3,4
 325 37 325 37 356.5 55.5 c 128,-1,5
 388 74 388 74 420.5 95.5 c 128,-1,6
 453 117 453 117 485.5 141.5 c 128,-1,7
 518 166 518 166 545 193 c 1,8,9
 519 201 519 201 492.5 217 c 128,-1,10
 466 233 466 233 449 250 c 0,11,12
 440 260 440 260 438.5 276 c 128,-1,13
 437 292 437 292 442 305 c 0,14,15
 450 326 450 326 463.5 351 c 128,-1,16
 477 376 477 376 495 396.5 c 128,-1,17
 513 417 513 417 534.5 430 c 128,-1,18
 556 443 556 443 582 441 c 0,19,20
 610 439 610 439 622 415 c 128,-1,21
 634 391 634 391 637 361 c 0,22,23
 640 329 640 329 638.5 297.5 c 128,-1,24
 637 266 637 266 633 250 c 0,25,26
 633 245 633 245 637 244 c 0,27,28
 649 240 649 240 654 233.5 c 128,-1,29
 659 227 659 227 661 222 c 0,30,31
 666 209 666 209 661.5 190 c 128,-1,32
 657 171 657 171 649 160 c 0,33,34
 643 154 643 154 635.5 154.5 c 128,-1,35
 628 155 628 155 625 160 c 0,36,37
 620 165 620 165 615.5 170 c 128,-1,38
 611 175 611 175 604 178 c 1,39,40
 546 109 546 109 480 68.5 c 128,-1,41
 414 28 414 28 342 2 c 0,42,43
 328 -3 328 -3 307.5 -7 c 128,-1,44
 287 -11 287 -11 276 -8 c 0,0,1
494 324 m 1,45,46
 512 297 512 297 537.5 284 c 128,-1,47
 563 271 563 271 588 264 c 1,48,-1
 590 264 l 1,49,50
 590 271 590 271 591 283 c 128,-1,51
 592 295 592 295 591.5 308 c 128,-1,52
 591 321 591 321 587.5 332.5 c 128,-1,53
 584 344 584 344 575 350 c 0,54,55
 567 356 567 356 554 356 c 128,-1,56
 541 356 541 356 528.5 351.5 c 128,-1,57
 516 347 516 347 506 339.5 c 128,-1,58
 496 332 496 332 494 324 c 1,45,46
-15 -5 m 0,59,60
 -23 -3 -23 -3 -15.5 5 c 128,-1,61
 -8 13 -8 13 8 24 c 0,62,63
 36 43 36 43 68 62 c 128,-1,64
 100 81 100 81 132 101.5 c 128,-1,65
 164 122 164 122 195.5 145.5 c 128,-1,66
 227 169 227 169 254 196 c 1,67,68
 228 204 228 204 201.5 220 c 128,-1,69
 175 236 175 236 158 253 c 0,70,71
 149 263 149 263 147.5 279 c 128,-1,72
 146 295 146 295 151 308 c 0,73,74
 159 329 159 329 172.5 354 c 128,-1,75
 186 379 186 379 204 399.5 c 128,-1,76
 222 420 222 420 243.5 433 c 128,-1,77
 265 446 265 446 291 444 c 0,78,79
 319 442 319 442 333 418.5 c 128,-1,80
 347 395 347 395 350 365 c 0,81,82
 354 315 354 315 349.5 278.5 c 128,-1,83
 345 242 345 242 331.5 213 c 128,-1,84
 318 184 318 184 296 160 c 128,-1,85
 274 136 274 136 245 111 c 0,86,87
 200 73 200 73 151 48 c 128,-1,88
 102 23 102 23 51 5 c 0,89,90
 37 0 37 0 16.5 -4 c 128,-1,91
 -4 -8 -4 -8 -15 -5 c 0,59,60
203 327 m 1,92,93
 221 300 221 300 246.5 287 c 128,-1,94
 272 274 272 274 297 267 c 1,95,-1
 299 267 l 1,96,97
 299 274 299 274 300 286 c 128,-1,98
 301 298 301 298 300.5 311 c 128,-1,99
 300 324 300 324 296.5 335.5 c 128,-1,100
 293 347 293 347 284 353 c 0,101,102
 276 359 276 359 263 359 c 128,-1,103
 250 359 250 359 237.5 354.5 c 128,-1,104
 225 350 225 350 215 342.5 c 128,-1,105
 205 335 205 335 203 327 c 1,92,93
EndSplineSet
Validated: 33
EndChar

StartChar: a000
Encoding: 1632 1632 122
Width: 265
GlyphClass: 2
Flags: W
LayerCount: 2
Fore
SplineSet
40 268 m 1,0,-1
 40 274 l 1,1,2
 67 316 67 316 120 389 c 1,3,-1
 123 389 l 1,4,5
 166 341 166 341 231 303 c 0,6,7
 232 302 232 302 233 298 c 2,8,-1
 156 184 l 2,9,10
 153 182 153 182 141 186 c 0,11,12
 100 206 100 206 40 268 c 1,0,-1
EndSplineSet
Validated: 1
EndChar

StartChar: a001
Encoding: 1633 1633 123
Width: 209
GlyphClass: 2
Flags: W
LayerCount: 2
Fore
SplineSet
75 13 m 0,0,1
 79 76 79 76 78.5 136 c 128,-1,2
 78 196 78 196 75.5 250.5 c 128,-1,3
 73 305 73 305 69 353 c 128,-1,4
 65 401 65 401 61 442 c 1,5,6
 68 459 68 459 74.5 471.5 c 128,-1,7
 81 484 81 484 87 495 c 128,-1,8
 93 506 93 506 98.5 516 c 128,-1,9
 104 526 104 526 110 539 c 0,10,11
 120 558 120 558 125 554 c 128,-1,12
 130 550 130 550 134 525 c 0,13,14
 140 468 140 468 144.5 406.5 c 128,-1,15
 149 345 149 345 149.5 285.5 c 128,-1,16
 150 226 150 226 146.5 172 c 128,-1,17
 143 118 143 118 134 76 c 1,18,19
 124 57 124 57 112.5 42 c 128,-1,20
 101 27 101 27 91 13 c 0,21,22
 83 2 83 2 78.5 2 c 128,-1,23
 74 2 74 2 75 13 c 0,0,1
EndSplineSet
Validated: 33
EndChar

StartChar: a002
Encoding: 1634 1634 124
Width: 375
GlyphClass: 2
Flags: W
LayerCount: 2
Fore
SplineSet
82 12 m 0,0,1
 81 140 81 140 66 249.5 c 128,-1,2
 51 359 51 359 37 440 c 1,3,4
 43 453 43 453 54 471.5 c 128,-1,5
 65 490 65 490 76 507 c 128,-1,6
 87 524 87 524 96 536.5 c 128,-1,7
 105 549 105 549 107 549 c 0,8,9
 112 549 112 549 117.5 536.5 c 128,-1,10
 123 524 123 524 133.5 509 c 128,-1,11
 144 494 144 494 161.5 481.5 c 128,-1,12
 179 469 179 469 207 469 c 0,13,14
 222 469 222 469 238 472 c 128,-1,15
 254 475 254 475 269 483.5 c 128,-1,16
 284 492 284 492 297 505.5 c 128,-1,17
 310 519 310 519 319 540 c 0,18,19
 322 547 322 547 327.5 550.5 c 128,-1,20
 333 554 333 554 337.5 553 c 128,-1,21
 342 552 342 552 344.5 545 c 128,-1,22
 347 538 347 538 345 525 c 0,23,24
 340 497 340 497 329.5 464.5 c 128,-1,25
 319 432 319 432 301 404 c 128,-1,26
 283 376 283 376 256 357.5 c 128,-1,27
 229 339 229 339 190 339 c 0,28,29
 181 339 181 339 167.5 341.5 c 128,-1,30
 154 344 154 344 145 348 c 1,31,32
 146 313 146 313 147 276.5 c 128,-1,33
 148 240 148 240 148 204.5 c 128,-1,34
 148 169 148 169 146.5 136 c 128,-1,35
 145 103 145 103 140 77 c 1,36,37
 130 58 130 58 119 42.5 c 128,-1,38
 108 27 108 27 99 13 c 0,39,40
 91 1 91 1 86.5 1 c 128,-1,41
 82 1 82 1 82 12 c 0,0,1
EndSplineSet
Validated: 1
EndChar

StartChar: a003
Encoding: 1635 1635 125
Width: 500
GlyphClass: 2
Flags: W
LayerCount: 2
Fore
SplineSet
88 12 m 0,0,1
 88 140 88 140 74.5 249.5 c 128,-1,2
 61 359 61 359 47 440 c 1,3,4
 53 453 53 453 63.5 472.5 c 128,-1,5
 74 492 74 492 84.5 510.5 c 128,-1,6
 95 529 95 529 103.5 542.5 c 128,-1,7
 112 556 112 556 114 556 c 0,8,9
 118 556 118 556 122 542 c 128,-1,10
 126 528 126 528 134.5 511 c 128,-1,11
 143 494 143 494 159 479.5 c 128,-1,12
 175 465 175 465 204 464 c 0,13,14
 229 463 229 463 250.5 478 c 128,-1,15
 272 493 272 493 294 535 c 0,16,17
 302 549 302 549 306 545.5 c 128,-1,18
 310 542 310 542 312 534 c 0,19,20
 317 504 317 504 333.5 490 c 128,-1,21
 350 476 350 476 368.5 477 c 128,-1,22
 387 478 387 478 405 494.5 c 128,-1,23
 423 511 423 511 431 543 c 0,24,25
 433 550 433 550 437.5 553.5 c 128,-1,26
 442 557 442 557 446.5 555.5 c 128,-1,27
 451 554 451 554 453.5 548.5 c 128,-1,28
 456 543 456 543 453 533 c 0,29,30
 448 489 448 489 437.5 451 c 128,-1,31
 427 413 427 413 408 390 c 128,-1,32
 389 367 389 367 361 364 c 128,-1,33
 333 361 333 361 294 387 c 1,34,35
 279 359 279 359 259.5 344.5 c 128,-1,36
 240 330 240 330 220.5 325.5 c 128,-1,37
 201 321 201 321 182.5 325 c 128,-1,38
 164 329 164 329 150 339 c 1,39,40
 152 275 152 275 153 209 c 128,-1,41
 154 143 154 143 143 77 c 1,42,43
 134 58 134 58 123.5 42.5 c 128,-1,44
 113 27 113 27 104 13 c 0,45,46
 97 1 97 1 92.5 1 c 128,-1,47
 88 1 88 1 88 12 c 0,0,1
EndSplineSet
Validated: 33
EndChar

StartChar: a004
Encoding: 1636 1636 126
Width: 485
GlyphClass: 2
Flags: W
LayerCount: 2
Fore
SplineSet
304 409 m 1,0,1
 358 505 358 505 425 547 c 0,2,3
 431 547 431 547 436 542 c 1,4,5
 434 533 434 533 430 517.5 c 128,-1,6
 426 502 426 502 422 484.5 c 128,-1,7
 418 467 418 467 414 450.5 c 128,-1,8
 410 434 410 434 407 423 c 1,9,10
 381 403 381 403 360.5 387 c 128,-1,11
 340 371 340 371 322 353.5 c 128,-1,12
 304 336 304 336 288.5 314.5 c 128,-1,13
 273 293 273 293 258 261 c 0,14,15
 254 252 254 252 248.5 248 c 128,-1,16
 243 244 243 244 239.5 245.5 c 128,-1,17
 236 247 236 247 234.5 254 c 128,-1,18
 233 261 233 261 237 273 c 0,19,20
 244 297 244 297 245 312 c 128,-1,21
 246 327 246 327 246 330 c 0,22,23
 246 361 246 361 230 375.5 c 128,-1,24
 214 390 214 390 192 392.5 c 128,-1,25
 170 395 170 395 147.5 386 c 128,-1,26
 125 377 125 377 113 360 c 1,27,28
 115 299 115 299 115.5 227.5 c 128,-1,29
 116 156 116 156 119 93 c 0,30,31
 117 84 117 84 112 70 c 128,-1,32
 107 56 107 56 101.5 42.5 c 128,-1,33
 96 29 96 29 91 18.5 c 128,-1,34
 86 8 86 8 83 4 c 0,35,36
 77 -3 77 -3 76 10 c 0,37,38
 68 61 68 61 63 126 c 128,-1,39
 58 191 58 191 58 254 c 0,40,41
 58 299 58 299 65 348 c 128,-1,42
 72 397 72 397 88.5 437.5 c 128,-1,43
 105 478 105 478 132 504.5 c 128,-1,44
 159 531 159 531 198 531 c 0,45,46
 219 531 219 531 237.5 519 c 128,-1,47
 256 507 256 507 270 489 c 128,-1,48
 284 471 284 471 293 449.5 c 128,-1,49
 302 428 302 428 304 409 c 1,0,1
EndSplineSet
Validated: 1
EndChar

StartChar: a005
Encoding: 1637 1637 127
Width: 429
GlyphClass: 2
Flags: W
LayerCount: 2
Fore
SplineSet
219 540 m 0,0,1
 224 550 224 550 224.5 548 c 128,-1,2
 225 546 225 546 232 539 c 0,3,4
 244 524 244 524 262 503 c 128,-1,5
 280 482 280 482 300 457.5 c 128,-1,6
 320 433 320 433 339 406 c 128,-1,7
 358 379 358 379 373.5 351.5 c 128,-1,8
 389 324 389 324 398.5 298 c 128,-1,9
 408 272 408 272 407 249 c 0,10,11
 405 234 405 234 398.5 204 c 128,-1,12
 392 174 392 174 383 142.5 c 128,-1,13
 374 111 374 111 364.5 83 c 128,-1,14
 355 55 355 55 347 44 c 0,15,16
 332 23 332 23 310.5 11 c 128,-1,17
 289 -1 289 -1 268 -0.5 c 128,-1,18
 247 0 247 0 228.5 14 c 128,-1,19
 210 28 210 28 200 59 c 1,20,21
 180 27 180 27 161.5 13.5 c 128,-1,22
 143 0 143 0 112 0 c 0,23,24
 76 0 76 0 58.5 33.5 c 128,-1,25
 41 67 41 67 41 129 c 0,26,27
 41 199 41 199 59.5 255.5 c 128,-1,28
 78 312 78 312 105 360.5 c 128,-1,29
 132 409 132 409 163 452.5 c 128,-1,30
 194 496 194 496 219 540 c 0,0,1
203 198 m 0,31,32
 214 215 214 215 220 214.5 c 128,-1,33
 226 214 226 214 231 201 c 0,34,35
 234 173 234 173 249 156.5 c 128,-1,36
 264 140 264 140 283 137 c 0,37,38
 306 135 306 135 323.5 148.5 c 128,-1,39
 341 162 341 162 343 189 c 0,40,41
 344 226 344 226 326 260.5 c 128,-1,42
 308 295 308 295 284 323.5 c 128,-1,43
 260 352 260 352 236 374.5 c 128,-1,44
 212 397 212 397 200 410 c 1,45,46
 186 390 186 390 167.5 363 c 128,-1,47
 149 336 149 336 132.5 307 c 128,-1,48
 116 278 116 278 104.5 249 c 128,-1,49
 93 220 93 220 93 198 c 0,50,51
 93 142 93 142 140 142 c 0,52,53
 147 142 147 142 153.5 144 c 128,-1,54
 160 146 160 146 167 152 c 128,-1,55
 174 158 174 158 183 169 c 128,-1,56
 192 180 192 180 203 198 c 0,31,32
EndSplineSet
Validated: 33
EndChar

StartChar: a006
Encoding: 1638 1638 128
Width: 375
GlyphClass: 2
Flags: W
LayerCount: 2
Fore
SplineSet
301 12 m 0,0,1
 301 1 301 1 296.5 1 c 128,-1,2
 292 1 292 1 284 13 c 0,3,4
 275 27 275 27 264 42.5 c 128,-1,5
 253 58 253 58 243 77 c 1,6,7
 238 103 238 103 236.5 136 c 128,-1,8
 235 169 235 169 235 204.5 c 128,-1,9
 235 240 235 240 236 276.5 c 128,-1,10
 237 313 237 313 237 348 c 1,11,12
 229 344 229 344 215.5 341.5 c 128,-1,13
 202 339 202 339 193 339 c 0,14,15
 154 339 154 339 127 357.5 c 128,-1,16
 100 376 100 376 82 404 c 128,-1,17
 64 432 64 432 53.5 464.5 c 128,-1,18
 43 497 43 497 38 525 c 0,19,20
 36 538 36 538 38.5 545 c 128,-1,21
 41 552 41 552 45.5 553 c 128,-1,22
 50 554 50 554 55.5 550.5 c 128,-1,23
 61 547 61 547 64 540 c 0,24,25
 73 519 73 519 86 505.5 c 128,-1,26
 99 492 99 492 114 483.5 c 128,-1,27
 129 475 129 475 145 472 c 128,-1,28
 161 469 161 469 176 469 c 0,29,30
 204 469 204 469 221.5 481.5 c 128,-1,31
 239 494 239 494 249.5 509 c 128,-1,32
 260 524 260 524 265 536.5 c 128,-1,33
 270 549 270 549 275 549 c 0,34,35
 278 549 278 549 287 536.5 c 128,-1,36
 296 524 296 524 307 507 c 128,-1,37
 318 490 318 490 329 471.5 c 128,-1,38
 340 453 340 453 346 440 c 1,39,40
 332 359 332 359 317 249.5 c 128,-1,41
 302 140 302 140 301 12 c 0,0,1
EndSplineSet
Validated: 1
EndChar

StartChar: a007
Encoding: 1639 1639 129
Width: 477
GlyphClass: 2
Flags: W
LayerCount: 2
Fore
SplineSet
435 157 m 0,0,1
 443 157 443 157 438 134 c 0,2,3
 430 100 430 100 424.5 76 c 128,-1,4
 419 52 419 52 411 39 c 0,5,6
 409 34 409 34 405 32.5 c 128,-1,7
 401 31 401 31 397 31 c 0,8,9
 335 26 335 26 290 23.5 c 128,-1,10
 245 21 245 21 210.5 20 c 128,-1,11
 176 19 176 19 149.5 19 c 128,-1,12
 123 19 123 19 97 20 c 0,13,14
 44 23 44 23 44 52 c 0,15,16
 44 94 44 94 60.5 140.5 c 128,-1,17
 77 187 77 187 104.5 233 c 128,-1,18
 132 279 132 279 166 324 c 128,-1,19
 200 369 200 369 235.5 408.5 c 128,-1,20
 271 448 271 448 304 481 c 128,-1,21
 337 514 337 514 361 537 c 0,22,23
 364 537 364 537 366 535 c 0,24,25
 364 525 364 525 362 510 c 128,-1,26
 360 495 360 495 358 479 c 128,-1,27
 356 463 356 463 354 448 c 128,-1,28
 352 433 352 433 351 423 c 1,29,30
 317 389 317 389 282.5 351.5 c 128,-1,31
 248 314 248 314 217.5 277 c 128,-1,32
 187 240 187 240 161.5 206.5 c 128,-1,33
 136 173 136 173 121 148 c 1,34,35
 204 147 204 147 273 149 c 128,-1,36
 342 151 342 151 407 155 c 0,37,38
 414 156 414 156 421 156.5 c 128,-1,39
 428 157 428 157 435 157 c 0,0,1
EndSplineSet
Validated: 33
EndChar

StartChar: a008
Encoding: 1640 1640 130
Width: 493
GlyphClass: 2
Flags: W
LayerCount: 2
Fore
SplineSet
436 153 m 0,0,1
 436 146 436 146 421.5 107.5 c 128,-1,2
 407 69 407 69 387 11 c 1,3,4
 380 4 380 4 374 8 c 0,5,6
 332 94 332 94 288 185.5 c 128,-1,7
 244 277 244 277 206 366 c 1,8,-1
 204 366 l 1,9,10
 184 318 184 318 168.5 280 c 128,-1,11
 153 242 153 242 137 204 c 128,-1,12
 121 166 121 166 103 120.5 c 128,-1,13
 85 75 85 75 62 12 c 0,14,15
 60 6 60 6 56 6.5 c 128,-1,16
 52 7 52 7 51 12 c 0,17,18
 49 26 49 26 47.5 55.5 c 128,-1,19
 46 85 46 85 44 117 c 1,20,21
 57 158 57 158 76.5 210.5 c 128,-1,22
 96 263 96 263 118 318 c 128,-1,23
 140 373 140 373 162 425 c 128,-1,24
 184 477 184 477 202 517 c 0,25,26
 217 549 217 549 227 551.5 c 128,-1,27
 237 554 237 554 251 526 c 0,28,29
 260 508 260 508 277 474.5 c 128,-1,30
 294 441 294 441 318 393 c 128,-1,31
 342 345 342 345 371.5 284.5 c 128,-1,32
 401 224 401 224 436 153 c 0,0,1
EndSplineSet
Validated: 1
EndChar

StartChar: a009
Encoding: 1641 1641 131
Width: 335
GlyphClass: 2
Flags: W
LayerCount: 2
Fore
SplineSet
211 11 m 0,0,1
 213 65 213 65 215.5 121.5 c 128,-1,2
 218 178 218 178 216 227 c 1,3,4
 181 213 181 213 151 214 c 128,-1,5
 121 215 121 215 99.5 228.5 c 128,-1,6
 78 242 78 242 65.5 267.5 c 128,-1,7
 53 293 53 293 53 329 c 256,8,9
 53 365 53 365 60.5 405.5 c 128,-1,10
 68 446 68 446 83.5 480.5 c 128,-1,11
 99 515 99 515 123.5 537.5 c 128,-1,12
 148 560 148 560 182 560 c 0,13,14
 217 560 217 560 238 540 c 128,-1,15
 259 520 259 520 269.5 487.5 c 128,-1,16
 280 455 280 455 283 413.5 c 128,-1,17
 286 372 286 372 286 329 c 0,18,19
 286 266 286 266 282.5 202.5 c 128,-1,20
 279 139 279 139 271 92 c 0,21,22
 269 84 269 84 263.5 72.5 c 128,-1,23
 258 61 258 61 251 50 c 128,-1,24
 244 39 244 39 237.5 28.5 c 128,-1,25
 231 18 231 18 228 11 c 0,26,27
 220 -1 220 -1 215 -1 c 128,-1,28
 210 -1 210 -1 211 11 c 0,0,1
160 434 m 0,29,30
 147 434 147 434 135.5 429 c 128,-1,31
 124 424 124 424 116 417 c 128,-1,32
 108 410 108 410 103 402.5 c 128,-1,33
 98 395 98 395 98 389 c 0,34,35
 98 373 98 373 112.5 362.5 c 128,-1,36
 127 352 127 352 147.5 349 c 128,-1,37
 168 346 168 346 190.5 351.5 c 128,-1,38
 213 357 213 357 228 372 c 1,39,40
 228 393 228 393 212 413.5 c 128,-1,41
 196 434 196 434 160 434 c 0,29,30
EndSplineSet
Validated: 33
EndChar

StartChar: bsa
Encoding: 1646 1646 136
Width: 1526
GlyphClass: 2
Flags: W
LayerCount: 2
Fore
SplineSet
1290 692 m 2,0,1
 1296 709 1296 709 1315 690 c 0,2,3
 1369 633 1369 633 1405.5 562 c 128,-1,4
 1442 491 1442 491 1448 416 c 0,5,6
 1449 395 1449 395 1447.5 363 c 128,-1,7
 1446 331 1446 331 1440.5 299.5 c 128,-1,8
 1435 268 1435 268 1423.5 241.5 c 128,-1,9
 1412 215 1412 215 1393 205 c 0,10,11
 1278 141 1278 141 1162 100.5 c 128,-1,12
 1046 60 1046 60 915 37 c 0,13,14
 786 13 786 13 663.5 3 c 128,-1,15
 541 -7 541 -7 410 6 c 0,16,17
 339 13 339 13 276.5 37 c 128,-1,18
 214 61 214 61 167.5 102.5 c 128,-1,19
 121 144 121 144 94 202.5 c 128,-1,20
 67 261 67 261 67 338 c 0,21,22
 67 466 67 466 153 586 c 0,23,24
 163 597 163 597 174 588 c 128,-1,25
 185 579 185 579 180 563 c 0,26,27
 143 497 143 497 141 426.5 c 128,-1,28
 139 356 139 356 169 299 c 0,29,30
 198 246 198 246 242.5 217.5 c 128,-1,31
 287 189 287 189 340 175 c 128,-1,32
 393 161 393 161 451 158.5 c 128,-1,33
 509 156 509 156 565 156 c 0,34,35
 670 156 670 156 769 165.5 c 128,-1,36
 868 175 868 175 965 194 c 0,37,38
 1061 214 1061 214 1157 244 c 128,-1,39
 1253 274 1253 274 1352 315 c 0,40,41
 1383 328 1383 328 1378 354 c 0,42,43
 1360 414 1360 414 1323 464 c 128,-1,44
 1286 514 1286 514 1241 559 c 1,45,-1
 1290 692 l 2,0,1
EndSplineSet
Validated: 33
Substitution2: "'medi' Medial Forms in Arabic lookup 2 subtable" bsm
Substitution2: "'init' Initial Forms in Arabic lookup 1 subtable" bsi
EndChar

StartChar: uni0670
Encoding: 1648 1648 138
Width: 0
GlyphClass: 4
Flags: W
AnchorPoint: "Anchor-66" 272 664 mark 0
AnchorPoint: "Anchor-65" 275 625 basemark 0
AnchorPoint: "Anchor-64" 0 0 basemark 0
AnchorPoint: "Anchor-63" 0 0 basemark 0
AnchorPoint: "Anchor-62" 0 0 basemark 0
AnchorPoint: "Anchor-65" 255 -30 mark 0
AnchorPoint: "Anchor-56" 225 0 mark 0
AnchorPoint: "Anchor-51" 225 0 mark 0
AnchorPoint: "Anchor-47" 225 0 mark 0
AnchorPoint: "Anchor-43" 225 0 mark 0
AnchorPoint: "Anchor-39" 225 0 mark 0
AnchorPoint: "Anchor-34" 225 0 mark 0
AnchorPoint: "Anchor-30" 225 0 mark 0
AnchorPoint: "Anchor-25" 225 0 mark 0
AnchorPoint: "Anchor-21" 225 0 mark 0
AnchorPoint: "Anchor-17" 225 0 mark 0
AnchorPoint: "Anchor-13" 225 0 mark 0
AnchorPoint: "Anchor-9" 225 0 mark 0
AnchorPoint: "Anchor-6" 225 0 mark 0
AnchorPoint: "Anchor-1" 225 0 mark 0
LayerCount: 2
Fore
SplineSet
236 536 m 256,0,1
 240 536 240 536 246 526 c 0,2,3
 303 451 303 451 325 363.5 c 128,-1,4
 347 276 347 276 333 170 c 0,5,6
 328 146 328 146 319 117.5 c 128,-1,7
 310 89 310 89 298 64.5 c 128,-1,8
 286 40 286 40 272.5 23 c 128,-1,9
 259 6 259 6 246 6 c 0,10,11
 237 6 237 6 235.5 14 c 128,-1,12
 234 22 234 22 235.5 34 c 128,-1,13
 237 46 237 46 240.5 59 c 128,-1,14
 244 72 244 72 246 82 c 0,15,16
 262 167 262 167 243.5 258.5 c 128,-1,17
 225 350 225 350 164 431 c 0,18,19
 164 435 164 435 173.5 452 c 128,-1,20
 183 469 183 469 195.5 487.5 c 128,-1,21
 208 506 208 506 220 521 c 128,-1,22
 232 536 232 536 236 536 c 256,0,1
EndSplineSet
Validated: 33
EndChar

StartChar: uni0671
Encoding: 1649 1649 139
Width: 438
GlyphClass: 2
Flags: W
AnchorPoint: "Cursive-59" 300 0 entry 0
LayerCount: 2
Fore
SplineSet
422 1653 m 0,0,1
 400 1675 400 1675 374 1669 c 128,-1,2
 348 1663 348 1663 326 1645 c 0,3,4
 317 1639 317 1639 303.5 1622.5 c 128,-1,5
 290 1606 290 1606 278 1588 c 128,-1,6
 266 1570 266 1570 258.5 1555.5 c 128,-1,7
 251 1541 251 1541 254 1538 c 0,8,9
 263 1533 263 1533 279 1534.5 c 128,-1,10
 295 1536 295 1536 312 1540 c 128,-1,11
 329 1544 329 1544 343.5 1549 c 128,-1,12
 358 1554 358 1554 365 1556 c 0,13,14
 391 1569 391 1569 409.5 1581 c 128,-1,15
 428 1593 428 1593 443 1614 c 1,16,17
 443 1624 443 1624 435.5 1633 c 128,-1,18
 428 1642 428 1642 422 1653 c 0,0,1
203 1542 m 1,19,20
 213 1561 213 1561 226.5 1584.5 c 128,-1,21
 240 1608 240 1608 258 1634 c 0,22,23
 277 1659 277 1659 293.5 1681.5 c 128,-1,24
 310 1704 310 1704 328 1722 c 128,-1,25
 346 1740 346 1740 367 1751.5 c 128,-1,26
 388 1763 388 1763 416 1765 c 1,27,28
 447 1759 447 1759 464 1737 c 128,-1,29
 481 1715 481 1715 486.5 1686.5 c 128,-1,30
 492 1658 492 1658 487 1628.5 c 128,-1,31
 482 1599 482 1599 469 1579 c 0,32,33
 441 1528 441 1528 387 1489 c 0,34,35
 324 1445 324 1445 246 1438 c 0,36,37
 209 1434 209 1434 167 1443 c 128,-1,38
 125 1452 125 1452 90 1475 c 0,39,40
 84 1477 84 1477 76 1468.5 c 128,-1,41
 68 1460 68 1460 59 1447 c 128,-1,42
 50 1434 50 1434 41 1419.5 c 128,-1,43
 32 1405 32 1405 25 1395 c 0,44,45
 15 1382 15 1382 6.5 1385.5 c 128,-1,46
 -2 1389 -2 1389 -2 1399 c 0,47,48
 2 1414 2 1414 10 1434 c 128,-1,49
 18 1454 18 1454 27.5 1474 c 128,-1,50
 37 1494 37 1494 47 1513 c 128,-1,51
 57 1532 57 1532 66 1546 c 0,52,53
 74 1561 74 1561 85 1572 c 128,-1,54
 96 1583 96 1583 115 1575 c 0,55,56
 119 1571 119 1571 130.5 1565.5 c 128,-1,57
 142 1560 142 1560 156 1554.5 c 128,-1,58
 170 1549 170 1549 183 1545.5 c 128,-1,59
 196 1542 196 1542 203 1542 c 1,19,20
202 1304 m 0,60,61
 208 1304 208 1304 210.5 1299 c 128,-1,62
 213 1294 213 1294 214.5 1288 c 128,-1,63
 216 1282 216 1282 216 1275.5 c 128,-1,64
 216 1269 216 1269 216 1266 c 0,65,66
 213 1228 213 1228 215 1191.5 c 128,-1,67
 217 1155 217 1155 221 1118 c 0,68,69
 229 1029 229 1029 240 934 c 128,-1,70
 251 839 251 839 262.5 743 c 128,-1,71
 274 647 274 647 284.5 552 c 128,-1,72
 295 457 295 457 302 367 c 0,73,74
 305 332 305 332 305 284.5 c 128,-1,75
 305 237 305 237 301 188.5 c 128,-1,76
 297 140 297 140 287.5 96 c 128,-1,77
 278 52 278 52 263 22 c 0,78,79
 258 14 258 14 253 8 c 128,-1,80
 248 2 248 2 243 0 c 0,81,82
 235 -2 235 -2 235 8 c 0,83,84
 231 95 231 95 225 184 c 128,-1,85
 219 273 219 273 209 365 c 0,86,87
 187 556 187 556 167 741 c 128,-1,88
 147 926 147 926 127 1115 c 1,89,90
 129 1138 129 1138 137 1162 c 128,-1,91
 145 1186 145 1186 156 1212 c 0,92,93
 162 1226 162 1226 169 1242.5 c 128,-1,94
 176 1259 176 1259 182.5 1272.5 c 128,-1,95
 189 1286 189 1286 194 1295 c 128,-1,96
 199 1304 199 1304 202 1304 c 0,60,61
EndSplineSet
Validated: 33
Substitution2: "'fina' Terminal Forms in Arabic lookup 3 subtable" uni0671.zz04
EndChar

StartChar: uni06D4
Encoding: 1748 1748 238
Width: 337
GlyphClass: 2
Flags: W
LayerCount: 2
Fore
SplineSet
27 315 m 1,0,-1
 320 315 l 1,1,-1
 320 24 l 1,2,-1
 27 24 l 1,3,-1
 27 315 l 1,0,-1
EndSplineSet
Validated: 1
EndChar

StartChar: uni06D6
Encoding: 1750 1750 240
Width: 720
GlyphClass: 2
Flags: W
LayerCount: 2
Fore
SplineSet
275 1882 m 1,0,1
 286 1899 286 1899 302 1922.5 c 128,-1,2
 318 1946 318 1946 338 1971 c 128,-1,3
 358 1996 358 1996 380.5 2019 c 128,-1,4
 403 2042 403 2042 425 2055 c 0,5,6
 449 2069 449 2069 481 2070.5 c 128,-1,7
 513 2072 513 2072 540.5 2060.5 c 128,-1,8
 568 2049 568 2049 586.5 2027.5 c 128,-1,9
 605 2006 605 2006 604 1975 c 0,10,11
 599 1919 599 1919 582 1883.5 c 128,-1,12
 565 1848 565 1848 535.5 1827 c 128,-1,13
 506 1806 506 1806 468 1795.5 c 128,-1,14
 430 1785 430 1785 386 1781 c 0,15,16
 360 1778 360 1778 331 1779 c 128,-1,17
 302 1780 302 1780 275.5 1786.5 c 128,-1,18
 249 1793 249 1793 227 1806 c 128,-1,19
 205 1819 205 1819 191 1842 c 1,20,21
 170 1805 170 1805 143 1787.5 c 128,-1,22
 116 1770 116 1770 89 1770.5 c 128,-1,23
 62 1771 62 1771 39 1789.5 c 128,-1,24
 16 1808 16 1808 6 1839 c 1,25,26
 3 1829 3 1829 -5.5 1811 c 128,-1,27
 -14 1793 -14 1793 -23 1781 c 0,28,29
 -37 1765 -37 1765 -52 1755 c 128,-1,30
 -67 1745 -67 1745 -82 1738.5 c 128,-1,31
 -97 1732 -97 1732 -111 1726.5 c 128,-1,32
 -125 1721 -125 1721 -134 1715 c 0,33,34
 -138 1712 -138 1712 -142 1707.5 c 128,-1,35
 -146 1703 -146 1703 -147.5 1698.5 c 128,-1,36
 -149 1694 -149 1694 -144.5 1690 c 128,-1,37
 -140 1686 -140 1686 -129 1681 c 0,38,39
 -110 1675 -110 1675 -67.5 1672.5 c 128,-1,40
 -25 1670 -25 1670 33.5 1669 c 128,-1,41
 92 1668 92 1668 161 1669.5 c 128,-1,42
 230 1671 230 1671 300 1672.5 c 128,-1,43
 370 1674 370 1674 438 1675 c 128,-1,44
 506 1676 506 1676 564 1676 c 0,45,46
 568 1675 568 1675 564 1665 c 0,47,48
 556 1649 556 1649 550 1630.5 c 128,-1,49
 544 1612 544 1612 536 1600 c 1,50,51
 484 1598 484 1598 439.5 1597 c 128,-1,52
 395 1596 395 1596 353.5 1594 c 128,-1,53
 312 1592 312 1592 269 1590.5 c 128,-1,54
 226 1589 226 1589 179 1588 c 0,55,56
 99 1586 99 1586 29.5 1584.5 c 128,-1,57
 -40 1583 -40 1583 -91 1590 c 128,-1,58
 -142 1597 -142 1597 -171.5 1615.5 c 128,-1,59
 -201 1634 -201 1634 -201 1674 c 0,60,61
 -201 1710 -201 1710 -188 1733.5 c 128,-1,62
 -175 1757 -175 1757 -154.5 1775 c 128,-1,63
 -134 1793 -134 1793 -108 1807.5 c 128,-1,64
 -82 1822 -82 1822 -54 1836 c 0,65,66
 -37 1846 -37 1846 -30 1861.5 c 128,-1,67
 -23 1877 -23 1877 -19 1890 c 1,68,69
 -20 1919 -20 1919 -22 1949.5 c 128,-1,70
 -24 1980 -24 1980 -26 2013 c 128,-1,71
 -28 2046 -28 2046 -30 2086 c 128,-1,72
 -32 2126 -32 2126 -37 2174 c 0,73,74
 -37 2184 -37 2184 -34 2187 c 2,75,-1
 1 2230 l 2,76,77
 3 2233 3 2233 6 2232 c 128,-1,78
 9 2231 9 2231 9 2228 c 0,79,80
 16 2143 16 2143 21.5 2065.5 c 128,-1,81
 27 1988 27 1988 33 1931 c 0,82,83
 37 1896 37 1896 59 1880 c 128,-1,84
 81 1864 81 1864 107 1868 c 128,-1,85
 133 1872 133 1872 155.5 1893.5 c 128,-1,86
 178 1915 178 1915 183 1954 c 0,87,88
 185 1964 185 1964 192 1966.5 c 128,-1,89
 199 1969 199 1969 201 1963 c 0,90,91
 206 1950 206 1950 210.5 1937 c 128,-1,92
 215 1924 215 1924 224 1912 c 128,-1,93
 233 1900 233 1900 245.5 1892 c 128,-1,94
 258 1884 258 1884 275 1882 c 1,0,1
552 1930 m 1,95,96
 525 1961 525 1961 492.5 1966 c 128,-1,97
 460 1971 460 1971 427.5 1960.5 c 128,-1,98
 395 1950 395 1950 367 1926.5 c 128,-1,99
 339 1903 339 1903 320 1876 c 1,100,101
 350 1874 350 1874 382 1875 c 128,-1,102
 414 1876 414 1876 445 1882.5 c 128,-1,103
 476 1889 476 1889 503.5 1901 c 128,-1,104
 531 1913 531 1913 552 1930 c 1,95,96
EndSplineSet
Validated: 33
EndChar

StartChar: uni06D7
Encoding: 1751 1751 241
Width: 79
GlyphClass: 4
Flags: W
LayerCount: 2
Fore
SplineSet
-269 2150 m 1,0,1
 -281 2131 -281 2131 -284.5 2114.5 c 128,-1,2
 -288 2098 -288 2098 -285 2086 c 0,3,4
 -280 2062 -280 2062 -275.5 2034.5 c 128,-1,5
 -271 2007 -271 2007 -268 1972 c 128,-1,6
 -265 1937 -265 1937 -268.5 1892.5 c 128,-1,7
 -272 1848 -272 1848 -285 1791 c 1,8,9
 -256 1817 -256 1817 -220 1842 c 128,-1,10
 -184 1867 -184 1867 -148 1880 c 0,11,12
 -122 1886 -122 1886 -87.5 1879.5 c 128,-1,13
 -53 1873 -53 1873 -23.5 1856 c 128,-1,14
 6 1839 6 1839 26 1814 c 128,-1,15
 46 1789 46 1789 45 1760 c 0,16,17
 44 1740 44 1740 39 1717 c 128,-1,18
 34 1694 34 1694 23.5 1673.5 c 128,-1,19
 13 1653 13 1653 -2 1634.5 c 128,-1,20
 -17 1616 -17 1616 -35 1608 c 0,21,22
 -73 1589 -73 1589 -128 1578 c 128,-1,23
 -183 1567 -183 1567 -242.5 1563 c 128,-1,24
 -302 1559 -302 1559 -362 1561.5 c 128,-1,25
 -422 1564 -422 1564 -469 1570 c 0,26,27
 -483 1571 -483 1571 -493.5 1576 c 128,-1,28
 -504 1581 -504 1581 -516 1592.5 c 128,-1,29
 -528 1604 -528 1604 -542 1623 c 128,-1,30
 -556 1642 -556 1642 -575 1674 c 0,31,32
 -580 1684 -580 1684 -575.5 1684 c 128,-1,33
 -571 1684 -571 1684 -564 1684 c 0,34,35
 -547 1682 -547 1682 -504 1679 c 128,-1,36
 -461 1676 -461 1676 -419 1673 c 1,37,38
 -398 1691 -398 1691 -381 1713.5 c 128,-1,39
 -364 1736 -364 1736 -342 1758 c 0,40,41
 -334 1770 -334 1770 -331.5 1797 c 128,-1,42
 -329 1824 -329 1824 -330 1858.5 c 128,-1,43
 -331 1893 -331 1893 -334 1931 c 128,-1,44
 -337 1969 -337 1969 -341 2002 c 128,-1,45
 -345 2035 -345 2035 -350 2061.5 c 128,-1,46
 -355 2088 -355 2088 -360 2097 c 0,47,48
 -365 2113 -365 2113 -370.5 2130 c 128,-1,49
 -376 2147 -376 2147 -384 2158 c 0,50,51
 -390 2164 -390 2164 -390 2166.5 c 128,-1,52
 -390 2169 -390 2169 -384 2175 c 0,53,54
 -379 2180 -379 2180 -373 2190.5 c 128,-1,55
 -367 2201 -367 2201 -360 2212 c 128,-1,56
 -353 2223 -353 2223 -347.5 2233.5 c 128,-1,57
 -342 2244 -342 2244 -337 2251 c 0,58,59
 -337 2256 -337 2256 -333.5 2258 c 128,-1,60
 -330 2260 -330 2260 -324 2251 c 0,61,62
 -318 2228 -318 2228 -302.5 2197.5 c 128,-1,63
 -287 2167 -287 2167 -269 2150 c 1,0,1
-41 1717 m 1,64,65
 -53 1731 -53 1731 -69.5 1742 c 128,-1,66
 -86 1753 -86 1753 -104.5 1760.5 c 128,-1,67
 -123 1768 -123 1768 -142 1769.5 c 128,-1,68
 -161 1771 -161 1771 -175 1769 c 0,69,70
 -197 1764 -197 1764 -220 1754 c 128,-1,71
 -243 1744 -243 1744 -265 1730 c 128,-1,72
 -287 1716 -287 1716 -307.5 1699.5 c 128,-1,73
 -328 1683 -328 1683 -343 1667 c 1,74,75
 -298 1666 -298 1666 -253.5 1669.5 c 128,-1,76
 -209 1673 -209 1673 -169 1678.5 c 128,-1,77
 -129 1684 -129 1684 -96.5 1693.5 c 128,-1,78
 -64 1703 -64 1703 -41 1717 c 1,64,65
EndSplineSet
Validated: 33
EndChar

StartChar: uni06D8
Encoding: 1752 1752 242
Width: 106
GlyphClass: 4
Flags: W
LayerCount: 2
Fore
SplineSet
-51 1903 m 1,0,1
 -51 1914 -51 1914 -56.5 1930.5 c 128,-1,2
 -62 1947 -62 1947 -71.5 1961 c 128,-1,3
 -81 1975 -81 1975 -92 1986.5 c 128,-1,4
 -103 1998 -103 1998 -112 2000 c 0,5,6
 -123 2002 -123 2002 -135.5 1999.5 c 128,-1,7
 -148 1997 -148 1997 -160 1991.5 c 128,-1,8
 -172 1986 -172 1986 -182 1978 c 128,-1,9
 -192 1970 -192 1970 -195 1962 c 1,10,11
 -191 1958 -191 1958 -173 1949 c 128,-1,12
 -155 1940 -155 1940 -134.5 1930.5 c 128,-1,13
 -114 1921 -114 1921 -91 1912.5 c 128,-1,14
 -68 1904 -68 1904 -51 1903 c 1,0,1
-271 1879 m 1,15,16
 -285 1887 -285 1887 -286 1904.5 c 128,-1,17
 -287 1922 -287 1922 -280.5 1944 c 128,-1,18
 -274 1966 -274 1966 -260 1989.5 c 128,-1,19
 -246 2013 -246 2013 -233 2033 c 0,20,21
 -220 2051 -220 2051 -202.5 2068.5 c 128,-1,22
 -185 2086 -185 2086 -164.5 2099.5 c 128,-1,23
 -144 2113 -144 2113 -121.5 2120.5 c 128,-1,24
 -99 2128 -99 2128 -75 2125 c 0,25,26
 -55 2122 -55 2122 -36.5 2094 c 128,-1,27
 -18 2066 -18 2066 -3.5 2027.5 c 128,-1,28
 11 1989 11 1989 17.5 1946.5 c 128,-1,29
 24 1904 24 1904 17 1875 c 0,30,31
 16 1868 16 1868 8.5 1853 c 128,-1,32
 1 1838 1 1838 -8 1820.5 c 128,-1,33
 -17 1803 -17 1803 -24.5 1790.5 c 128,-1,34
 -32 1778 -32 1778 -36 1778 c 0,35,36
 -90 1783 -90 1783 -138 1804 c 128,-1,37
 -186 1825 -186 1825 -214 1841 c 1,38,39
 -231 1820 -231 1820 -249.5 1799 c 128,-1,40
 -268 1778 -268 1778 -285 1760.5 c 128,-1,41
 -302 1743 -302 1743 -315.5 1730 c 128,-1,42
 -329 1717 -329 1717 -338 1710 c 0,43,44
 -347 1706 -347 1706 -379 1701.5 c 128,-1,45
 -411 1697 -411 1697 -451 1693 c 128,-1,46
 -491 1689 -491 1689 -530.5 1686 c 128,-1,47
 -570 1683 -570 1683 -588 1681 c 0,48,49
 -601 1682 -601 1682 -605.5 1694 c 128,-1,50
 -610 1706 -610 1706 -595 1712 c 0,51,52
 -553 1730 -553 1730 -505.5 1751.5 c 128,-1,53
 -458 1773 -458 1773 -413.5 1794.5 c 128,-1,54
 -369 1816 -369 1816 -332 1838 c 128,-1,55
 -295 1860 -295 1860 -271 1879 c 1,15,16
EndSplineSet
Validated: 33
EndChar

StartChar: uni06D9
Encoding: 1753 1753 243
Width: 134
GlyphClass: 4
Flags: W
AnchorPoint: "Anchor-66" -15 1260 mark 0
LayerCount: 2
Fore
SplineSet
1 2116 m 0,0,1
 58 2111 58 2111 120 2109 c 128,-1,2
 182 2107 182 2107 241 2111.5 c 128,-1,3
 300 2116 300 2116 350.5 2128 c 128,-1,4
 401 2140 401 2140 434 2166 c 0,5,6
 441 2172 441 2172 446 2173.5 c 128,-1,7
 451 2175 451 2175 451 2164 c 0,8,9
 452 2150 452 2150 456.5 2136 c 128,-1,10
 461 2122 461 2122 469 2112 c 128,-1,11
 477 2102 477 2102 490 2096.5 c 128,-1,12
 503 2091 503 2091 524 2092 c 0,13,14
 560 2092 560 2092 571.5 2109 c 128,-1,15
 583 2126 583 2126 585 2170 c 0,16,17
 585 2177 585 2177 591 2182.5 c 128,-1,18
 597 2188 597 2188 604.5 2189.5 c 128,-1,19
 612 2191 612 2191 617.5 2189 c 128,-1,20
 623 2187 623 2187 623 2179 c 0,21,22
 625 2124 625 2124 618.5 2087.5 c 128,-1,23
 612 2051 612 2051 598 2021 c 0,24,25
 583 1992 583 1992 556.5 1977 c 128,-1,26
 530 1962 530 1962 503.5 1965 c 128,-1,27
 477 1968 477 1968 453 1991.5 c 128,-1,28
 429 2015 429 2015 422 2061 c 1,29,30
 368 2030 368 2030 307 2019.5 c 128,-1,31
 246 2009 246 2009 186.5 2014 c 128,-1,32
 127 2019 127 2019 75 2036.5 c 128,-1,33
 23 2054 23 2054 -10 2081 c 0,34,35
 -20 2090 -20 2090 -16.5 2104 c 128,-1,36
 -13 2118 -13 2118 1 2116 c 0,0,1
EndSplineSet
Validated: 33
EndChar

StartChar: uni06DA
Encoding: 1754 1754 244
Width: 97
GlyphClass: 4
Flags: W
LayerCount: 2
Fore
SplineSet
-212 1936 m 2,0,-1
 -133 1878 l 1,1,2
 -129 1869 -129 1869 -132 1866 c 2,3,-1
 -180 1798 l 2,4,5
 -187 1790 -187 1790 -193 1797 c 2,6,-1
 -272 1857 l 2,7,8
 -277 1857 -277 1857 -273 1865 c 2,9,-1
 -223 1934 l 2,10,11
 -221 1936 -221 1936 -217.5 1936 c 128,-1,12
 -214 1936 -214 1936 -212 1936 c 2,0,-1
5 1674 m 0,13,14
 13 1674 13 1674 13.5 1669 c 128,-1,15
 14 1664 14 1664 11 1658 c 128,-1,16
 8 1652 8 1652 3 1647 c 128,-1,17
 -2 1642 -2 1642 -5 1641 c 0,18,19
 -17 1634 -17 1634 -36.5 1623.5 c 128,-1,20
 -56 1613 -56 1613 -78 1601 c 128,-1,21
 -100 1589 -100 1589 -123.5 1579 c 128,-1,22
 -147 1569 -147 1569 -166 1567 c 0,23,24
 -234 1557 -234 1557 -295 1565 c 128,-1,25
 -356 1573 -356 1573 -402.5 1602 c 128,-1,26
 -449 1631 -449 1631 -476 1681 c 128,-1,27
 -503 1731 -503 1731 -503 1804 c 0,28,29
 -503 1848 -503 1848 -490 1891 c 128,-1,30
 -477 1934 -477 1934 -452.5 1973.5 c 128,-1,31
 -428 2013 -428 2013 -393.5 2046 c 128,-1,32
 -359 2079 -359 2079 -318 2101 c 1,33,34
 -336 2102 -336 2102 -362 2104 c 128,-1,35
 -388 2106 -388 2106 -413.5 2105.5 c 128,-1,36
 -439 2105 -439 2105 -462 2099 c 128,-1,37
 -485 2093 -485 2093 -500 2080 c 0,38,39
 -505 2072 -505 2072 -508 2077 c 128,-1,40
 -511 2082 -511 2082 -511 2085 c 0,41,42
 -511 2099 -511 2099 -507 2118 c 128,-1,43
 -503 2137 -503 2137 -494 2155.5 c 128,-1,44
 -485 2174 -485 2174 -472.5 2188 c 128,-1,45
 -460 2202 -460 2202 -444 2207 c 0,46,47
 -420 2216 -420 2216 -382 2212 c 128,-1,48
 -344 2208 -344 2208 -294.5 2202.5 c 128,-1,49
 -245 2197 -245 2197 -188 2191 c 128,-1,50
 -131 2185 -131 2185 -66 2188 c 1,51,52
 -72 2167 -72 2167 -82.5 2136 c 128,-1,53
 -93 2105 -93 2105 -99 2085 c 1,54,55
 -164 2079 -164 2079 -228 2055.5 c 128,-1,56
 -292 2032 -292 2032 -342.5 1996 c 128,-1,57
 -393 1960 -393 1960 -424.5 1915 c 128,-1,58
 -456 1870 -456 1870 -456 1821 c 0,59,60
 -456 1780 -456 1780 -436 1754 c 128,-1,61
 -416 1728 -416 1728 -385.5 1710.5 c 128,-1,62
 -355 1693 -355 1693 -316.5 1684.5 c 128,-1,63
 -278 1676 -278 1676 -242 1673 c 0,64,65
 -173 1667 -173 1667 -114 1668.5 c 128,-1,66
 -55 1670 -55 1670 5 1674 c 0,13,14
EndSplineSet
Validated: 33
EndChar

StartChar: uni06DB
Encoding: 1755 1755 245
Width: 0
GlyphClass: 4
Flags: W
LayerCount: 2
Fore
SplineSet
135 1668 m 2,0,-1
 258 1576 l 2,1,2
 264 1573 264 1573 263 1568.5 c 128,-1,3
 262 1564 262 1564 260 1561 c 2,4,-1
 184 1455 l 2,5,6
 175 1446 175 1446 167 1453 c 2,7,-1
 44 1544 l 2,8,9
 36 1548 36 1548 43 1560 c 2,10,-1
 120 1665 l 2,11,12
 127 1673 127 1673 135 1668 c 2,0,-1
373 1667 m 2,13,-1
 496 1575 l 2,14,15
 502 1572 502 1572 501 1567.5 c 128,-1,16
 500 1563 500 1563 498 1560 c 2,17,-1
 422 1454 l 2,18,19
 413 1445 413 1445 405 1452 c 2,20,-1
 282 1543 l 2,21,22
 274 1547 274 1547 281 1559 c 2,23,-1
 358 1664 l 2,24,25
 365 1672 365 1672 373 1667 c 2,13,-1
223 1872 m 2,26,-1
 346 1780 l 2,27,28
 352 1777 352 1777 351 1772.5 c 128,-1,29
 350 1768 350 1768 348 1765 c 2,30,-1
 272 1659 l 2,31,32
 263 1650 263 1650 255 1657 c 2,33,-1
 132 1748 l 2,34,35
 124 1752 124 1752 131 1764 c 2,36,-1
 208 1869 l 2,37,38
 215 1877 215 1877 223 1872 c 2,26,-1
EndSplineSet
Validated: 1
EndChar

StartChar: uni06DC
Encoding: 1756 1756 246
Width: 274
GlyphClass: 4
Flags: W
AnchorPoint: "Anchor-65" 0 0 basemark 0
AnchorPoint: "Anchor-64" 0 0 basemark 0
AnchorPoint: "Anchor-63" 0 0 basemark 0
AnchorPoint: "Anchor-62" -50 1825 basemark 0
AnchorPoint: "Anchor-64" 50 900 mark 0
AnchorPoint: "Anchor-55" 75 1400 mark 0
AnchorPoint: "Anchor-50" 75 1400 mark 0
AnchorPoint: "Anchor-46" 75 1400 mark 0
AnchorPoint: "Anchor-42" 75 1400 mark 0
AnchorPoint: "Anchor-38" 75 1400 mark 0
AnchorPoint: "Anchor-33" 75 1400 mark 0
AnchorPoint: "Anchor-29" 75 1400 mark 0
AnchorPoint: "Anchor-24" 75 1400 mark 0
AnchorPoint: "Anchor-20" 75 1400 mark 0
AnchorPoint: "Anchor-16" 75 1400 mark 0
AnchorPoint: "Anchor-12" 75 1400 mark 0
AnchorPoint: "Anchor-8" 75 1400 mark 0
AnchorPoint: "Anchor-5" 75 1400 mark 0
AnchorPoint: "Anchor-0" 75 1400 mark 0
LayerCount: 2
Fore
SplineSet
-97 1606 m 1,0,1
 -85 1597 -85 1597 -68.5 1593.5 c 128,-1,2
 -52 1590 -52 1590 -34 1591 c 128,-1,3
 -16 1592 -16 1592 0.5 1596 c 128,-1,4
 17 1600 17 1600 28 1608 c 0,5,6
 51 1623 51 1623 67 1644 c 128,-1,7
 83 1665 83 1665 99 1698 c 0,8,9
 108 1708 108 1708 117 1705 c 128,-1,10
 126 1702 126 1702 126 1692 c 0,11,12
 122 1677 122 1677 118 1669 c 128,-1,13
 114 1661 114 1661 110 1646 c 1,14,15
 116 1640 116 1640 131.5 1632 c 128,-1,16
 147 1624 147 1624 165.5 1617.5 c 128,-1,17
 184 1611 184 1611 201.5 1608 c 128,-1,18
 219 1605 219 1605 228 1610 c 1,19,20
 228 1628 228 1628 221 1647.5 c 128,-1,21
 214 1667 214 1667 206 1685 c 1,22,23
 210 1700 210 1700 217.5 1714 c 128,-1,24
 225 1728 225 1728 236 1743 c 0,25,26
 238 1748 238 1748 241 1743 c 0,27,28
 255 1710 255 1710 263 1676 c 128,-1,29
 271 1642 271 1642 259 1608 c 2,30,-1
 243 1560 l 2,31,32
 232 1534 232 1534 208 1528 c 0,33,34
 196 1524 196 1524 177.5 1527.5 c 128,-1,35
 159 1531 159 1531 140 1539 c 128,-1,36
 121 1547 121 1547 104 1557 c 128,-1,37
 87 1567 87 1567 79 1575 c 1,38,39
 52 1536 52 1536 17.5 1520.5 c 128,-1,40
 -17 1505 -17 1505 -66 1507 c 1,41,42
 -62 1481 -62 1481 -62 1453 c 128,-1,43
 -62 1425 -62 1425 -68 1397 c 0,44,45
 -79 1355 -79 1355 -110 1323.5 c 128,-1,46
 -141 1292 -141 1292 -181.5 1271.5 c 128,-1,47
 -222 1251 -222 1251 -267 1241 c 128,-1,48
 -312 1231 -312 1231 -351 1231 c 0,49,50
 -434 1231 -434 1231 -486 1276 c 0,51,52
 -542 1323 -542 1323 -542 1401 c 0,53,54
 -542 1423 -542 1423 -537 1447 c 128,-1,55
 -532 1471 -532 1471 -523 1493.5 c 128,-1,56
 -514 1516 -514 1516 -502.5 1536.5 c 128,-1,57
 -491 1557 -491 1557 -478 1573 c 0,58,59
 -473 1578 -473 1578 -469 1574 c 128,-1,60
 -465 1570 -465 1570 -468 1565 c 0,61,62
 -495 1522 -495 1522 -503 1458 c 0,63,64
 -507 1427 -507 1427 -498.5 1399.5 c 128,-1,65
 -490 1372 -490 1372 -466 1350 c 0,66,67
 -433 1321 -433 1321 -388.5 1314.5 c 128,-1,68
 -344 1308 -344 1308 -302 1313 c 0,69,70
 -274 1317 -274 1317 -246 1324 c 128,-1,71
 -218 1331 -218 1331 -189 1345 c 256,72,73
 -160 1359 -160 1359 -139 1378 c 128,-1,74
 -118 1397 -118 1397 -101 1423 c 1,75,76
 -103 1472 -103 1472 -124.5 1514 c 128,-1,77
 -146 1556 -146 1556 -171 1599 c 1,78,79
 -167 1618 -167 1618 -159.5 1632 c 128,-1,80
 -152 1646 -152 1646 -146 1667 c 1,81,82
 -140 1673 -140 1673 -138 1667 c 0,83,84
 -126 1651 -126 1651 -115.5 1634.5 c 128,-1,85
 -105 1618 -105 1618 -97 1606 c 1,0,1
EndSplineSet
Validated: 33
EndChar

StartChar: uni06DD
Encoding: 1757 1757 247
Width: 1552
GlyphClass: 2
Flags: W
LayerCount: 2
Fore
SplineSet
321 768 m 1,0,1
 338 794 338 794 359 815 c 128,-1,2
 380 836 380 836 396 847 c 0,3,4
 435 867 435 867 474.5 878.5 c 128,-1,5
 514 890 514 890 550 890 c 0,6,7
 563 890 563 890 580 888 c 128,-1,8
 597 886 597 886 612.5 880 c 128,-1,9
 628 874 628 874 640.5 863.5 c 128,-1,10
 653 853 653 853 657 837 c 1,11,12
 649 841 649 841 630 839.5 c 128,-1,13
 611 838 611 838 599 825 c 0,14,15
 586 811 586 811 586 797.5 c 128,-1,16
 586 784 586 784 595 773.5 c 128,-1,17
 604 763 604 763 619 756.5 c 128,-1,18
 634 750 634 750 651 750 c 0,19,20
 684 750 684 750 705 765 c 128,-1,21
 726 780 726 780 735 802 c 128,-1,22
 744 824 744 824 740.5 850 c 128,-1,23
 737 876 737 876 719 898 c 0,24,25
 671 944 671 944 606 953.5 c 128,-1,26
 541 963 541 963 472.5 944 c 128,-1,27
 404 925 404 925 337.5 882.5 c 128,-1,28
 271 840 271 840 219 781 c 0,29,30
 162 716 162 716 131 641 c 128,-1,31
 100 566 100 566 88 482 c 1,32,33
 106 555 106 555 147.5 611.5 c 128,-1,34
 189 668 189 668 245.5 703.5 c 128,-1,35
 302 739 302 739 368 752.5 c 128,-1,36
 434 766 434 766 502 754 c 1,37,38
 495 781 495 781 472 792.5 c 128,-1,39
 449 804 449 804 420.5 803.5 c 128,-1,40
 392 803 392 803 364.5 793 c 128,-1,41
 337 783 337 783 321 768 c 1,0,1
321 -182 m 1,42,43
 337 -197 337 -197 364.5 -206.5 c 128,-1,44
 392 -216 392 -216 420.5 -216 c 128,-1,45
 449 -216 449 -216 472 -205 c 128,-1,46
 495 -194 495 -194 502 -167 c 1,47,48
 434 -180 434 -180 368 -167 c 128,-1,49
 302 -154 302 -154 245.5 -118 c 128,-1,50
 189 -82 189 -82 147.5 -25.5 c 128,-1,51
 106 31 106 31 88 105 c 1,52,53
 100 20 100 20 131 -54 c 128,-1,54
 162 -128 162 -128 219 -194 c 0,55,56
 271 -254 271 -254 337.5 -297 c 128,-1,57
 404 -340 404 -340 472.5 -359 c 128,-1,58
 541 -378 541 -378 606 -368.5 c 128,-1,59
 671 -359 671 -359 719 -312 c 0,60,61
 737 -290 737 -290 740.5 -264.5 c 128,-1,62
 744 -239 744 -239 735 -217 c 128,-1,63
 726 -195 726 -195 705 -180 c 128,-1,64
 684 -165 684 -165 651 -165 c 0,65,66
 634 -165 634 -165 619 -171.5 c 128,-1,67
 604 -178 604 -178 595 -188.5 c 128,-1,68
 586 -199 586 -199 586 -212 c 128,-1,69
 586 -225 586 -225 599 -239 c 0,70,71
 611 -253 611 -253 630 -255 c 128,-1,72
 649 -257 649 -257 657 -252 c 1,73,74
 653 -268 653 -268 640.5 -278.5 c 128,-1,75
 628 -289 628 -289 612.5 -295 c 128,-1,76
 597 -301 597 -301 580 -303 c 128,-1,77
 563 -305 563 -305 550 -304 c 0,78,79
 514 -304 514 -304 474.5 -292.5 c 128,-1,80
 435 -281 435 -281 396 -261 c 0,81,82
 380 -250 380 -250 359 -230 c 128,-1,83
 338 -210 338 -210 321 -182 c 1,42,43
1224 -182 m 1,84,85
 1207 -210 1207 -210 1185 -230 c 128,-1,86
 1163 -250 1163 -250 1147 -261 c 0,87,88
 1109 -281 1109 -281 1070 -292.5 c 128,-1,89
 1031 -304 1031 -304 993 -304 c 0,90,91
 981 -305 981 -305 965 -303 c 128,-1,92
 949 -301 949 -301 933 -295 c 128,-1,93
 917 -289 917 -289 904 -278.5 c 128,-1,94
 891 -268 891 -268 886 -252 c 1,95,96
 896 -257 896 -257 915 -255 c 128,-1,97
 934 -253 934 -253 947 -239 c 0,98,99
 959 -225 959 -225 959 -212 c 128,-1,100
 959 -199 959 -199 950 -188.5 c 128,-1,101
 941 -178 941 -178 926 -171.5 c 128,-1,102
 911 -165 911 -165 894 -165 c 0,103,104
 861 -165 861 -165 839.5 -180 c 128,-1,105
 818 -195 818 -195 809 -217 c 128,-1,106
 800 -239 800 -239 804 -264.5 c 128,-1,107
 808 -290 808 -290 826 -312 c 0,108,109
 874 -359 874 -359 939 -368.5 c 128,-1,110
 1004 -378 1004 -378 1072.5 -359 c 128,-1,111
 1141 -340 1141 -340 1207 -297 c 128,-1,112
 1273 -254 1273 -254 1324 -194 c 0,113,114
 1381 -128 1381 -128 1413 -54 c 128,-1,115
 1445 20 1445 20 1458 105 c 1,116,117
 1439 31 1439 31 1397 -25.5 c 128,-1,118
 1355 -82 1355 -82 1299 -118 c 128,-1,119
 1243 -154 1243 -154 1176.5 -167 c 128,-1,120
 1110 -180 1110 -180 1043 -167 c 1,121,122
 1050 -194 1050 -194 1073 -205 c 128,-1,123
 1096 -216 1096 -216 1124.5 -216 c 128,-1,124
 1153 -216 1153 -216 1180.5 -206.5 c 128,-1,125
 1208 -197 1208 -197 1224 -182 c 1,84,85
1366 -184 m 0,126,127
 1320 -247 1320 -247 1255.5 -294 c 128,-1,128
 1191 -341 1191 -341 1113.5 -373 c 128,-1,129
 1036 -405 1036 -405 950.5 -421 c 128,-1,130
 865 -437 865 -437 777 -438 c 0,131,132
 692 -437 692 -437 607.5 -422.5 c 128,-1,133
 523 -408 523 -408 444.5 -378 c 128,-1,134
 366 -348 366 -348 297.5 -300 c 128,-1,135
 229 -252 229 -252 177 -184 c 0,136,137
 131 -119 131 -119 100 -40 c 128,-1,138
 69 39 69 39 53.5 124 c 128,-1,139
 38 209 38 209 38 297.5 c 128,-1,140
 38 386 38 386 53.5 470.5 c 128,-1,141
 69 555 69 555 99.5 631.5 c 128,-1,142
 130 708 130 708 177 770 c 0,143,144
 223 833 223 833 288.5 880 c 128,-1,145
 354 927 354 927 431 958.5 c 128,-1,146
 508 990 508 990 594 1005.5 c 128,-1,147
 680 1021 680 1021 768 1022 c 0,148,149
 853 1020 853 1020 938 1006.5 c 128,-1,150
 1023 993 1023 993 1101 963 c 128,-1,151
 1179 933 1179 933 1247 885.5 c 128,-1,152
 1315 838 1315 838 1366 770 c 0,153,154
 1412 707 1412 707 1443 628.5 c 128,-1,155
 1474 550 1474 550 1489.5 464 c 128,-1,156
 1505 378 1505 378 1505 288 c 128,-1,157
 1505 198 1505 198 1489.5 113 c 128,-1,158
 1474 28 1474 28 1443 -48 c 128,-1,159
 1412 -124 1412 -124 1366 -184 c 0,126,127
534 -134 m 1,160,161
 537 -165 537 -165 528 -186 c 128,-1,162
 519 -207 519 -207 496 -223 c 0,163,164
 481 -232 481 -232 466.5 -238 c 128,-1,165
 452 -244 452 -244 432 -244 c 1,166,167
 477 -270 477 -270 517 -275.5 c 128,-1,168
 557 -281 557 -281 592 -273 c 1,169,170
 569 -256 569 -256 561.5 -232.5 c 128,-1,171
 554 -209 554 -209 561 -187 c 128,-1,172
 568 -165 568 -165 590 -150 c 128,-1,173
 612 -135 612 -135 649 -134 c 0,174,175
 679 -134 679 -134 700.5 -144 c 128,-1,176
 722 -154 722 -154 736.5 -170 c 128,-1,177
 751 -186 751 -186 758 -206 c 128,-1,178
 765 -226 765 -226 766 -246 c 0,179,180
 767 -286 767 -286 751 -313 c 128,-1,181
 735 -340 735 -340 712 -357 c 128,-1,182
 689 -374 689 -374 664 -383 c 128,-1,183
 639 -392 639 -392 623 -396 c 1,184,185
 652 -401 652 -401 692 -405.5 c 128,-1,186
 732 -410 732 -410 773 -410 c 0,187,188
 813 -410 813 -410 853 -405.5 c 128,-1,189
 893 -401 893 -401 922 -396 c 1,190,191
 905 -392 905 -392 880.5 -383 c 128,-1,192
 856 -374 856 -374 832.5 -357 c 128,-1,193
 809 -340 809 -340 793 -313 c 128,-1,194
 777 -286 777 -286 779 -246 c 0,195,196
 780 -226 780 -226 787.5 -206 c 128,-1,197
 795 -186 795 -186 809.5 -170 c 128,-1,198
 824 -154 824 -154 845.5 -144 c 128,-1,199
 867 -134 867 -134 897 -134 c 0,200,201
 934 -135 934 -135 955.5 -150 c 128,-1,202
 977 -165 977 -165 984 -187 c 128,-1,203
 991 -209 991 -209 983 -232.5 c 128,-1,204
 975 -256 975 -256 953 -273 c 1,205,206
 988 -281 988 -281 1027.5 -275.5 c 128,-1,207
 1067 -270 1067 -270 1111 -244 c 1,208,209
 1091 -244 1091 -244 1077 -238 c 128,-1,210
 1063 -232 1063 -232 1049 -223 c 0,211,212
 1025 -207 1025 -207 1015.5 -186 c 128,-1,213
 1006 -165 1006 -165 1011 -134 c 1,214,215
 1091 -150 1091 -150 1156.5 -140 c 128,-1,216
 1222 -130 1222 -130 1272.5 -102 c 128,-1,217
 1323 -74 1323 -74 1360 -30.5 c 128,-1,218
 1397 13 1397 13 1420.5 65.5 c 128,-1,219
 1444 118 1444 118 1455.5 176.5 c 128,-1,220
 1467 235 1467 235 1467 292 c 0,221,222
 1467 350 1467 350 1455.5 408.5 c 128,-1,223
 1444 467 1444 467 1420 520 c 128,-1,224
 1396 573 1396 573 1359.5 617 c 128,-1,225
 1323 661 1323 661 1272.5 689 c 128,-1,226
 1222 717 1222 717 1156.5 726.5 c 128,-1,227
 1091 736 1091 736 1011 721 c 1,228,229
 1006 753 1006 753 1015.5 773.5 c 128,-1,230
 1025 794 1025 794 1049 810 c 0,231,232
 1063 818 1063 818 1077 823.5 c 128,-1,233
 1091 829 1091 829 1111 831 c 1,234,235
 1067 856 1067 856 1027.5 862.5 c 128,-1,236
 988 869 988 869 953 860 c 1,237,238
 975 842 975 842 983 818 c 128,-1,239
 991 794 991 794 984 772.5 c 128,-1,240
 977 751 977 751 955.5 736 c 128,-1,241
 934 721 934 721 897 721 c 0,242,243
 867 720 867 720 845.5 729.5 c 128,-1,244
 824 739 824 739 809.5 755 c 128,-1,245
 795 771 795 771 787.5 791 c 128,-1,246
 780 811 780 811 779 831 c 0,247,248
 777 871 777 871 793 898 c 128,-1,249
 809 925 809 925 832.5 942 c 128,-1,250
 856 959 856 959 880.5 967.5 c 128,-1,251
 905 976 905 976 922 980 c 1,252,253
 893 985 893 985 853 991.5 c 128,-1,254
 813 998 813 998 773 998 c 0,255,256
 732 998 732 998 692 991.5 c 128,-1,257
 652 985 652 985 623 980 c 1,258,259
 639 976 639 976 664 967.5 c 128,-1,260
 689 959 689 959 712 942 c 128,-1,261
 735 925 735 925 751 898 c 128,-1,262
 767 871 767 871 766 831 c 0,263,264
 765 811 765 811 758 791 c 128,-1,265
 751 771 751 771 736.5 755 c 128,-1,266
 722 739 722 739 700.5 729.5 c 128,-1,267
 679 720 679 720 649 721 c 0,268,269
 612 721 612 721 590 736 c 128,-1,270
 568 751 568 751 561 772.5 c 128,-1,271
 554 794 554 794 561.5 818 c 128,-1,272
 569 842 569 842 592 860 c 1,273,274
 557 869 557 869 517 862.5 c 128,-1,275
 477 856 477 856 432 831 c 1,276,277
 452 829 452 829 466.5 823.5 c 128,-1,278
 481 818 481 818 496 810 c 0,279,280
 519 794 519 794 528 773.5 c 128,-1,281
 537 753 537 753 534 721 c 1,282,283
 453 736 453 736 388 726.5 c 128,-1,284
 323 717 323 717 272.5 689 c 128,-1,285
 222 661 222 661 185.5 617 c 128,-1,286
 149 573 149 573 125.5 520 c 128,-1,287
 102 467 102 467 90.5 408.5 c 128,-1,288
 79 350 79 350 79 292 c 0,289,290
 79 194 79 194 108.5 107.5 c 128,-1,291
 138 21 138 21 196 -39.5 c 128,-1,292
 254 -100 254 -100 338.5 -127.5 c 128,-1,293
 423 -155 423 -155 534 -134 c 1,160,161
1224 768 m 1,294,295
 1208 783 1208 783 1180.5 793 c 128,-1,296
 1153 803 1153 803 1124.5 803.5 c 128,-1,297
 1096 804 1096 804 1073 792.5 c 128,-1,298
 1050 781 1050 781 1043 754 c 1,299,300
 1110 766 1110 766 1176.5 752.5 c 128,-1,301
 1243 739 1243 739 1299 703.5 c 128,-1,302
 1355 668 1355 668 1397 611.5 c 128,-1,303
 1439 555 1439 555 1458 482 c 1,304,305
 1445 566 1445 566 1413 641 c 128,-1,306
 1381 716 1381 716 1324 781 c 0,307,308
 1273 840 1273 840 1207 882.5 c 128,-1,309
 1141 925 1141 925 1072.5 944 c 128,-1,310
 1004 963 1004 963 939 953.5 c 128,-1,311
 874 944 874 944 826 898 c 0,312,313
 808 876 808 876 804 850 c 128,-1,314
 800 824 800 824 809 802 c 128,-1,315
 818 780 818 780 839.5 765 c 128,-1,316
 861 750 861 750 894 750 c 0,317,318
 911 750 911 750 926 756.5 c 128,-1,319
 941 763 941 763 950 773.5 c 128,-1,320
 959 784 959 784 959 797.5 c 128,-1,321
 959 811 959 811 947 825 c 0,322,323
 934 839 934 839 915 840.5 c 128,-1,324
 896 842 896 842 886 837 c 1,325,326
 891 853 891 853 904 863.5 c 128,-1,327
 917 874 917 874 933 880 c 128,-1,328
 949 886 949 886 965 888 c 128,-1,329
 981 890 981 890 993 890 c 0,330,331
 1031 890 1031 890 1070 878.5 c 128,-1,332
 1109 867 1109 867 1147 847 c 0,333,334
 1163 836 1163 836 1185 815 c 128,-1,335
 1207 794 1207 794 1224 768 c 1,294,295
EndSplineSet
Validated: 33
EndChar

StartChar: uni06DE
Encoding: 1758 1758 248
Width: 1273
GlyphClass: 2
Flags: W
LayerCount: 2
Fore
SplineSet
1175 327 m 1,0,-1
 1028 177 l 1,1,-1
 1028 -33 l 1,2,-1
 819 -33 l 1,3,-1
 673 -180 l 1,4,-1
 523 -33 l 1,5,-1
 313 -33 l 1,6,-1
 313 177 l 1,7,-1
 167 327 l 1,8,-1
 313 474 l 1,9,-1
 313 685 l 1,10,-1
 523 685 l 1,11,-1
 673 833 l 1,12,-1
 819 685 l 1,13,-1
 1028 685 l 1,14,-1
 1028 474 l 1,15,-1
 1175 327 l 1,0,-1
993 458 m 1,16,-1
 805 648 l 1,17,-1
 538 648 l 1,18,-1
 352 458 l 1,19,-1
 352 191 l 1,20,-1
 538 3 l 1,21,-1
 805 3 l 1,22,-1
 993 191 l 1,23,-1
 993 458 l 1,16,-1
538 329 m 256,24,25
 538 302 538 302 548 277.5 c 128,-1,26
 558 253 558 253 576 235 c 128,-1,27
 594 217 594 217 618 206 c 128,-1,28
 642 195 642 195 671 195 c 0,29,30
 698 195 698 195 722 206 c 128,-1,31
 746 217 746 217 764.5 235 c 128,-1,32
 783 253 783 253 794 277.5 c 128,-1,33
 805 302 805 302 805 329 c 256,34,35
 805 356 805 356 794 380 c 128,-1,36
 783 404 783 404 764.5 422 c 128,-1,37
 746 440 746 440 722 450.5 c 128,-1,38
 698 461 698 461 671 461 c 0,39,40
 642 461 642 461 618 450.5 c 128,-1,41
 594 440 594 440 576 422 c 128,-1,42
 558 404 558 404 548 380 c 128,-1,43
 538 356 538 356 538 329 c 256,24,25
EndSplineSet
Validated: 9
EndChar

StartChar: uni06E0
Encoding: 1760 1760 250
Width: 0
GlyphClass: 4
Flags: W
AnchorPoint: "Anchor-55" 275 -25 mark 0
AnchorPoint: "Anchor-50" 275 -25 mark 0
AnchorPoint: "Anchor-46" 275 -25 mark 0
AnchorPoint: "Anchor-42" 275 -25 mark 0
AnchorPoint: "Anchor-38" 275 -25 mark 0
AnchorPoint: "Anchor-33" 275 -25 mark 0
AnchorPoint: "Anchor-29" 275 -25 mark 0
AnchorPoint: "Anchor-24" 275 -25 mark 0
AnchorPoint: "Anchor-20" 275 -25 mark 0
AnchorPoint: "Anchor-16" 275 -25 mark 0
AnchorPoint: "Anchor-12" 275 -25 mark 0
AnchorPoint: "Anchor-8" 275 -25 mark 0
AnchorPoint: "Anchor-5" 275 -25 mark 0
AnchorPoint: "Anchor-0" 275 -25 mark 0
LayerCount: 2
Fore
SplineSet
102 195 m 0,0,1
 102 230 102 230 112.5 264.5 c 128,-1,2
 123 299 123 299 142.5 326 c 128,-1,3
 162 353 162 353 190.5 370 c 128,-1,4
 219 387 219 387 256 387 c 0,5,6
 292 387 292 387 320 370 c 128,-1,7
 348 353 348 353 367.5 325.5 c 128,-1,8
 387 298 387 298 397.5 263.5 c 128,-1,9
 408 229 408 229 408 195 c 0,10,11
 407 159 407 159 397 124.5 c 128,-1,12
 387 90 387 90 368 63 c 128,-1,13
 349 36 349 36 321 18.5 c 128,-1,14
 293 1 293 1 256 0 c 0,15,16
 218 1 218 1 189.5 18.5 c 128,-1,17
 161 36 161 36 142 63 c 128,-1,18
 123 90 123 90 113 124.5 c 128,-1,19
 103 159 103 159 102 195 c 0,0,1
174 195 m 0,20,21
 174 170 174 170 176 143.5 c 128,-1,22
 178 117 178 117 186.5 94.5 c 128,-1,23
 195 72 195 72 211 57.5 c 128,-1,24
 227 43 227 43 256 43 c 0,25,26
 284 43 284 43 300.5 57.5 c 128,-1,27
 317 72 317 72 325.5 94.5 c 128,-1,28
 334 117 334 117 336 143.5 c 128,-1,29
 338 170 338 170 338 195 c 0,30,31
 338 219 338 219 336 245.5 c 128,-1,32
 334 272 334 272 325.5 294.5 c 128,-1,33
 317 317 317 317 300.5 331.5 c 128,-1,34
 284 346 284 346 256 346 c 0,35,36
 227 346 227 346 211 331.5 c 128,-1,37
 195 317 195 317 186.5 294.5 c 128,-1,38
 178 272 178 272 176 245.5 c 128,-1,39
 174 219 174 219 174 195 c 0,20,21
EndSplineSet
Validated: 1
EndChar

StartChar: uni06E1
Encoding: 1761 1761 251
Width: 0
GlyphClass: 4
Flags: W
AnchorPoint: "Anchor-66" 177 500 basemark 0
AnchorPoint: "Anchor-65" 175 475 basemark 0
AnchorPoint: "Anchor-64" 0 0 basemark 0
AnchorPoint: "Anchor-63" 0 0 basemark 0
AnchorPoint: "Anchor-62" 175 425 basemark 0
AnchorPoint: "Anchor-62" 225 -25 mark 0
AnchorPoint: "Anchor-55" 225 -25 mark 0
AnchorPoint: "Anchor-50" 225 -25 mark 0
AnchorPoint: "Anchor-46" 225 -25 mark 0
AnchorPoint: "Anchor-42" 225 -25 mark 0
AnchorPoint: "Anchor-38" 225 -25 mark 0
AnchorPoint: "Anchor-33" 225 -25 mark 0
AnchorPoint: "Anchor-29" 225 -25 mark 0
AnchorPoint: "Anchor-24" 225 -25 mark 0
AnchorPoint: "Anchor-20" 225 -25 mark 0
AnchorPoint: "Anchor-16" 225 -25 mark 0
AnchorPoint: "Anchor-12" 225 -25 mark 0
AnchorPoint: "Anchor-8" 225 -25 mark 0
AnchorPoint: "Anchor-5" 225 -25 mark 0
AnchorPoint: "Anchor-0" 225 -25 mark 0
LayerCount: 2
Fore
SplineSet
430 264 m 0,0,1
 428 257 428 257 425 239 c 128,-1,2
 422 221 422 221 415 203 c 0,3,4
 409 189 409 189 403 174.5 c 128,-1,5
 397 160 397 160 387 152 c 0,6,7
 385 148 385 148 375.5 145 c 128,-1,8
 366 142 366 142 360 142 c 0,9,10
 359 142 359 142 353.5 136.5 c 128,-1,11
 348 131 348 131 340.5 124.5 c 128,-1,12
 333 118 333 118 326 111.5 c 128,-1,13
 319 105 319 105 315 103 c 0,14,15
 285 84 285 84 252 69.5 c 128,-1,16
 219 55 219 55 189 44.5 c 128,-1,17
 159 34 159 34 134.5 27.5 c 128,-1,18
 110 21 110 21 98 19 c 0,19,20
 85 17 85 17 76 20 c 128,-1,21
 67 23 67 23 65 36 c 0,22,23
 64 42 64 42 68 48.5 c 128,-1,24
 72 55 72 55 78 60.5 c 128,-1,25
 84 66 84 66 90 70.5 c 128,-1,26
 96 75 96 75 100 77 c 2,27,-1
 264 160 l 2,28,29
 284 170 284 170 292.5 177.5 c 128,-1,30
 301 185 301 185 301 187 c 0,31,32
 301 188 301 188 292 194 c 128,-1,33
 283 200 283 200 269 207.5 c 128,-1,34
 255 215 255 215 237.5 221.5 c 128,-1,35
 220 228 220 228 204 230 c 0,36,37
 183 234 183 234 164 235.5 c 128,-1,38
 145 237 145 237 128.5 232.5 c 128,-1,39
 112 228 112 228 97 216 c 128,-1,40
 82 204 82 204 69 182 c 0,41,42
 60 167 60 167 51 170.5 c 128,-1,43
 42 174 42 174 47 192 c 0,44,45
 54 215 54 215 62.5 237.5 c 128,-1,46
 71 260 71 260 82 280 c 0,47,48
 134 371 134 371 231 352 c 0,49,50
 252 348 252 348 268.5 342 c 128,-1,51
 285 336 285 336 300 328.5 c 128,-1,52
 315 321 315 321 330.5 312.5 c 128,-1,53
 346 304 346 304 364 296 c 0,54,55
 368 293 368 293 379 289.5 c 128,-1,56
 390 286 390 286 401 282.5 c 128,-1,57
 412 279 412 279 421 274.5 c 128,-1,58
 430 270 430 270 430 264 c 0,0,1
EndSplineSet
Validated: 33
EndChar

StartChar: uni06E2
Encoding: 1762 1762 252
Width: 783
GlyphClass: 4
Flags: WO
AnchorPoint: "Anchor-66" 495 1032 mark 0
LayerCount: 2
Fore
SplineSet
305 1358 m 0,0,1
 324 1356 324 1356 347.5 1341.5 c 128,-1,2
 371 1327 371 1327 393.5 1307.5 c 128,-1,3
 416 1288 416 1288 434 1267.5 c 128,-1,4
 452 1247 452 1247 459 1233 c 1,5,6
 457 1212 457 1212 448.5 1189.5 c 128,-1,7
 440 1167 440 1167 432 1149 c 1,8,9
 418 1147 418 1147 392 1146.5 c 128,-1,10
 366 1146 366 1146 334.5 1144.5 c 128,-1,11
 303 1143 303 1143 270 1139 c 128,-1,12
 237 1135 237 1135 210 1125 c 128,-1,13
 183 1115 183 1115 166 1098.5 c 128,-1,14
 149 1082 149 1082 149 1055 c 0,15,16
 149 1016 149 1016 158 966 c 128,-1,17
 167 916 167 916 173.5 862 c 128,-1,18
 180 808 180 808 179 754.5 c 128,-1,19
 178 701 178 701 158 655 c 0,20,21
 156 649 156 649 149.5 649 c 128,-1,22
 143 649 143 649 143 657 c 0,23,24
 143 730 143 730 137 787.5 c 128,-1,25
 131 845 131 845 123.5 891.5 c 128,-1,26
 116 938 116 938 110 974.5 c 128,-1,27
 104 1011 104 1011 104 1042 c 0,28,29
 106 1087 106 1087 126.5 1123 c 128,-1,30
 147 1159 147 1159 181 1183.5 c 128,-1,31
 215 1208 215 1208 258 1218.5 c 128,-1,32
 301 1229 301 1229 348 1223 c 1,33,34
 344 1229 344 1229 336 1236.5 c 128,-1,35
 328 1244 328 1244 318.5 1251.5 c 128,-1,36
 309 1259 309 1259 300 1264.5 c 128,-1,37
 291 1270 291 1270 285 1272 c 0,38,39
 256 1276 256 1276 233.5 1258.5 c 128,-1,40
 211 1241 211 1241 201 1218 c 0,41,42
 198 1213 198 1213 190 1215.5 c 128,-1,43
 182 1218 182 1218 182 1223 c 0,44,45
 183 1266 183 1266 215 1313 c 0,46,47
 231 1333 231 1333 254.5 1346.5 c 128,-1,48
 278 1360 278 1360 305 1358 c 0,0,1
EndSplineSet
EndChar

StartChar: uni06E3
Encoding: 1763 1763 253
Width: 462
GlyphClass: 4
Flags: W
AnchorPoint: "Anchor-54" 0 0 mark 0
AnchorPoint: "Anchor-37" 0 0 mark 0
AnchorPoint: "Anchor-28" 0 0 mark 0
AnchorPoint: "Anchor-4" 0 0 mark 0
LayerCount: 2
Fore
SplineSet
275 1358 m 0,0,1
 294 1356 294 1356 317.5 1341.5 c 128,-1,2
 341 1327 341 1327 363.5 1307.5 c 128,-1,3
 386 1288 386 1288 404 1267.5 c 128,-1,4
 422 1247 422 1247 429 1233 c 1,5,6
 427 1212 427 1212 418.5 1189.5 c 128,-1,7
 410 1167 410 1167 402 1149 c 1,8,9
 388 1147 388 1147 362.5 1146.5 c 128,-1,10
 337 1146 337 1146 306.5 1144.5 c 128,-1,11
 276 1143 276 1143 244.5 1138.5 c 128,-1,12
 213 1134 213 1134 187.5 1124.5 c 128,-1,13
 162 1115 162 1115 145.5 1098.5 c 128,-1,14
 129 1082 129 1082 129 1055 c 0,15,16
 129 1016 129 1016 138 966 c 128,-1,17
 147 916 147 916 153.5 862 c 128,-1,18
 160 808 160 808 159 754.5 c 128,-1,19
 158 701 158 701 138 655 c 0,20,21
 137 652 137 652 133 650.5 c 128,-1,22
 129 649 129 649 124.5 649 c 128,-1,23
 120 649 120 649 116.5 651 c 128,-1,24
 113 653 113 653 113 657 c 0,25,26
 113 730 113 730 107 787.5 c 128,-1,27
 101 845 101 845 93.5 891.5 c 128,-1,28
 86 938 86 938 80 974.5 c 128,-1,29
 74 1011 74 1011 74 1042 c 0,30,31
 76 1087 76 1087 96.5 1123 c 128,-1,32
 117 1159 117 1159 151 1183.5 c 128,-1,33
 185 1208 185 1208 228 1218.5 c 128,-1,34
 271 1229 271 1229 318 1223 c 1,35,36
 314 1229 314 1229 306 1236.5 c 128,-1,37
 298 1244 298 1244 288.5 1251.5 c 128,-1,38
 279 1259 279 1259 270 1264.5 c 128,-1,39
 261 1270 261 1270 255 1272 c 0,40,41
 226 1276 226 1276 203.5 1258.5 c 128,-1,42
 181 1241 181 1241 171 1218 c 0,43,44
 168 1213 168 1213 160 1215.5 c 128,-1,45
 152 1218 152 1218 152 1223 c 0,46,47
 153 1266 153 1266 185 1313 c 0,48,49
 201 1333 201 1333 224.5 1346.5 c 128,-1,50
 248 1360 248 1360 275 1358 c 0,0,1
EndSplineSet
Validated: 33
EndChar

StartChar: uni06E4
Encoding: 1764 1764 254
Width: 0
GlyphClass: 4
Flags: W
AnchorPoint: "Anchor-66" 250 -80 mark 0
AnchorPoint: "Anchor-65" 250 -25 mark 0
AnchorPoint: "Anchor-55" 250 0 mark 0
AnchorPoint: "Anchor-50" 250 0 mark 0
AnchorPoint: "Anchor-46" 250 0 mark 0
AnchorPoint: "Anchor-42" 250 0 mark 0
AnchorPoint: "Anchor-38" 250 0 mark 0
AnchorPoint: "Anchor-33" 250 0 mark 0
AnchorPoint: "Anchor-29" 250 0 mark 0
AnchorPoint: "Anchor-24" 250 0 mark 0
AnchorPoint: "Anchor-20" 250 0 mark 0
AnchorPoint: "Anchor-16" 250 0 mark 0
AnchorPoint: "Anchor-12" 250 0 mark 0
AnchorPoint: "Anchor-8" 250 0 mark 0
AnchorPoint: "Anchor-5" 250 0 mark 0
AnchorPoint: "Anchor-0" 250 0 mark 0
LayerCount: 2
Fore
SplineSet
520 175 m 0,0,1
 504 139 504 139 487 110.5 c 128,-1,2
 470 82 470 82 449 62 c 128,-1,3
 428 42 428 42 400.5 31 c 128,-1,4
 373 20 373 20 335 20 c 0,5,6
 321 20 321 20 298 23 c 128,-1,7
 275 26 275 26 250.5 29.5 c 128,-1,8
 226 33 226 33 203 36.5 c 128,-1,9
 180 40 180 40 164 41 c 0,10,11
 139 43 139 43 119.5 41.5 c 128,-1,12
 100 40 100 40 82.5 35 c 128,-1,13
 65 30 65 30 48 19.5 c 128,-1,14
 31 9 31 9 10 -6 c 0,15,16
 4 -10 4 -10 -2 -5.5 c 128,-1,17
 -8 -1 -8 -1 -8 5 c 0,18,19
 -6 17 -6 17 8.5 44.5 c 128,-1,20
 23 72 23 72 60 109 c 0,21,22
 91 140 91 140 125.5 145.5 c 128,-1,23
 160 151 160 151 198 145.5 c 128,-1,24
 236 140 236 140 275.5 131 c 128,-1,25
 315 122 315 122 355 122 c 0,26,27
 390 122 390 122 428.5 137.5 c 128,-1,28
 467 153 467 153 493 187 c 0,29,30
 496 190 496 190 501.5 191 c 128,-1,31
 507 192 507 192 512.5 190.5 c 128,-1,32
 518 189 518 189 521 185.5 c 128,-1,33
 524 182 524 182 520 175 c 0,0,1
EndSplineSet
Validated: 33
EndChar

StartChar: uni06E5
Encoding: 1765 1765 255
Width: 645
GlyphClass: 2
Flags: W
AnchorPoint: "Cursive-59" 425 0 entry 0
LayerCount: 2
Fore
SplineSet
45 -53 m 0,0,1
 68 -53 68 -53 91 -54 c 128,-1,2
 114 -55 114 -55 137 -53 c 0,3,4
 203 -47 203 -47 259.5 -26.5 c 128,-1,5
 316 -6 316 -6 367 41 c 0,6,7
 383 56 383 56 402.5 76 c 128,-1,8
 422 96 422 96 440 118.5 c 128,-1,9
 458 141 458 141 472.5 164.5 c 128,-1,10
 487 188 487 188 494 209 c 0,11,12
 502 239 502 239 489 260 c 1,13,14
 481 236 481 236 460.5 217.5 c 128,-1,15
 440 199 440 199 408 199 c 0,16,17
 391 199 391 199 371 206.5 c 128,-1,18
 351 214 351 214 340 228 c 0,19,20
 329 243 329 243 323 264 c 128,-1,21
 317 285 317 285 319 301 c 0,22,23
 321 319 321 319 328 345.5 c 128,-1,24
 335 372 335 372 348.5 397 c 128,-1,25
 362 422 362 422 382.5 439.5 c 128,-1,26
 403 457 403 457 430 457 c 0,27,28
 445 457 445 457 459.5 448 c 128,-1,29
 474 439 474 439 486 425.5 c 128,-1,30
 498 412 498 412 507.5 396 c 128,-1,31
 517 380 517 380 522 367 c 0,32,33
 541 317 541 317 540 263.5 c 128,-1,34
 539 210 539 210 522.5 157.5 c 128,-1,35
 506 105 506 105 477 57 c 128,-1,36
 448 9 448 9 412 -30 c 0,37,38
 373 -71 373 -71 319.5 -87.5 c 128,-1,39
 266 -104 266 -104 207 -106 c 0,40,41
 159 -108 159 -108 114 -103 c 128,-1,42
 69 -98 69 -98 27 -84 c 0,43,44
 18 -81 18 -81 19 -76 c 128,-1,45
 20 -71 20 -71 24.5 -65.5 c 128,-1,46
 29 -60 29 -60 35.5 -56.5 c 128,-1,47
 42 -53 42 -53 45 -53 c 0,0,1
375 312 m 0,48,49
 381 301 381 301 396.5 298 c 128,-1,50
 412 295 412 295 426 295 c 0,51,52
 442 295 442 295 454.5 302.5 c 128,-1,53
 467 310 467 310 469 316 c 0,54,55
 469 320 469 320 464 328 c 128,-1,56
 459 336 459 336 451 344.5 c 128,-1,57
 443 353 443 353 431.5 359 c 128,-1,58
 420 365 420 365 408 365 c 0,59,60
 395 364 395 364 383 344 c 256,61,62
 371 324 371 324 375 312 c 0,48,49
EndSplineSet
Validated: 33
EndChar

StartChar: uni06E6
Encoding: 1766 1766 256
Width: 265
GlyphClass: 2
Flags: W
AnchorPoint: "Anchor-4" 0 0 basechar 0
AnchorPoint: "Anchor-3" 0 0 basechar 0
AnchorPoint: "Anchor-2" 0 0 basechar 0
AnchorPoint: "Anchor-1" 0 0 basechar 0
AnchorPoint: "Anchor-0" 260 1150 basechar 0
LayerCount: 2
Fore
SplineSet
394 888 m 1,0,1
 394 904 394 904 393 922 c 128,-1,2
 392 940 392 940 384 964 c 0,3,4
 369 994 369 994 347.5 986.5 c 128,-1,5
 326 979 326 979 306 954 c 0,6,7
 294 939 294 939 284.5 926 c 128,-1,8
 275 913 275 913 265.5 899.5 c 128,-1,9
 256 886 256 886 244 873.5 c 128,-1,10
 232 861 232 861 218 847 c 0,11,12
 207 837 207 837 180.5 827.5 c 128,-1,13
 154 818 154 818 126 809.5 c 128,-1,14
 98 801 98 801 76.5 791.5 c 128,-1,15
 55 782 55 782 55 773 c 0,16,17
 55 758 55 758 74 747.5 c 128,-1,18
 93 737 93 737 125 733 c 0,19,20
 160 728 160 728 206 726.5 c 128,-1,21
 252 725 252 725 298 725 c 128,-1,22
 344 725 344 725 383 725.5 c 128,-1,23
 422 726 422 726 443 726 c 0,24,25
 483 726 483 726 517 727 c 128,-1,26
 551 728 551 728 584.5 730 c 128,-1,27
 618 732 618 732 653 733.5 c 128,-1,28
 688 735 688 735 728 735 c 0,29,30
 735 735 735 735 739 733.5 c 128,-1,31
 743 732 743 732 737 726 c 0,32,33
 734 723 734 723 728 715.5 c 128,-1,34
 722 708 722 708 714.5 699.5 c 128,-1,35
 707 691 707 691 698.5 683.5 c 128,-1,36
 690 676 690 676 681 674 c 0,37,38
 627 662 627 662 556 653 c 128,-1,39
 485 644 485 644 410 638.5 c 128,-1,40
 335 633 335 633 263.5 632.5 c 128,-1,41
 192 632 192 632 136 635 c 0,42,43
 116 638 116 638 93.5 642 c 128,-1,44
 71 646 71 646 53.5 656 c 128,-1,45
 36 666 36 666 24.5 683.5 c 128,-1,46
 13 701 13 701 13 731 c 0,47,48
 13 737 13 737 17.5 754 c 128,-1,49
 22 771 22 771 29 790 c 128,-1,50
 36 809 36 809 44.5 826 c 128,-1,51
 53 843 53 843 60 849 c 0,52,53
 75 864 75 864 98.5 874.5 c 128,-1,54
 122 885 122 885 147 894 c 128,-1,55
 172 903 172 903 195 911.5 c 128,-1,56
 218 920 218 920 233 934 c 0,57,58
 254 951 254 951 272 975 c 128,-1,59
 290 999 290 999 306.5 1021.5 c 128,-1,60
 323 1044 323 1044 340 1060 c 128,-1,61
 357 1076 357 1076 376 1076 c 0,62,63
 387 1076 387 1076 395.5 1069.5 c 128,-1,64
 404 1063 404 1063 410 1053 c 128,-1,65
 416 1043 416 1043 420 1032 c 128,-1,66
 424 1021 424 1021 425 1012 c 0,67,68
 426 1000 426 1000 426.5 985 c 128,-1,69
 427 970 427 970 426 952.5 c 128,-1,70
 425 935 425 935 422 918.5 c 128,-1,71
 419 902 419 902 412 888 c 0,72,73
 408 879 408 879 403.5 876.5 c 128,-1,74
 399 874 399 874 394 888 c 1,0,1
EndSplineSet
Validated: 33
EndChar

StartChar: uni06E7
Encoding: 1767 1767 257
Width: 0
GlyphClass: 4
Flags: W
AnchorPoint: "Anchor-65" 0 0 basemark 0
AnchorPoint: "Anchor-64" 0 0 basemark 0
AnchorPoint: "Anchor-63" 325 400 basemark 0
AnchorPoint: "Anchor-62" 325 400 basemark 0
AnchorPoint: "Anchor-55" 330 475 mark 0
AnchorPoint: "Anchor-50" 330 475 mark 0
AnchorPoint: "Anchor-46" 330 475 mark 0
AnchorPoint: "Anchor-42" 330 475 mark 0
AnchorPoint: "Anchor-38" 330 475 mark 0
AnchorPoint: "Anchor-33" 330 475 mark 0
AnchorPoint: "Anchor-29" 330 475 mark 0
AnchorPoint: "Anchor-24" 330 475 mark 0
AnchorPoint: "Anchor-20" 330 475 mark 0
AnchorPoint: "Anchor-16" 330 475 mark 0
AnchorPoint: "Anchor-12" 330 475 mark 0
AnchorPoint: "Anchor-8" 330 475 mark 0
AnchorPoint: "Anchor-5" 330 475 mark 0
AnchorPoint: "Anchor-0" 330 475 mark 0
LayerCount: 2
Fore
SplineSet
369 719 m 1,0,1
 369 733 369 733 368 748.5 c 128,-1,2
 367 764 367 764 360 785 c 1,3,4
 346 810 346 810 326.5 803.5 c 128,-1,5
 307 797 307 797 289 776 c 0,6,7
 278 763 278 763 269.5 751.5 c 128,-1,8
 261 740 261 740 252 729 c 128,-1,9
 243 718 243 718 232.5 707 c 128,-1,10
 222 696 222 696 209 684 c 0,11,12
 199 675 199 675 175 667 c 128,-1,13
 151 659 151 659 125.5 651.5 c 128,-1,14
 100 644 100 644 80.5 636 c 128,-1,15
 61 628 61 628 61 621 c 0,16,17
 61 607 61 607 78.5 598.5 c 128,-1,18
 96 590 96 590 125 586 c 0,19,20
 156 582 156 582 200 580.5 c 128,-1,21
 244 579 244 579 287 578.5 c 128,-1,22
 330 578 330 578 364.5 578.5 c 128,-1,23
 399 579 399 579 412 579 c 0,24,25
 448 579 448 579 479 580.5 c 128,-1,26
 510 582 510 582 541 583.5 c 128,-1,27
 572 585 572 585 603.5 586.5 c 128,-1,28
 635 588 635 588 672 588 c 0,29,30
 678 588 678 588 681.5 586.5 c 128,-1,31
 685 585 685 585 680 580 c 0,32,33
 677 577 677 577 671.5 570.5 c 128,-1,34
 666 564 666 564 659.5 557 c 128,-1,35
 653 550 653 550 645 543.5 c 128,-1,36
 637 537 637 537 629 535 c 0,37,38
 580 524 580 524 515.5 516.5 c 128,-1,39
 451 509 451 509 383 504.5 c 128,-1,40
 315 500 315 500 250 499.5 c 128,-1,41
 185 499 185 499 135 502 c 0,42,43
 116 504 116 504 96 507.5 c 128,-1,44
 76 511 76 511 60 519.5 c 128,-1,45
 44 528 44 528 33.5 543 c 128,-1,46
 23 558 23 558 23 584 c 0,47,48
 23 590 23 590 27 604.5 c 128,-1,49
 31 619 31 619 37.5 635 c 128,-1,50
 44 651 44 651 51.5 665.5 c 128,-1,51
 59 680 59 680 66 686 c 0,52,53
 79 699 79 699 100.5 708 c 128,-1,54
 122 717 122 717 144.5 724.5 c 128,-1,55
 167 732 167 732 188 739.5 c 128,-1,56
 209 747 209 747 223 758 c 0,57,58
 242 773 242 773 258 794 c 128,-1,59
 274 815 274 815 289 834.5 c 128,-1,60
 304 854 304 854 319.5 867.5 c 128,-1,61
 335 881 335 881 352 881 c 0,62,63
 362 881 362 881 370 875.5 c 128,-1,64
 378 870 378 870 383.5 861.5 c 128,-1,65
 389 853 389 853 392.5 843.5 c 128,-1,66
 396 834 396 834 397 826 c 0,67,68
 398 816 398 816 398.5 802.5 c 128,-1,69
 399 789 399 789 398 774 c 128,-1,70
 397 759 397 759 394 745 c 128,-1,71
 391 731 391 731 385 719 c 0,72,73
 381 711 381 711 377 709 c 128,-1,74
 373 707 373 707 369 719 c 1,0,1
EndSplineSet
Validated: 33
EndChar

StartChar: uni06E8
Encoding: 1768 1768 258
Width: 0
GlyphClass: 4
Flags: W
AnchorPoint: "Anchor-55" 350 600 mark 0
AnchorPoint: "Anchor-50" 350 600 mark 0
AnchorPoint: "Anchor-46" 350 600 mark 0
AnchorPoint: "Anchor-42" 350 600 mark 0
AnchorPoint: "Anchor-38" 350 600 mark 0
AnchorPoint: "Anchor-33" 350 600 mark 0
AnchorPoint: "Anchor-29" 350 600 mark 0
AnchorPoint: "Anchor-24" 350 600 mark 0
AnchorPoint: "Anchor-20" 350 600 mark 0
AnchorPoint: "Anchor-16" 350 600 mark 0
AnchorPoint: "Anchor-12" 350 600 mark 0
AnchorPoint: "Anchor-8" 350 600 mark 0
AnchorPoint: "Anchor-5" 350 600 mark 0
AnchorPoint: "Anchor-0" 350 600 mark 0
LayerCount: 2
Fore
SplineSet
450 1188 m 0,0,1
 500 1120 500 1120 525 1040.5 c 128,-1,2
 550 961 550 961 536 875 c 0,3,4
 528 826 528 826 500.5 789 c 128,-1,5
 473 752 473 752 433.5 726.5 c 128,-1,6
 394 701 394 701 347.5 687.5 c 128,-1,7
 301 674 301 674 258 674 c 256,8,9
 215 674 215 674 178.5 687 c 128,-1,10
 142 700 142 700 114.5 724 c 128,-1,11
 87 748 87 748 71 782.5 c 128,-1,12
 55 817 55 817 55 860 c 0,13,14
 55 910 55 910 72 960 c 128,-1,15
 89 1010 89 1010 123 1047 c 0,16,17
 129 1052 129 1052 132 1046.5 c 128,-1,18
 135 1041 135 1041 133 1038 c 0,19,20
 108 1003 108 1003 98.5 960 c 128,-1,21
 89 917 89 917 98 873 c 0,22,23
 110 816 110 816 156 788 c 0,24,25
 204 758 204 758 263 762 c 0,26,27
 333 765 333 765 396 791 c 128,-1,28
 459 817 459 817 503 870 c 1,29,30
 504 901 504 901 496.5 934 c 128,-1,31
 489 967 489 967 475.5 998 c 128,-1,32
 462 1029 462 1029 446.5 1059.5 c 128,-1,33
 431 1090 431 1090 415 1116 c 1,34,35
 421 1133 421 1133 428 1151.5 c 128,-1,36
 435 1170 435 1170 441 1188 c 0,37,38
 443 1194 443 1194 446 1193 c 128,-1,39
 449 1192 449 1192 450 1188 c 0,0,1
268 1194 m 2,40,41
 263 1190 263 1190 259 1194 c 2,42,-1
 198 1244 l 2,43,44
 195 1247 195 1247 196 1249 c 128,-1,45
 197 1251 197 1251 198 1252 c 2,46,-1
 238 1303 l 2,47,48
 241 1307 241 1307 246 1303 c 2,49,-1
 307 1252 l 2,50,51
 311 1247 311 1247 308 1244 c 2,52,-1
 268 1194 l 2,40,41
EndSplineSet
Validated: 33
EndChar

StartChar: uni06E9
Encoding: 1769 1769 259
Width: 923
GlyphClass: 2
Flags: W
LayerCount: 2
Fore
SplineSet
106 72 m 1,0,-1
 752 72 l 1,1,-1
 649 174 l 1,2,-1
 649 469 l 1,3,4
 663 483 663 483 661 498 c 128,-1,5
 659 513 659 513 649 524 c 1,6,-1
 571 524 l 1,7,8
 561 510 561 510 560.5 497.5 c 128,-1,9
 560 485 560 485 571 465 c 1,10,-1
 571 154 l 1,11,-1
 285 154 l 1,12,-1
 285 465 l 1,13,14
 296 485 296 485 297 498.5 c 128,-1,15
 298 512 298 512 285 524 c 1,16,-1
 209 524 l 1,17,18
 198 512 198 512 197 498 c 128,-1,19
 196 484 196 484 209 469 c 1,20,-1
 209 174 l 1,21,-1
 106 72 l 1,0,-1
500 201 m 1,22,-1
 358 201 l 1,23,-1
 358 344 l 1,24,-1
 358 610 l 2,25,26
 357 651 357 651 367 678.5 c 128,-1,27
 377 706 377 706 393 720 c 128,-1,28
 409 734 409 734 427.5 734 c 128,-1,29
 446 734 446 734 462 720 c 128,-1,30
 478 706 478 706 489 678.5 c 128,-1,31
 500 651 500 651 500 610 c 0,32,33
 498 547 498 547 498 477.5 c 128,-1,34
 498 408 498 408 498 344 c 0,35,36
 498 307 498 307 498 271.5 c 128,-1,37
 498 236 498 236 500 201 c 1,22,-1
530 768 m 1,38,39
 540 801 540 801 534.5 836.5 c 128,-1,40
 529 872 529 872 513.5 905 c 128,-1,41
 498 938 498 938 475 967 c 128,-1,42
 452 996 452 996 428 1016 c 1,43,44
 405 994 405 994 383 965.5 c 128,-1,45
 361 937 361 937 345 904.5 c 128,-1,46
 329 872 329 872 323 837 c 128,-1,47
 317 802 317 802 326 768 c 1,48,49
 288 779 288 779 259.5 773 c 128,-1,50
 231 767 231 767 212.5 750.5 c 128,-1,51
 194 734 194 734 185.5 711.5 c 128,-1,52
 177 689 177 689 179.5 667 c 128,-1,53
 182 645 182 645 195 627.5 c 128,-1,54
 208 610 208 610 233 604 c 1,55,56
 224 613 224 613 222.5 625.5 c 128,-1,57
 221 638 221 638 225 650 c 128,-1,58
 229 662 229 662 237 671 c 128,-1,59
 245 680 245 680 256 682 c 0,60,61
 274 686 274 686 294.5 676 c 128,-1,62
 315 666 315 666 324 639 c 0,63,64
 328 621 328 621 324 602.5 c 128,-1,65
 320 584 320 584 308.5 568.5 c 128,-1,66
 297 553 297 553 277 544 c 128,-1,67
 257 535 257 535 229 537 c 0,68,69
 200 539 200 539 178.5 552.5 c 128,-1,70
 157 566 157 566 143 586.5 c 128,-1,71
 129 607 129 607 122 631.5 c 128,-1,72
 115 656 115 656 115 680 c 0,73,74
 115 706 115 706 123.5 732 c 128,-1,75
 132 758 132 758 149.5 779.5 c 128,-1,76
 167 801 167 801 193.5 816 c 128,-1,77
 220 831 220 831 256 836 c 1,78,79
 260 872 260 872 276 907.5 c 128,-1,80
 292 943 292 943 315 976 c 128,-1,81
 338 1009 338 1009 367.5 1040 c 128,-1,82
 397 1071 397 1071 428 1098 c 1,83,84
 461 1071 461 1071 490.5 1040 c 128,-1,85
 520 1009 520 1009 543 976 c 128,-1,86
 566 943 566 943 581 907.5 c 128,-1,87
 596 872 596 872 600 836 c 1,88,89
 636 831 636 831 663 816 c 128,-1,90
 690 801 690 801 708 779 c 128,-1,91
 726 757 726 757 734.5 731.5 c 128,-1,92
 743 706 743 706 743 680 c 0,93,94
 743 656 743 656 736 631.5 c 128,-1,95
 729 607 729 607 714.5 586.5 c 128,-1,96
 700 566 700 566 678 552.5 c 128,-1,97
 656 539 656 539 627 537 c 0,98,99
 601 535 601 535 581 544 c 128,-1,100
 561 553 561 553 548.5 568.5 c 128,-1,101
 536 584 536 584 532 602.5 c 128,-1,102
 528 621 528 621 535 639 c 0,103,104
 541 666 541 666 562.5 676 c 128,-1,105
 584 686 584 686 602 682 c 0,106,107
 612 680 612 680 620.5 671 c 128,-1,108
 629 662 629 662 633 650 c 128,-1,109
 637 638 637 638 635.5 625.5 c 128,-1,110
 634 613 634 613 625 604 c 1,111,112
 649 610 649 610 662.5 627.5 c 128,-1,113
 676 645 676 645 678.5 666.5 c 128,-1,114
 681 688 681 688 672.5 710 c 128,-1,115
 664 732 664 732 645.5 748.5 c 128,-1,116
 627 765 627 765 598 771.5 c 128,-1,117
 569 778 569 778 530 768 c 1,38,39
821 0 m 1,118,-1
 778 47 l 1,119,-1
 80 47 l 1,120,-1
 35 0 l 1,121,-1
 821 0 l 1,118,-1
EndSplineSet
Validated: 41
EndChar

StartChar: uni06EC
Encoding: 1772 1772 262
Width: 385
GlyphClass: 2
Flags: W
LayerCount: 2
Fore
SplineSet
61 214 m 256,0,1
 61 241 61 241 71 265 c 128,-1,2
 81 289 81 289 99 306.5 c 128,-1,3
 117 324 117 324 141 334.5 c 128,-1,4
 165 345 165 345 192 345 c 0,5,6
 220 345 220 345 244 334.5 c 128,-1,7
 268 324 268 324 286 306.5 c 128,-1,8
 304 289 304 289 314.5 265 c 128,-1,9
 325 241 325 241 325 214 c 256,10,11
 325 187 325 187 314.5 162.5 c 128,-1,12
 304 138 304 138 286 120 c 128,-1,13
 268 102 268 102 244 91.5 c 128,-1,14
 220 81 220 81 192 81 c 0,15,16
 165 81 165 81 141 91.5 c 128,-1,17
 117 102 117 102 99 120 c 128,-1,18
 81 138 81 138 71 162.5 c 128,-1,19
 61 187 61 187 61 214 c 256,0,1
EndSplineSet
Validated: 1
EndChar

StartChar: d1
Encoding: 65547 -1 282
Width: 0
GlyphClass: 2
Flags: W
LayerCount: 2
Fore
SplineSet
102 225 m 2,0,-1
 225 123 l 2,1,2
 233 116 233 116 226 107 c 2,3,-1
 144 4 l 2,4,5
 137 -6 137 -6 128 2 c 2,6,-1
 4 104 l 2,7,8
 -4 111 -4 111 4 121 c 2,9,-1
 87 223 l 2,10,11
 94 232 94 232 102 225 c 2,0,-1
EndSplineSet
Validated: 1
EndChar

StartChar: d2
Encoding: 65548 -1 283
Width: 0
GlyphClass: 2
Flags: W
LayerCount: 2
Fore
SplineSet
363 20 m 2,0,1
 358 14 358 14 355 13.5 c 128,-1,2
 352 13 352 13 344 19 c 2,3,-1
 225 112 l 1,4,-1
 147 5 l 2,5,6
 140 -4 140 -4 132 2 c 2,7,-1
 5 100 l 2,8,9
 -2 105 -2 105 3 112 c 2,10,-1
 84 227 l 2,11,12
 88 233 88 233 91 233 c 128,-1,13
 94 233 94 233 98 229 c 2,14,-1
 218 138 l 1,15,-1
 300 243 l 2,16,17
 306 251 306 251 312 246 c 2,18,-1
 439 140 l 2,19,20
 446 135 446 135 439 126 c 2,21,-1
 363 20 l 2,0,1
EndSplineSet
Validated: 1
EndChar

StartChar: d3
Encoding: 65549 -1 284
Width: 0
GlyphClass: 2
Flags: W
LayerCount: 2
Fore
SplineSet
360 19 m 2,0,1
 354 12 354 12 351 12 c 128,-1,2
 348 12 348 12 341 17 c 2,3,-1
 223 110 l 1,4,-1
 146 3 l 2,5,6
 139 -6 139 -6 131 1 c 2,7,-1
 5 97 l 2,8,9
 -2 103 -2 103 3 110 c 2,10,-1
 83 224 l 2,11,12
 88 230 88 230 90.5 229.5 c 128,-1,13
 93 229 93 229 97 226 c 2,14,-1
 216 135 l 1,15,-1
 297 239 l 2,16,17
 303 247 303 247 309 243 c 2,18,-1
 435 138 l 2,19,20
 441 132 441 132 435 124 c 2,21,-1
 360 19 l 2,0,1
171 441 m 2,22,-1
 294 340 l 2,23,24
 302 334 302 334 295 326 c 2,25,-1
 213 224 l 2,26,27
 206 215 206 215 197 222 c 2,28,-1
 73 322 l 2,29,30
 65 329 65 329 73 339 c 2,31,-1
 156 439 l 2,32,33
 163 448 163 448 171 441 c 2,22,-1
EndSplineSet
Validated: 1
EndChar

StartChar: uni0670_uni0653
Encoding: 65555 -1 290
Width: 0
GlyphClass: 4
Flags: W
AnchorPoint: "Anchor-56" 200 0 mark 0
AnchorPoint: "Anchor-51" 200 0 mark 0
AnchorPoint: "Anchor-47" 200 0 mark 0
AnchorPoint: "Anchor-43" 200 0 mark 0
AnchorPoint: "Anchor-39" 200 0 mark 0
AnchorPoint: "Anchor-34" 200 0 mark 0
AnchorPoint: "Anchor-30" 200 0 mark 0
AnchorPoint: "Anchor-25" 200 0 mark 0
AnchorPoint: "Anchor-21" 200 0 mark 0
AnchorPoint: "Anchor-17" 200 0 mark 0
AnchorPoint: "Anchor-13" 200 0 mark 0
AnchorPoint: "Anchor-9" 200 0 mark 0
AnchorPoint: "Anchor-6" 200 0 mark 0
AnchorPoint: "Anchor-1" 200 0 mark 0
LayerCount: 2
Fore
SplineSet
248 498 m 256,0,1
 252 498 252 498 258 489 c 0,2,3
 314 419 314 419 335.5 337.5 c 128,-1,4
 357 256 357 256 343 158 c 0,5,6
 338 136 338 136 329.5 109.5 c 128,-1,7
 321 83 321 83 309 60 c 128,-1,8
 297 37 297 37 283.5 21.5 c 128,-1,9
 270 6 270 6 258 6 c 0,10,11
 249 6 249 6 247.5 13 c 128,-1,12
 246 20 246 20 247.5 31.5 c 128,-1,13
 249 43 249 43 252.5 55 c 128,-1,14
 256 67 256 67 258 76 c 0,15,16
 273 155 273 155 255 240 c 128,-1,17
 237 325 237 325 177 400 c 0,18,19
 177 404 177 404 186.5 420 c 128,-1,20
 196 436 196 436 208 453 c 128,-1,21
 220 470 220 470 232 484 c 128,-1,22
 244 498 244 498 248 498 c 256,0,1
503 781 m 0,23,24
 490 739 490 739 461.5 704 c 128,-1,25
 433 669 433 669 394.5 643.5 c 128,-1,26
 356 618 356 618 311 603.5 c 128,-1,27
 266 589 266 589 219 589 c 0,28,29
 188 589 188 589 152.5 595 c 128,-1,30
 117 601 117 601 90 609 c 1,31,-1
 87 609 l 2,32,33
 75 609 75 609 70 575 c 0,34,35
 65 538 65 538 51 529 c 1,36,-1
 32 589 l 2,37,38
 6 658 6 658 -15 681 c 1,39,40
 -7 714 -7 714 1.5 745 c 128,-1,41
 10 776 10 776 18 795 c 0,42,43
 20 799 20 799 24 802 c 128,-1,44
 28 805 28 805 32 800 c 0,45,46
 92 710 92 710 240 710 c 0,47,48
 281 710 281 710 312.5 715 c 128,-1,49
 344 720 344 720 372.5 731 c 128,-1,50
 401 742 401 742 431 760 c 128,-1,51
 461 778 461 778 498 805 c 0,52,53
 501 808 501 808 503.5 809.5 c 128,-1,54
 506 811 506 811 507 809 c 128,-1,55
 508 807 508 807 507 800.5 c 128,-1,56
 506 794 506 794 503 781 c 0,23,24
EndSplineSet
Validated: 33
Ligature2: "'liga' Standard Ligatures in Arabic lookup 0 subtable" uni0670 uni0653
EndChar

StartChar: afii57456_uni06E2
Encoding: 65556 -1 291
Width: 0
GlyphClass: 4
Flags: W
AnchorPoint: "Anchor-58" 400 50 mark 0
AnchorPoint: "Anchor-53" 400 50 mark 0
AnchorPoint: "Anchor-49" 400 50 mark 0
AnchorPoint: "Anchor-45" 400 50 mark 0
AnchorPoint: "Anchor-41" 400 50 mark 0
AnchorPoint: "Anchor-36" 400 50 mark 0
AnchorPoint: "Anchor-32" 400 50 mark 0
AnchorPoint: "Anchor-27" 400 50 mark 0
AnchorPoint: "Anchor-23" 400 50 mark 0
AnchorPoint: "Anchor-19" 400 50 mark 0
AnchorPoint: "Anchor-15" 400 50 mark 0
AnchorPoint: "Anchor-11" 400 50 mark 0
AnchorPoint: "Anchor-7" 400 50 mark 0
AnchorPoint: "Anchor-3" 400 50 mark 0
LayerCount: 2
Fore
SplineSet
115 -14 m 0,0,1
 134 -16 134 -16 154.5 -27 c 128,-1,2
 175 -38 175 -38 193.5 -54 c 128,-1,3
 212 -70 212 -70 227.5 -88 c 128,-1,4
 243 -106 243 -106 251 -121 c 1,5,6
 249 -142 249 -142 244.5 -163.5 c 128,-1,7
 240 -185 240 -185 235 -207 c 1,8,9
 221 -209 221 -209 198.5 -211 c 128,-1,10
 176 -213 176 -213 150.5 -216.5 c 128,-1,11
 125 -220 125 -220 99 -226.5 c 128,-1,12
 73 -233 73 -233 53 -244.5 c 128,-1,13
 33 -256 33 -256 21.5 -273 c 128,-1,14
 10 -290 10 -290 13 -315 c 0,15,16
 16 -352 16 -352 26 -397 c 128,-1,17
 36 -442 36 -442 43 -490.5 c 128,-1,18
 50 -539 50 -539 50 -588.5 c 128,-1,19
 50 -638 50 -638 33 -684 c 0,20,21
 33 -690 33 -690 28 -691 c 128,-1,22
 23 -692 23 -692 21 -684 c 0,23,24
 13 -613 13 -613 5 -561 c 128,-1,25
 -3 -509 -3 -509 -9.5 -469 c 128,-1,26
 -16 -429 -16 -429 -21 -397 c 128,-1,27
 -26 -365 -26 -365 -28 -334 c 0,28,29
 -36 -243 -36 -243 10.5 -192 c 128,-1,30
 57 -141 57 -141 151 -141 c 1,31,32
 140 -125 140 -125 128.5 -112.5 c 128,-1,33
 117 -100 117 -100 101 -100 c 0,34,35
 74 -100 74 -100 53.5 -119.5 c 128,-1,36
 33 -139 33 -139 25 -162 c 0,37,38
 25 -164 25 -164 17 -164 c 128,-1,39
 9 -164 9 -164 9 -160 c 0,40,41
 7 -113 7 -113 31 -67 c 1,42,43
 46 -47 46 -47 67.5 -31.5 c 128,-1,44
 89 -16 89 -16 115 -14 c 0,0,1
221 -453 m 0,45,46
 206 -459 206 -459 212 -444 c 2,47,-1
 241 -363 l 2,48,49
 244 -358 244 -358 246 -354 c 128,-1,50
 248 -350 248 -350 253 -347 c 0,51,52
 277 -334 277 -334 317.5 -315 c 128,-1,53
 358 -296 358 -296 406 -273 c 128,-1,54
 454 -250 454 -250 506.5 -224.5 c 128,-1,55
 559 -199 559 -199 608 -175 c 0,56,57
 622 -167 622 -167 617 -182 c 2,58,-1
 584 -267 l 2,59,60
 582 -271 582 -271 579.5 -274 c 128,-1,61
 577 -277 577 -277 572 -279 c 0,62,63
 484 -322 484 -322 396.5 -366 c 128,-1,64
 309 -410 309 -410 221 -453 c 0,45,46
226 -639 m 0,65,66
 220 -642 220 -642 217 -640 c 128,-1,67
 214 -638 214 -638 217 -630 c 2,68,-1
 247 -549 l 2,69,70
 251 -539 251 -539 260 -533 c 0,71,72
 284 -520 284 -520 324 -500.5 c 128,-1,73
 364 -481 364 -481 412 -458 c 128,-1,74
 460 -435 460 -435 512.5 -410 c 128,-1,75
 565 -385 565 -385 613 -361 c 0,76,77
 622 -356 622 -356 623 -358.5 c 128,-1,78
 624 -361 624 -361 622 -367 c 2,79,-1
 590 -453 l 2,80,81
 588 -457 588 -457 586 -460 c 128,-1,82
 584 -463 584 -463 579 -465 c 0,83,84
 489 -507 489 -507 402.5 -551 c 128,-1,85
 316 -595 316 -595 226 -639 c 0,65,66
EndSplineSet
Validated: 33
EndChar

StartChar: Allah
Encoding: 65565 -1 300
Width: 1746
GlyphClass: 3
Flags: W
AnchorPoint: "Anchor-37" 0 0 baselig 0
AnchorPoint: "Anchor-36" 1500 -140 baselig 0
AnchorPoint: "Anchor-35" 0 0 baselig 0
AnchorPoint: "Anchor-34" 0 0 baselig 0
AnchorPoint: "Anchor-33" 1475 1075 baselig 0
AnchorPoint: "Anchor-37" 0 0 baselig 1
AnchorPoint: "Anchor-36" 0 0 baselig 1
AnchorPoint: "Anchor-35" 0 0 baselig 1
AnchorPoint: "Anchor-34" 0 0 baselig 1
AnchorPoint: "Anchor-33" 970 1025 baselig 1
AnchorPoint: "Anchor-37" 0 0 baselig 2
AnchorPoint: "Anchor-36" 300 -165 baselig 2
AnchorPoint: "Anchor-35" 0 0 baselig 2
AnchorPoint: "Anchor-34" 0 0 baselig 2
AnchorPoint: "Anchor-33" 375 900 baselig 2
LayerCount: 2
Fore
SplineSet
486 451 m 1,0,1
 452 439 452 439 413.5 425.5 c 128,-1,2
 375 412 375 412 338 395.5 c 128,-1,3
 301 379 301 379 267 358.5 c 128,-1,4
 233 338 233 338 208 312 c 0,5,6
 205 309 205 309 204.5 307.5 c 128,-1,7
 204 306 204 306 204 304 c 0,8,9
 231 295 231 295 271 289.5 c 128,-1,10
 311 284 311 284 352.5 285.5 c 128,-1,11
 394 287 394 287 431.5 296 c 128,-1,12
 469 305 469 305 492 323 c 1,13,-1
 486 451 l 1,0,1
555 804 m 0,14,15
 563 817 563 817 569 810 c 1,16,17
 570 734 570 734 572.5 646.5 c 128,-1,18
 575 559 575 559 579 480 c 128,-1,19
 583 401 583 401 588 340 c 128,-1,20
 593 279 593 279 598 255 c 0,21,22
 616 184 616 184 672 149.5 c 128,-1,23
 728 115 728 115 821 135 c 0,24,25
 857 143 857 143 896.5 162 c 128,-1,26
 936 181 936 181 968.5 207 c 128,-1,27
 1001 233 1001 233 1020 265 c 128,-1,28
 1039 297 1039 297 1034 331 c 2,29,-1
 965 818 l 2,30,31
 965 826 965 826 971 846.5 c 128,-1,32
 977 867 977 867 985.5 890.5 c 128,-1,33
 994 914 994 914 1003 936 c 128,-1,34
 1012 958 1012 958 1019 968 c 0,35,36
 1027 980 1027 980 1033.5 983 c 128,-1,37
 1040 986 1040 986 1042 974 c 2,38,-1
 1119 455 l 2,39,40
 1136 340 1136 340 1200.5 269.5 c 128,-1,41
 1265 199 1265 199 1368 178 c 0,42,43
 1392 173 1392 173 1422 173 c 128,-1,44
 1452 173 1452 173 1478 178.5 c 128,-1,45
 1504 184 1504 184 1521 195.5 c 128,-1,46
 1538 207 1538 207 1535 227 c 0,47,48
 1525 290 1525 290 1502.5 369 c 128,-1,49
 1480 448 1480 448 1454 525 c 0,50,51
 1446 550 1446 550 1434.5 591.5 c 128,-1,52
 1423 633 1423 633 1412 679 c 128,-1,53
 1401 725 1401 725 1392.5 768.5 c 128,-1,54
 1384 812 1384 812 1382 840 c 0,55,56
 1382 848 1382 848 1388.5 868.5 c 128,-1,57
 1395 889 1395 889 1404.5 913 c 128,-1,58
 1414 937 1414 937 1424.5 959.5 c 128,-1,59
 1435 982 1435 982 1442 993 c 0,60,61
 1449 1003 1449 1003 1457 999.5 c 128,-1,62
 1465 996 1465 996 1466 984 c 0,63,64
 1478 895 1478 895 1497 809 c 128,-1,65
 1516 723 1516 723 1542 635 c 0,66,67
 1568 549 1568 549 1590.5 476 c 128,-1,68
 1613 403 1613 403 1625 343 c 0,69,70
 1637 284 1637 284 1629 221.5 c 128,-1,71
 1621 159 1621 159 1592.5 108.5 c 128,-1,72
 1564 58 1564 58 1515.5 25.5 c 128,-1,73
 1467 -7 1467 -7 1398 -7 c 0,74,75
 1295 -7 1295 -7 1211 43 c 128,-1,76
 1127 93 1127 93 1075 213 c 1,77,78
 1033 97 1033 97 957.5 23.5 c 128,-1,79
 882 -50 882 -50 781 -57 c 0,80,81
 708 -61 708 -61 656.5 -36.5 c 128,-1,82
 605 -12 605 -12 571.5 31.5 c 128,-1,83
 538 75 538 75 520.5 132.5 c 128,-1,84
 503 190 503 190 498 251 c 1,85,86
 470 206 470 206 442.5 170.5 c 128,-1,87
 415 135 415 135 373 121 c 0,88,89
 343 111 343 111 304.5 107 c 128,-1,90
 266 103 266 103 227 105.5 c 128,-1,91
 188 108 188 108 152 118 c 128,-1,92
 116 128 116 128 90 145 c 1,93,94
 84 186 84 186 100 231 c 128,-1,95
 116 276 116 276 144.5 318 c 128,-1,96
 173 360 173 360 208.5 394.5 c 128,-1,97
 244 429 244 429 276 448 c 0,98,99
 324 476 324 476 376.5 500.5 c 128,-1,100
 429 525 429 525 486 542 c 1,101,102
 484 570 484 570 483 598 c 128,-1,103
 482 626 482 626 481 653 c 1,104,105
 497 692 497 692 515 730 c 128,-1,106
 533 768 533 768 555 804 c 0,14,15
EndSplineSet
Validated: 33
Ligature2: "'calt' Contextual Alternates in Arabic lookup 5 subtable" afii57444.init afii57444.zz03 afii57470.zz04
EndChar

StartChar: uni0671.zz04
Encoding: 65566 -1 301
Width: 537
GlyphClass: 2
Flags: W
LayerCount: 2
Fore
SplineSet
404 1662 m 1,0,1
 379 1685 379 1685 353.5 1680 c 128,-1,2
 328 1675 328 1675 306 1654 c 0,3,4
 297 1648 297 1648 283.5 1632 c 128,-1,5
 270 1616 270 1616 258.5 1598.5 c 128,-1,6
 247 1581 247 1581 240 1566 c 128,-1,7
 233 1551 233 1551 236 1548 c 0,8,9
 243 1543 243 1543 259 1544.5 c 128,-1,10
 275 1546 275 1546 292 1550 c 128,-1,11
 309 1554 309 1554 324 1559 c 128,-1,12
 339 1564 339 1564 345 1566 c 0,13,14
 371 1579 371 1579 389.5 1591 c 128,-1,15
 408 1603 408 1603 422 1624 c 1,16,17
 422 1634 422 1634 415 1643 c 128,-1,18
 408 1652 408 1652 404 1662 c 1,0,1
183 1552 m 1,19,20
 193 1570 193 1570 206.5 1593.5 c 128,-1,21
 220 1617 220 1617 238 1644 c 0,22,23
 256 1669 256 1669 272.5 1691.5 c 128,-1,24
 289 1714 289 1714 307.5 1732 c 128,-1,25
 326 1750 326 1750 347.5 1761.5 c 128,-1,26
 369 1773 369 1773 396 1775 c 1,27,28
 427 1770 427 1770 444 1748 c 128,-1,29
 461 1726 461 1726 466 1697.5 c 128,-1,30
 471 1669 471 1669 466.5 1639.5 c 128,-1,31
 462 1610 462 1610 449 1589 c 0,32,33
 421 1541 421 1541 367 1499 c 0,34,35
 306 1456 306 1456 226 1447 c 0,36,37
 189 1443 189 1443 148 1452.5 c 128,-1,38
 107 1462 107 1462 70 1484 c 0,39,40
 64 1486 64 1486 56 1478 c 128,-1,41
 48 1470 48 1470 39.5 1457 c 128,-1,42
 31 1444 31 1444 22.5 1429 c 128,-1,43
 14 1414 14 1414 5 1404 c 0,44,45
 -6 1392 -6 1392 -13 1395 c 128,-1,46
 -20 1398 -20 1398 -20 1409 c 0,47,48
 -18 1425 -18 1425 -11 1445.5 c 128,-1,49
 -4 1466 -4 1466 6 1486.5 c 128,-1,50
 16 1507 16 1507 26.5 1525.5 c 128,-1,51
 37 1544 37 1544 46 1556 c 0,52,53
 54 1570 54 1570 65 1581.5 c 128,-1,54
 76 1593 76 1593 95 1585 c 0,55,56
 100 1580 100 1580 111.5 1575 c 128,-1,57
 123 1570 123 1570 136.5 1565.5 c 128,-1,58
 150 1561 150 1561 162.5 1557.5 c 128,-1,59
 175 1554 175 1554 183 1552 c 1,19,20
552 158 m 0,60,61
 583 158 583 158 598.5 133 c 128,-1,62
 614 108 614 108 614 78.5 c 128,-1,63
 614 49 614 49 598.5 24.5 c 128,-1,64
 583 0 583 0 552 0 c 0,65,66
 549 0 549 0 545.5 0 c 128,-1,67
 542 0 542 0 538 0 c 0,68,69
 448 0 448 0 390.5 33 c 128,-1,70
 333 66 333 66 299 121 c 0,71,72
 259 187 259 187 246.5 263.5 c 128,-1,73
 234 340 234 340 226 416 c 0,74,75
 217 503 217 503 207 590 c 128,-1,76
 197 677 197 677 187 773 c 0,77,78
 158 1027 158 1027 120 1143 c 0,79,80
 118 1151 118 1151 117 1155 c 128,-1,81
 116 1159 116 1159 118 1165 c 2,82,-1
 170 1296 l 2,83,84
 173 1303 173 1303 178.5 1303 c 128,-1,85
 184 1303 184 1303 186 1296 c 0,86,87
 199 1239 199 1239 210 1181.5 c 128,-1,88
 221 1124 221 1124 231 1057 c 0,89,90
 241 991 241 991 271 731 c 0,91,92
 279 661 279 661 286 593 c 128,-1,93
 293 525 293 525 301 457 c 0,94,95
 306 403 306 403 314.5 346 c 128,-1,96
 323 289 323 289 349 241 c 0,97,98
 372 200 372 200 415.5 179 c 128,-1,99
 459 158 459 158 538 158 c 0,100,101
 542 158 542 158 545.5 158 c 128,-1,102
 549 158 549 158 552 158 c 0,60,61
EndSplineSet
Validated: 33
EndChar

StartChar: afii57411.zz04
Encoding: 65568 -1 303
Width: 611
GlyphClass: 2
Flags: W
AnchorPoint: "Anchor-0" 241 1860 basechar 0
LayerCount: 2
Fore
SplineSet
104 1469 m 0,0,1
 110 1473 110 1473 121.5 1480 c 128,-1,2
 133 1487 133 1487 145.5 1494.5 c 128,-1,3
 158 1502 158 1502 170.5 1509.5 c 128,-1,4
 183 1517 183 1517 192 1522 c 1,5,6
 169 1539 169 1539 152.5 1559 c 128,-1,7
 136 1579 136 1579 124 1609 c 0,8,9
 119 1621 119 1621 122 1635 c 128,-1,10
 125 1649 125 1649 132 1660 c 0,11,12
 147 1682 147 1682 166.5 1705 c 128,-1,13
 186 1728 186 1728 208.5 1747 c 128,-1,14
 231 1766 231 1766 256.5 1778 c 128,-1,15
 282 1790 282 1790 310 1790 c 0,16,17
 325 1790 325 1790 337.5 1779 c 128,-1,18
 350 1768 350 1768 358.5 1752 c 128,-1,19
 367 1736 367 1736 370 1719 c 128,-1,20
 373 1702 373 1702 370 1690 c 2,21,-1
 353 1659 l 2,22,23
 344 1639 344 1639 328 1639 c 0,24,25
 319 1639 319 1639 316.5 1650.5 c 128,-1,26
 314 1662 314 1662 310 1675 c 0,27,28
 302 1690 302 1690 292 1695.5 c 128,-1,29
 282 1701 282 1701 268 1701 c 0,30,31
 222 1701 222 1701 187 1669 c 1,32,33
 200 1634 200 1634 228.5 1606 c 128,-1,34
 257 1578 257 1578 294 1574 c 0,35,36
 342 1569 342 1569 385 1577 c 128,-1,37
 428 1585 428 1585 476 1595 c 1,38,39
 476 1593 476 1593 472 1579.5 c 128,-1,40
 468 1566 468 1566 462.5 1549.5 c 128,-1,41
 457 1533 457 1533 451.5 1520 c 128,-1,42
 446 1507 446 1507 442 1507 c 0,43,44
 403 1503 403 1503 362 1496 c 128,-1,45
 321 1489 321 1489 278 1475 c 0,46,47
 254 1467 254 1467 228.5 1454.5 c 128,-1,48
 203 1442 203 1442 178.5 1428 c 128,-1,49
 154 1414 154 1414 130 1400.5 c 128,-1,50
 106 1387 106 1387 85 1377 c 0,51,52
 80 1375 80 1375 75.5 1377 c 128,-1,53
 71 1379 71 1379 73 1385 c 0,54,55
 78 1403 78 1403 86 1428 c 128,-1,56
 94 1453 94 1453 104 1469 c 0,0,1
625 158 m 2,57,58
 656 158 656 158 671 133.5 c 128,-1,59
 686 109 686 109 685.5 79 c 128,-1,60
 685 49 685 49 669.5 24.5 c 128,-1,61
 654 0 654 0 623 0 c 2,62,-1
 609 0 l 2,63,64
 532 0 532 0 479 24.5 c 128,-1,65
 426 49 426 49 392 92 c 128,-1,66
 358 135 358 135 339.5 191.5 c 128,-1,67
 321 248 321 248 313 313 c 0,68,69
 308 356 308 356 302.5 414.5 c 128,-1,70
 297 473 297 473 291.5 535 c 128,-1,71
 286 597 286 597 280.5 657 c 128,-1,72
 275 717 275 717 270 764 c 0,73,74
 261 855 261 855 249 946 c 128,-1,75
 237 1037 237 1037 209 1143 c 0,76,77
 207 1151 207 1151 206.5 1155 c 128,-1,78
 206 1159 206 1159 208 1165 c 0,79,80
 218 1196 218 1196 232 1233 c 128,-1,81
 246 1270 246 1270 261 1305 c 0,82,83
 263 1309 263 1309 269 1310.5 c 128,-1,84
 275 1312 275 1312 277 1305 c 0,85,86
 289 1248 289 1248 299.5 1189 c 128,-1,87
 310 1130 310 1130 319.5 1062 c 128,-1,88
 329 994 329 994 337 913 c 128,-1,89
 345 832 345 832 354 731 c 0,90,91
 359 655 359 655 365 596.5 c 128,-1,92
 371 538 371 538 375 492 c 128,-1,93
 379 446 379 446 383 411 c 128,-1,94
 387 376 387 376 392 346 c 0,95,96
 405 248 405 248 456.5 203 c 128,-1,97
 508 158 508 158 611 158 c 2,98,-1
 625 158 l 2,57,58
EndSplineSet
Validated: 1048609
Substitution2: "Single Substitution lookup 35 subtable" afii57411.zz04_calt
EndChar

StartChar: afii57412.zz04
Encoding: 65569 -1 304
Width: 892
GlyphClass: 2
Flags: W
AnchorPoint: "Cursive-59" 0 0 exit 0
AnchorPoint: "Anchor-4" 0 0 basechar 0
AnchorPoint: "Anchor-3" 300 -625 basechar 0
AnchorPoint: "Anchor-2" 0 0 basechar 0
AnchorPoint: "Anchor-1" 0 0 basechar 0
AnchorPoint: "Anchor-0" 450 1050 basechar 0
LayerCount: 2
Fore
SplineSet
572 254 m 0,0,1
 558 254 558 254 545 245.5 c 128,-1,2
 532 237 532 237 521.5 225.5 c 128,-1,3
 511 214 511 214 504.5 201.5 c 128,-1,4
 498 189 498 189 498 180 c 0,5,6
 504 167 504 167 529 160.5 c 128,-1,7
 554 154 554 154 584.5 151.5 c 128,-1,8
 615 149 615 149 645 149.5 c 128,-1,9
 675 150 675 150 691 152 c 0,10,11
 691 156 691 156 680 172 c 128,-1,12
 669 188 669 188 651.5 205.5 c 128,-1,13
 634 223 634 223 613 237.5 c 128,-1,14
 592 252 592 252 572 254 c 0,0,1
722 -1 m 1,15,-1
 620 -3 l 2,16,17
 578 -5 578 -5 539.5 5.5 c 128,-1,18
 501 16 501 16 473 37.5 c 128,-1,19
 445 59 445 59 430 91.5 c 128,-1,20
 415 124 415 124 420 167 c 0,21,22
 423 195 423 195 440.5 236 c 128,-1,23
 458 277 458 277 484.5 315 c 128,-1,24
 511 353 511 353 543.5 380.5 c 128,-1,25
 576 408 576 408 610 408 c 0,26,27
 646 408 646 408 677 380 c 128,-1,28
 708 352 708 352 732 312 c 128,-1,29
 756 272 756 272 771.5 228.5 c 128,-1,30
 787 185 787 185 791 154 c 1,31,-1
 892 157 l 1,32,-1
 912 157 l 2,33,34
 943 157 943 157 959.5 132.5 c 128,-1,35
 976 108 976 108 976 78.5 c 128,-1,36
 976 49 976 49 960 24.5 c 128,-1,37
 944 0 944 0 912 0 c 2,38,-1
 892 0 l 1,39,-1
 787 -1 l 1,40,41
 768 -86 768 -86 744 -166 c 128,-1,42
 720 -246 720 -246 683 -313.5 c 128,-1,43
 646 -381 646 -381 592.5 -431 c 128,-1,44
 539 -481 539 -481 461 -505 c 0,45,46
 407 -522 407 -522 338.5 -528.5 c 128,-1,47
 270 -535 270 -535 198 -532.5 c 128,-1,48
 126 -530 126 -530 57 -520.5 c 128,-1,49
 -12 -511 -12 -511 -67 -495 c 0,50,51
 -80 -491 -80 -491 -84 -482.5 c 128,-1,52
 -88 -474 -88 -474 -84.5 -465.5 c 128,-1,53
 -81 -457 -81 -457 -71 -451 c 128,-1,54
 -61 -445 -61 -445 -46 -446 c 0,55,56
 14 -450 14 -450 78.5 -448 c 128,-1,57
 143 -446 143 -446 205.5 -437 c 128,-1,58
 268 -428 268 -428 326 -411.5 c 128,-1,59
 384 -395 384 -395 432 -369 c 0,60,61
 489 -338 489 -338 535 -296 c 128,-1,62
 581 -254 581 -254 616.5 -206 c 128,-1,63
 652 -158 652 -158 678 -105.5 c 128,-1,64
 704 -53 704 -53 722 -1 c 1,15,-1
364 640 m 1,65,66
 377 648 377 648 401 660.5 c 128,-1,67
 425 673 425 673 442 683 c 1,68,69
 419 700 419 700 402.5 720 c 128,-1,70
 386 740 386 740 374 770 c 0,71,72
 369 782 369 782 372 796 c 128,-1,73
 375 810 375 810 382 821 c 0,74,75
 397 843 397 843 416.5 866 c 128,-1,76
 436 889 436 889 458.5 908 c 128,-1,77
 481 927 481 927 506.5 939 c 128,-1,78
 532 951 532 951 560 951 c 0,79,80
 572 951 572 951 581.5 944.5 c 128,-1,81
 591 938 591 938 598.5 928 c 128,-1,82
 606 918 606 918 611.5 906.5 c 128,-1,83
 617 895 617 895 620 886 c 0,84,85
 625 865 625 865 620 851 c 2,86,-1
 603 820 l 2,87,88
 594 800 594 800 578 800 c 0,89,90
 569 800 569 800 566.5 811.5 c 128,-1,91
 564 823 564 823 560 836 c 0,92,93
 552 851 552 851 542 856.5 c 128,-1,94
 532 862 532 862 518 862 c 0,95,96
 472 862 472 862 437 830 c 1,97,98
 450 795 450 795 478.5 767 c 128,-1,99
 507 739 507 739 544 735 c 0,100,101
 592 730 592 730 635 738 c 128,-1,102
 678 746 678 746 726 756 c 1,103,104
 726 754 726 754 722 740.5 c 128,-1,105
 718 727 718 727 712.5 710.5 c 128,-1,106
 707 694 707 694 701.5 681 c 128,-1,107
 696 668 696 668 692 668 c 0,108,109
 653 664 653 664 613 655.5 c 128,-1,110
 573 647 573 647 528 636 c 0,111,112
 483 621 483 621 435 599.5 c 128,-1,113
 387 578 387 578 345 558 c 0,114,115
 338 558 338 558 333 566 c 1,116,117
 338 584 338 584 346 604 c 128,-1,118
 354 624 354 624 364 640 c 1,65,66
EndSplineSet
Validated: 33
EndChar

StartChar: afii57414.init
Encoding: 65572 -1 307
Width: 743
GlyphClass: 2
Flags: W
AnchorPoint: "Cursive-60" 550 0 entry 0
AnchorPoint: "Anchor-4" 0 0 basechar 0
AnchorPoint: "Anchor-3" 200 -175 basechar 0
AnchorPoint: "Anchor-2" 0 0 basechar 0
AnchorPoint: "Anchor-1" 150 1100 basechar 0
AnchorPoint: "Anchor-0" 160 1050 basechar 0
LayerCount: 2
Fore
SplineSet
537 569 m 2,0,1
 539 576 539 576 544.5 577 c 128,-1,2
 550 578 550 578 562 567 c 0,3,4
 589 541 589 541 611.5 507.5 c 128,-1,5
 634 474 634 474 650 437.5 c 128,-1,6
 666 401 666 401 674.5 363 c 128,-1,7
 683 325 683 325 683 289 c 0,8,9
 683 271 683 271 680 248.5 c 128,-1,10
 677 226 677 226 671 203 c 128,-1,11
 665 180 665 180 656 158.5 c 128,-1,12
 647 137 647 137 635 120 c 0,13,14
 610 85 610 85 552.5 61.5 c 128,-1,15
 495 38 495 38 412.5 24.5 c 128,-1,16
 330 11 330 11 225 5.5 c 128,-1,17
 120 0 120 0 0 0 c 2,18,-1
 -18 0 l 2,19,20
 -50 0 -50 0 -66 24.5 c 128,-1,21
 -82 49 -82 49 -82 79 c 128,-1,22
 -82 109 -82 109 -66 133.5 c 128,-1,23
 -50 158 -50 158 -18 158 c 2,24,-1
 0 158 l 2,25,26
 94 158 94 158 189 160 c 128,-1,27
 284 162 284 162 366.5 168.5 c 128,-1,28
 449 175 449 175 512 187 c 128,-1,29
 575 199 575 199 605 219 c 0,30,31
 622 230 622 230 618 246 c 0,32,33
 601 301 601 301 573 343 c 128,-1,34
 545 385 545 385 503 428 c 1,35,-1
 537 569 l 2,0,1
20 557 m 0,36,37
 25 561 25 561 59 577 c 2,38,-1
 100 598 l 1,39,40
 80 615 80 615 61 636.5 c 128,-1,41
 42 658 42 658 30 684 c 0,42,43
 24 700 24 700 28 716 c 128,-1,44
 32 732 32 732 42 746 c 0,45,46
 55 767 55 767 74 786.5 c 128,-1,47
 93 806 93 806 118 825 c 0,48,49
 142 841 142 841 168.5 851.5 c 128,-1,50
 195 862 195 862 222 862 c 0,51,52
 233 862 233 862 243 855 c 128,-1,53
 253 848 253 848 261 838.5 c 128,-1,54
 269 829 269 829 274.5 818 c 128,-1,55
 280 807 280 807 283 798 c 0,56,57
 289 777 289 777 283 764 c 0,58,59
 267 730 267 730 257.5 721 c 128,-1,60
 248 712 248 712 240 713 c 256,61,62
 232 714 232 714 230 725 c 128,-1,63
 228 736 228 736 222 749 c 0,64,65
 216 764 216 764 204 769.5 c 128,-1,66
 192 775 192 775 178 775 c 0,67,68
 133 775 133 775 95 743 c 1,69,70
 109 709 109 709 139 681 c 128,-1,71
 169 653 169 653 205 649 c 0,72,73
 229 647 229 647 252 648 c 128,-1,74
 275 649 275 649 298 652 c 0,75,76
 344 659 344 659 391 670 c 1,77,-1
 357 584 l 1,78,79
 317 579 317 579 275.5 572 c 128,-1,80
 234 565 234 565 188 552 c 0,81,82
 143 538 143 538 95 516 c 128,-1,83
 47 494 47 494 5 473 c 0,84,85
 -2 470 -2 470 -5.5 473.5 c 128,-1,86
 -9 477 -9 477 -8 482 c 256,87,88
 -7 487 -7 487 -4.5 496.5 c 128,-1,89
 -2 506 -2 506 2 517 c 128,-1,90
 6 528 6 528 10.5 538.5 c 128,-1,91
 15 549 15 549 20 557 c 0,36,37
EndSplineSet
Validated: 1
Substitution2: "Single Substitution lookup 43 subtable" afii57414.zz24
Substitution2: "Single Substitution lookup 40 subtable" afii57414.zz21
Substitution2: "Single Substitution lookup 33 subtable" afii57414.zz10
EndChar

